SplineFontDB: 1.0
FontName: FreeSansOblique
FullName: Free Sans Oblique
FamilyName: FreeSans
Weight: Medium
Copyright: Copyleft 2002, 2003 Free Software Foundation.
Version: $Revision: 1.11 $
ItalicAngle: -12
UnderlinePosition: -151
UnderlineWidth: 50
Ascent: 800
Descent: 200
NeedsXUIDChange: 1
FSType: 0
PfmFamily: 33
TTFWeight: 400
TTFWidth: 5
Panose: 2 11 5 4 2 2 2 9 2 4
LineGap: 90
VLineGap: 0
ScriptLang: 5
 1 latn 1 dflt 
 1 armn 1 dflt 
 1 hebr 1 dflt 
 1 DFLT 1 dflt 
 1 grek 1 dflt 
LangName: 1033 "" "" "" "" "" "" "" "" "" "" "" "" "" "The use of this font is granted subject to GNU General Public License." "http://www.gnu.org/copyleft/gpl.html" "" "" "" "" "The quick brown fox jumps over the lazy dog." 
LangName: 1060 "" "" "le+AX4A-e+AQ0A-e" "" "" "" "" "" "" "" "" "" "" "Dovoljena je uporaba v skladu z licenco GNU General Public License." "http://www.gnu.org/copyleft/gpl.html" "" "" "" "" "+AWAA-erif bo za vajo spet kuhal doma+AQ0A-e +AX4A-gance." 
Encoding: unicode
UnicodeInterp: none
DisplaySize: -36
AntiAlias: 1
FitToEm: 1
WinInfo: 480 16 14
BeginPrivate: 8
UniqueID 7 5020908
BlueValues 31 [-23 0 524 544 729 749 686 709]
BlueScale 8 0.039625
StdHW 4 [78]
StdVW 4 [88]
StemSnapH 194 [68 73 78 83] 
systemdict /internaldict known
{1183615869 systemdict /internaldict get exec
/StemSnapLength 2 copy known { get 4 lt } { pop pop true } ifelse }
{ true } ifelse { pop [78 83] } if
StemSnapV 2 []
ForceBold 5 false
EndPrivate
AnchorClass: "1 Top" abvm 0 4 0 0 
BeginChars: 65536 1143
StartChar: exclam
Encoding: 33 33 1
Width: 278
Flags: W
HStem: 0 103<146 208> 709 20G<279 363>
DStem: 146 103 230 103 124 0 208 0 279 729 363 729 205 379 289 379
Fore
363 729 m 1
 289 379 l 1
 222 168 l 1
 182 168 l 1
 205 379 l 1
 279 729 l 1
 363 729 l 1
230 103 m 1
 208 0 l 1
 124 0 l 1
 146 103 l 1
 230 103 l 1
EndSplineSet
EndChar
StartChar: quotedbl
Encoding: 34 34 2
Width: 355
Flags: W
HStem: 464 245<202 217 361 376>
DStem: 202 709 296 709 178 598 272 598 361 709 455 709 337 598 431 598
Fore
202 709 m 1
 296 709 l 1
 272 598 l 1
 217 464 l 1
 177 464 l 1
 178 598 l 1
 202 709 l 1
361 709 m 1
 455 709 l 1
 431 598 l 1
 376 464 l 1
 336 464 l 1
 337 598 l 1
 361 709 l 1
EndSplineSet
EndChar
StartChar: numbersign
Encoding: 35 35 3
Width: 556
Flags: W
HStem: 191 64<68 154 257 355 458 550> 439 64<157 252 355 453 556 635>
DStem: 155 191 231 191 72 -20 148 -20 253 439 330 439 180 255 256 255 355 697 431 697 278 503 355 503 356 191 432 191 273 -20 349 -20 454 439 530 439 381 255 457 255 556 697 632 697 479 503 555 503
Fore
632 697 m 1
 555 503 l 1
 649 503 l 1
 635 439 l 1
 530 439 l 1
 457 255 l 1
 564 255 l 1
 550 191 l 1
 432 191 l 1
 349 -20 l 1
 273 -20 l 1
 356 191 l 1
 231 191 l 1
 148 -20 l 1
 72 -20 l 1
 155 191 l 1
 54 191 l 1
 68 255 l 1
 180 255 l 1
 253 439 l 1
 144 439 l 1
 157 503 l 1
 278 503 l 1
 355 697 l 1
 431 697 l 1
 355 503 l 1
 479 503 l 1
 556 697 l 1
 632 697 l 1
454 439 m 1
 330 439 l 1
 256 255 l 1
 381 255 l 1
 454 439 l 1
EndSplineSet
EndChar
StartChar: dollar
Encoding: 36 36 4
Width: 556
Flags: W
VStem: 69 83<134 152> 152.002 82.9977<469 501> 476.996 88.0041<211 243> 530 83<546 567>
DStem: 239 -23 298 -23 217 -126 276 -126 311 318 368 309 253 46 312 46 381 645 440 646 330 405 387 397 407 770 466 770 396 716 455 716
Fore
407 770 m 1
 466 770 l 1
 455 716 l 1
 555 711 613 655 613 565 c 0
 613 549 612 539 607 519 c 1
 528 519 l 1
 529 534 l 1
 530 543 530 551 530 555 c 0
 530 607 495 643 440 646 c 1
 387 397 l 1
 469 372 484 365 508 349 c 0
 548 322 565 291 565 243 c 0
 565 168 532 88 481 43 c 0
 437 3 371 -21 298 -23 c 1
 276 -126 l 1
 217 -126 l 1
 239 -23 l 1
 122 -5 69 43 69 134 c 0
 69 157 71 174 77 208 c 1
 156 208 l 1
 155 197 l 1
 153 178 152 159 152 150 c 0
 152 95 180 67 253 46 c 1
 311 318 l 1
 239 343 218 352 197 370 c 0
 167 396 152 429 152 469 c 0
 152 535 182 609 227 650 c 0
 267 687 328 711 396 716 c 1
 407 770 l 1
330 405 m 1
 381 645 l 1
 339 642 305 627 279 602 c 128
 253 577 235 536 235 501 c 0
 235 452 261 426 330 405 c 1
368 309 m 1
 312 46 l 1
 417 54 477 114 477 211 c 0
 477 259 449 285 368 309 c 1
EndSplineSet
EndChar
StartChar: percent
Encoding: 37 37 5
Width: 889
Flags: W
HStem: -15.6262 65.6262<694 700> 254 65.1905<740 743> 346.042 65.9584<274 288> 616 65.1905<328 342>
VStem: 134.606 69.3944<492 496> 413 69.0691<534 540> 546.198 69.8017<124 134> 825 69.0692<172 174>
DStem: 759 709 825 709 209 -20 275 -20
Fore
759 709 m 1
 825 709 l 1
 275 -20 l 1
 209 -20 l 1
 759 709 l 1
345 682 m 0
 423 682 483 625 483 552 c 0
 483 444 382 346 270 346 c 0
 192 346 134 402 134 478 c 0
 134 583 237 682 345 682 c 0
329 616 m 0
 265 616 204 557 204 494 c 0
 204 447 239 412 286 412 c 0
 351 412 413 472 413 534 c 0
 413 583 379 616 329 616 c 0
757 320 m 0
 835 320 895 263 895 190 c 0
 895 82 794 -16 682 -16 c 0
 604 -16 546 40 546 116 c 0
 546 221 649 320 757 320 c 0
741 254 m 0
 677 254 616 195 616 132 c 0
 616 85 651 50 698 50 c 0
 763 50 825 110 825 172 c 0
 825 221 791 254 741 254 c 0
EndSplineSet
EndChar
StartChar: ampersand
Encoding: 38 38 6
Width: 667
Flags: W
HStem: -22.8598 76.8598<253 280> 0 21G<528 634> 639 69.0067<435 450>
VStem: 83.938 87.3387<128 159> 247 83<521 537> 505 83<569 587>
DStem: 329 336 407 378 448 137 505 215 482 78 544 151 528 0 634 0
Fore
565 334 m 1
 644 334 l 1
 632 273 593 202 544 151 c 1
 634 0 l 1
 528 0 l 1
 482 78 l 1
 391 3 333 -23 253 -23 c 0
 148 -23 83 35 83 128 c 0
 83 209 120 277 195 332 c 0
 221 350 249 368 288 390 c 1
 284 401 281 409 279 413 c 2
 261 455 l 2
 252 477 247 500 247 523 c 0
 247 620 346 709 455 709 c 0
 536 709 588 662 588 587 c 0
 588 500 531 434 407 378 c 1
 505 215 l 1
 537 252 553 285 565 334 c 1
377 434 m 1
 469 480 505 519 505 574 c 0
 505 614 479 639 436 639 c 0
 377 639 330 592 330 533 c 0
 330 505 336 492 377 434 c 1
448 137 m 1
 329 336 l 1
 217 276 171 224 171 159 c 128
 171 94 213 54 280 54 c 0
 329 54 375 76 448 137 c 1
EndSplineSet
MinimumDistance: x3,-1 
EndChar
StartChar: quotesingle
Encoding: 39 39 7
Width: 191
Flags: W
HStem: 464 245<198 213>
DStem: 198 709 292 709 174 598 268 598
Fore
198 709 m 1
 292 709 l 1
 268 598 l 1
 213 464 l 1
 173 464 l 1
 174 598 l 1
 198 709 l 1
EndSplineSet
EndChar
StartChar: parenleft
Encoding: 40 40 8
Width: 333
Flags: W
HStem: -213 21G<191 246> 709 20G<391 446>
VStem: 113 78<78 118>
Fore
391 729 m 1
 446 729 l 1
 278 523 191 301 191 79 c 0
 191 -23 209 -117 246 -213 c 1
 191 -213 l 1
 142 -127 113 -3 113 116 c 0
 113 319 217 547 391 729 c 1
EndSplineSet
MinimumDistance: x2,-1 
EndChar
StartChar: parenright
Encoding: 41 41 9
Width: 333
Flags: W
HStem: -213 21G<-7 48> 709 20G<193 248>
VStem: 248 77<395 443>
Fore
48 -213 m 1
 -7 -213 l 1
 159 -10 248 215 248 431 c 0
 248 538 231 632 193 729 c 1
 248 729 l 1
 295 646 325 520 325 407 c 0
 325 275 290 148 216 15 c 0
 170 -68 111 -147 48 -213 c 1
EndSplineSet
MinimumDistance: x5,-1 
EndChar
StartChar: asterisk
Encoding: 42 42 10
Width: 389
Flags: W
HStem: 709 20G<319 381>
Fore
319 729 m 1
 381 729 l 1
 352 617 l 1
 462 655 l 1
 471 593 l 1
 358 566 l 1
 411 475 l 1
 353 438 l 1
 309 534 l 1
 228 439 l 1
 181 479 l 1
 273 567 l 1
 169 598 l 1
 199 657 l 1
 299 617 l 1
 319 729 l 1
EndSplineSet
EndChar
StartChar: plus
Encoding: 43 43 11
Width: 584
Flags: W
HStem: 197 72<107 298 385 576> 197 276<369 384>
DStem: 107 269 369 197 92 197 325 -11 299 197 369 197 255 -11 325 -11 358 473 428 473 314 269 384 269
Fore
591 269 m 1
 576 197 l 1
 369 197 l 1
 325 -11 l 1
 255 -11 l 1
 299 197 l 1
 92 197 l 1
 107 269 l 1
 314 269 l 1
 358 473 l 1
 428 473 l 1
 384 269 l 1
 591 269 l 1
EndSplineSet
MinimumDistance: x10,-1 
EndChar
StartChar: comma
Encoding: 44 44 12
Width: 278
Flags: W
HStem: 0 103<109 145>
DStem: 109 103 214 103 87 0 188 -16
Fore
109 103 m 1
 214 103 l 1
 188 -16 l 1
 171 -101 121 -150 55 -147 c 1
 63 -109 l 1
 111 -109 132 -82 146 0 c 1
 87 0 l 1
 109 103 l 1
EndSplineSet
MinimumDistance: x1,-1 
KernsSLIF: 8217 -55 3 0 8221 -47 3 0 63196 -105 3 0
EndChar
StartChar: hyphen
Encoding: 45 45 13
Width: 333
Flags: W
HStem: 240 72<112 336>
DStem: 112 312 351 312 97 240 336 240
Fore
351 312 m 1
 336 240 l 1
 97 240 l 1
 112 312 l 1
 351 312 l 1
EndSplineSet
KernsSLIF: 65 -12 3 0 84 -86 3 0 86 -51 3 0 87 -24 3 0 89 -97 3 0 193 -12 3 0 196 -12 3 0 197 -12 3 0 198 -17 3 0
EndChar
StartChar: period
Encoding: 46 46 14
Width: 278
Flags: W
HStem: 0 103<109 191>
DStem: 109 103 213 103 87 0 191 0
Fore
213 103 m 1
 191 0 l 1
 87 0 l 1
 109 103 l 1
 213 103 l 1
EndSplineSet
MinimumDistance: x0,-1 
KernsSLIF: 8217 -56 3 0 8221 -48 3 0 63196 -106 3 0
EndChar
StartChar: slash
Encoding: 47 47 15
Width: 278
Flags: W
HStem: 709 20G<379 434>
DStem: 379 729 434 729 -12 -20 43 -20
Fore
379 729 m 1
 434 729 l 1
 43 -20 l 1
 -12 -20 l 1
 379 729 l 1
EndSplineSet
EndChar
StartChar: zero
Encoding: 48 48 16
Width: 556
Flags: HW
HStem: -23 77<274 290> 632 77<402 420>
VStem: 98 88<169 201> 510 88<489 521>
Fore
418 709 m 0
 531 709 598 636 598 514 c 0
 598 371 550 191 486 99 c 0
 428 15 362 -23 276 -23 c 0
 228 -23 179 -5 148 25 c 0
 116 56 98 109 98 170 c 0
 98 315 147 495 210 587 c 0
 266 669 335 709 418 709 c 0
406 632 m 0
 343 632 295 592 256 509 c 0
 218 426 186 276 186 181 c 0
 186 102 224 54 287 54 c 0
 352 54 399 92 439 178 c 0
 477 258 510 410 510 504 c 0
 510 585 471 632 406 632 c 0
EndSplineSet
EndChar
StartChar: one
Encoding: 49 49 17
Width: 556
Flags: HW
HStem: 0 21G<259 347>
DStem: 221 568 498 709 208 505 347 0 367 505 498 709 259 0 347 0
Fore
367 505 m 1
 208 505 l 1
 221 568 l 1
 365 588 386 601 440 709 c 1
 498 709 l 1
 347 0 l 1
 259 0 l 1
 367 505 l 1
EndSplineSet
MinimumDistance: x4,-1 
EndChar
StartChar: two
Encoding: 50 50 18
Width: 556
Flags: HW
HStem: 0 87<148 505> 632 77<400 434>
VStem: 532 88<524 539>
Fore
524 87 m 1
 505 0 l 1
 34 0 l 1
 78 161 124 215 297 307 c 1
 401 359 l 2
 484 401 532 461 532 525 c 128
 532 589 486 632 416 632 c 0
 358 632 308 607 277 563 c 0
 259 538 247 508 235 463 c 1
 147 463 l 1
 186 632 274 709 428 709 c 0
 496 709 544 691 578 653 c 0
 605 623 620 581 620 537 c 0
 620 437 555 354 422 287 c 2
 310 230 l 2
 219 185 164 136 147 87 c 1
 524 87 l 1
EndSplineSet
EndChar
StartChar: three
Encoding: 51 51 19
Width: 556
Flags: HW
HStem: -23 77<263 291> 327 73<306 343> 632 77<404 423>
VStem: 71 88<143 169> 467 88<233 249> 511 87.4053<544 553>
Fore
290 325 m 1
 306 400 l 1
 318 400 l 1
 324 400 l 2
 397 400 450 416 477 447 c 0
 498 470 511 507 511 545 c 0
 511 599 470 632 405 632 c 0
 349 632 301 609 271 568 c 0
 256 548 247 524 237 480 c 1
 149 480 l 1
 168 552 186 590 215 624 c 0
 264 679 334 709 417 709 c 0
 527 709 599 651 599 563 c 0
 599 474 562 415 477 367 c 1
 533 339 555 306 555 249 c 0
 555 184 527 112 481 63 c 0
 430 7 354 -23 264 -23 c 0
 139 -23 71 36 71 144 c 0
 71 162 72 176 76 206 c 1
 164 206 l 1
 162 193 l 1
 160 177 159 162 159 154 c 0
 159 93 206 54 277 54 c 0
 389 54 467 128 467 236 c 0
 467 293 418 327 335 327 c 0
 321 327 311 327 290 325 c 1
EndSplineSet
EndChar
StartChar: four
Encoding: 52 52 20
Width: 556
Flags: HW
HStem: 0 21G<326 414> 170 78<159 361 468 556>
DStem: 83 262 450 170 63 170 414 0 362 170 450 170 326 0 414 0 444 556 565 709 379 248 467 248 499 709 444 556 83 262 158 248
Fore
362 170 m 1
 63 170 l 1
 83 262 l 1
 499 709 l 1
 565 709 l 1
 467 248 l 1
 573 248 l 1
 556 170 l 1
 450 170 l 1
 414 0 l 1
 326 0 l 1
 362 170 l 1
379 248 m 1
 444 556 l 1
 158 248 l 1
 379 248 l 1
EndSplineSet
EndChar
StartChar: five
Encoding: 53 53 21
Width: 556
Flags: HW
HStem: -23 77<270 294> 389.998 77.0023<353 381> 622 87<311 611>
VStem: 479 87.0656<269 295>
DStem: 259 709 311 622 124 323 241 424
Fore
629 709 m 1
 611 622 l 1
 311 622 l 1
 241 424 l 1
 290 454 333 467 381 467 c 0
 494 467 567 399 567 295 c 0
 567 224 542 149 498 93 c 0
 439 15 364 -23 271 -23 c 0
 209 -23 157 -6 119 26 c 0
 84 55 70 93 70 152 c 2
 70 162 l 1
 70 174 l 1
 158 174 l 1
 161 94 204 54 283 54 c 0
 396 54 479 145 479 269 c 0
 479 346 433 390 353 390 c 0
 295 390 265 377 204 323 c 1
 124 323 l 1
 259 709 l 1
 629 709 l 1
EndSplineSet
EndChar
StartChar: six
Encoding: 54 54 22
Width: 556
Flags: HW
HStem: -23 77<285 301> 364.043 77.8545<364 388> 524 21G<522 610> 632 77<413 437>
VStem: 93 88<166 185> 478 88<255 272> 522 88<525 531>
Fore
610 524 m 1
 522 524 l 1
 523 526 523 528 523 529 c 128
 523 530 523 530 518 559 c 0
 512 589 504 601 481 616 c 0
 464 627 444 632 421 632 c 0
 320 632 238 527 209 358 c 1
 266 415 322 442 388 442 c 0
 495 442 566 374 566 271 c 0
 566 210 540 139 499 86 c 0
 444 14 371 -23 286 -23 c 0
 168 -23 93 51 93 167 c 0
 93 292 140 469 198 560 c 0
 261 659 341 709 435 709 c 0
 542 709 611 647 611 551 c 0
 611 545 611 535 610 524 c 1
364 365 m 0
 262 365 181 280 181 174 c 0
 181 103 230 54 299 54 c 0
 398 54 478 144 478 256 c 0
 478 321 432 365 364 365 c 0
EndSplineSet
EndChar
StartChar: seven
Encoding: 55 55 23
Width: 556
Flags: HW
HStem: 0 21G<137 235> 622 87<196 559>
Fore
671 709 m 1
 654 628 l 1
 483 460 302 189 235 0 c 1
 137 0 l 1
 227 211 335 369 560 622 c 1
 177 622 l 1
 196 709 l 1
 671 709 l 1
EndSplineSet
EndChar
StartChar: eight
Encoding: 56 56 24
Width: 556
Flags: HW
HStem: -23 77<280 298> 334 74<344 364> 632 77<406 426>
VStem: 74 88<146 162> 169 88<479 493> 472 88<225 241> 516 87.1517<544 553>
Fore
233 373 m 1
 221 383 l 2
 179 417 169 436 169 480 c 0
 169 535 192 590 234 632 c 0
 285 685 344 709 421 709 c 0
 485 709 533 692 566 657 c 0
 590 631 604 596 604 561 c 0
 604 518 587 470 560 436 c 0
 544 416 534 408 493 383 c 0
 490 381 485 378 477 373 c 1
 533 341 560 297 560 239 c 0
 560 182 535 120 492 72 c 0
 436 9 365 -23 281 -23 c 0
 155 -23 74 43 74 145 c 128
 74 247 128 325 233 373 c 1
407 632 m 0
 320 632 257 573 257 491 c 0
 257 439 297 408 364 408 c 0
 416 408 455 424 483 458 c 0
 503 482 516 516 516 545 c 0
 516 599 475 632 407 632 c 0
344 334 m 0
 243 334 162 257 162 160 c 0
 162 97 213 54 287 54 c 0
 392 54 472 129 472 226 c 0
 472 292 422 334 344 334 c 0
EndSplineSet
EndChar
StartChar: nine
Encoding: 57 57 25
Width: 556
Flags: HW
HStem: -23 77<257 275> 244.903 76.143<303 327> 632 77<387 406>
VStem: 84 87<153 161> 126 88<418 438> 511 88<505 527>
Fore
84 162 m 1
 171 162 l 1
 171 93 206 54 270 54 c 0
 371 54 441 144 481 324 c 1
 451 299 438 288 425 279 c 0
 393 257 346 244 303 244 c 0
 195 244 126 311 126 417 c 0
 126 476 148 540 190 600 c 0
 240 671 314 709 404 709 c 0
 466 709 517 690 551 654 c 0
 581 621 599 572 599 525 c 0
 599 464 582 359 557 266 c 0
 529 161 493 97 428 43 c 0
 376 -1 319 -23 258 -23 c 0
 152 -23 83 39 83 135 c 0
 83 141 83 151 84 162 c 1
392 632 m 0
 295 632 214 543 214 436 c 0
 214 364 256 321 327 321 c 0
 428 321 511 408 511 514 c 0
 511 581 460 632 392 632 c 0
EndSplineSet
EndChar
StartChar: colon
Encoding: 58 58 26
Width: 278
Flags: W
HStem: 0 103<132 214> 421 103<222 304>
DStem: 132 103 236 103 110 0 214 0 222 524 326 524 200 421 304 421
Fore
236 103 m 1
 214 0 l 1
 110 0 l 1
 132 103 l 1
 236 103 l 1
326 524 m 1
 304 421 l 1
 200 421 l 1
 222 524 l 1
 326 524 l 1
EndSplineSet
EndChar
StartChar: semicolon
Encoding: 59 59 27
Width: 278
Flags: W
HStem: 0 103<132 168> 421 103<221 303>
DStem: 132 103 237 103 110 0 211 -16 221 524 325 524 199 421 303 421
Fore
325 524 m 1
 303 421 l 1
 199 421 l 1
 221 524 l 1
 325 524 l 1
132 103 m 1
 237 103 l 1
 211 -16 l 1
 194 -101 144 -150 78 -147 c 1
 86 -109 l 1
 134 -109 155 -82 169 0 c 1
 110 0 l 1
 132 103 l 1
EndSplineSet
EndChar
StartChar: less
Encoding: 60 60 28
Width: 584
Flags: W
DStem: 87 198 196 231 532 -9 549 68 635 474 618 395 102 267 196 231
Fore
87 198 m 1
 102 267 l 1
 635 474 l 1
 618 395 l 1
 196 231 l 1
 549 68 l 1
 532 -9 l 1
 87 198 l 1
EndSplineSet
EndChar
StartChar: equal
Encoding: 61 61 29
Width: 584
Flags: W
HStem: 111 72<89 558> 283 72<125 594>
Fore
609 355 m 1
 594 283 l 1
 111 283 l 1
 125 355 l 1
 609 355 l 1
572 183 m 1
 558 111 l 1
 74 111 l 1
 89 183 l 1
 572 183 l 1
EndSplineSet
EndChar
StartChar: greater
Encoding: 62 62 30
Width: 584
Flags: W
DStem: 134 397 151 474 487 234 596 267 487 234 581 198 65 70 48 -9
Fore
596 267 m 1
 581 198 l 1
 48 -9 l 1
 65 70 l 1
 487 234 l 1
 134 397 l 1
 151 474 l 1
 596 267 l 1
EndSplineSet
EndChar
StartChar: question
Encoding: 63 63 31
Width: 556
Flags: W
HStem: 0 103<261 329> 664 76.1606<424 440>
VStem: 534 96<576 591>
DStem: 261 103 351 103 239 0 329 0 293 254 381 246 281 199 371 199
Fore
371 199 m 1
 281 199 l 1
 293 254 l 1
 307 315 322 333 429 417 c 0
 506 479 534 521 534 578 c 0
 534 629 490 664 427 664 c 0
 339 664 291 616 269 507 c 1
 184 507 l 1
 215 661 305 741 449 741 c 0
 501 741 543 730 572 707 c 0
 608 679 630 635 630 590 c 0
 630 513 588 448 485 370 c 0
 411 315 395 296 381 246 c 1
 371 199 l 1
351 103 m 1
 329 0 l 1
 239 0 l 1
 261 103 l 1
 351 103 l 1
EndSplineSet
EndChar
StartChar: at
Encoding: 64 64 32
Width: 1015
Flags: W
HStem: -142 77<445 480> 57.0022 69.9978<696 721> 62.0024 61.9976<445 478> 455 69<607 628> 664 77<656 688>
VStem: 80 88<178 210> 310 92<195 221> 953 83<413 436>
DStem: 771 501 853 501 735 435 704 221
Fore
771 501 m 1
 853 501 l 1
 704 221 l 2
 687 189 680 172 680 163 c 0
 680 144 699 127 721 127 c 0
 830 127 953 280 953 414 c 0
 953 558 829 664 660 664 c 0
 413 664 168 431 168 196 c 0
 168 40 292 -65 475 -65 c 0
 536 -65 591 -56 679 -33 c 1
 692 -100 l 1
 618 -127 528 -142 447 -142 c 0
 332 -142 224 -96 153 -17 c 0
 104 38 80 104 80 182 c 0
 80 313 144 454 252 563 c 0
 363 674 523 741 681 741 c 0
 886 741 1036 611 1036 434 c 0
 1036 348 1006 253 959 193 c 0
 898 114 788 57 696 57 c 0
 665 57 638 63 623 73 c 0
 609 82 597 104 597 120 c 2
 597 125 l 1
 597 134 l 1
 590 129 584 124 582 122 c 0
 529 78 492 62 445 62 c 0
 364 62 310 117 310 201 c 0
 310 353 477 524 626 524 c 0
 685 524 723 494 735 435 c 1
 771 501 l 1
614 455 m 0
 566 455 516 427 473 376 c 0
 430 326 402 260 402 210 c 128
 402 160 434 124 478 124 c 128
 522 124 569 155 608 211 c 0
 651 271 682 346 682 390 c 0
 682 432 658 455 614 455 c 0
EndSplineSet
EndChar
StartChar: A
Encoding: 65 65 33
Width: 667
Flags: W
HStem: 0 21G<17 116 551 653> 219 78<284 513> 709 20G<432 552>
DStem: 432 729 474 630 17 0 283 297 432 729 239 219 17 0 116 0
Fore
524 219 m 1
 239 219 l 1
 116 0 l 1
 17 0 l 1
 432 729 l 1
 552 729 l 1
 653 0 l 1
 551 0 l 1
 524 219 l 1
514 297 m 1
 474 630 l 1
 283 297 l 1
 514 297 l 1
EndSplineSet
MinimumDistance: x9,-1 
KernsSLIF: 44 -4 0 0 45 -8 0 0 46 -2 0 0 67 -41 0 0 71 -41 0 0 79 -37 0 0 81 -38 0 0 84 -103 0 0 85 -42 0 0 86 -81 0 0 87 -57 0 0 89 -104 0 0 97 -16 0 0 98 -5 0 0 99 -16 0 0 100 -14 0 0 101 -22 0 0 103 -17 0 0 111 -19 0 0 113 -15 0 0 116 -22 0 0 117 -18 0 0 118 -40 0 0 119 -29 0 0 121 -44 0 0 171 -51 0 0 199 -41 0 0 214 -37 0 0 217 -42 0 0 218 -42 0 0 219 -42 0 0 220 -42 0 0 231 -16 0 0 8217 -68 0 0 8221 -60 0 0 8249 -47 0 0
EndChar
StartChar: B
Encoding: 66 66 34
Width: 667
Flags: W
HStem: 0 82<191 431> 333 82<262 469> 647 82<311 511>
VStem: 576 96<240 258> 615 95.0671<561 584>
DStem: 234 729 311 647 79 0 261 415 234 729 244 333 79 0 190 82
Fore
79 0 m 1
 234 729 l 1
 530 729 l 2
 599 729 641 714 675 678 c 0
 700 651 711 622 711 584 c 0
 711 495 662 423 575 384 c 1
 645 354 672 319 672 258 c 0
 672 193 650 134 607 87 c 0
 554 28 491 0 409 0 c 2
 79 0 l 1
261 415 m 1
 441 415 l 2
 507 415 547 429 577 461 c 0
 601 487 615 524 615 561 c 0
 615 620 576 647 491 647 c 2
 311 647 l 1
 261 415 l 1
190 82 m 1
 417 82 l 2
 473 82 511 99 542 139 c 0
 564 169 576 204 576 242 c 0
 576 301 539 333 470 333 c 2
 244 333 l 1
 190 82 l 1
EndSplineSet
KernsSLIF: 65 -28 0 0 79 -14 0 0 86 -49 0 0 87 -27 0 0 89 -56 0 0 193 -28 0 0 194 -28 0 0 195 -28 0 0 196 -28 0 0 197 -28 0 0 198 -29 0 0 210 -14 0 0 211 -14 0 0 212 -14 0 0 214 -14 0 0 216 -2 0 0 338 -11 0 0
EndChar
StartChar: C
Encoding: 67 67 35
Width: 722
Flags: W
HStem: -23 81<366 384> 660 81<512 534>
VStem: 112 96<241 268>
Fore
770 503 m 1
 674 503 l 1
 666 611 616 660 515 660 c 0
 423 660 350 617 289 527 c 0
 238 451 208 351 208 260 c 0
 208 139 277 58 381 58 c 0
 460 58 536 95 578 155 c 0
 596 179 612 209 637 266 c 1
 735 266 l 1
 701 185 669 130 630 87 c 0
 565 16 473 -23 367 -23 c 0
 278 -23 215 4 169 62 c 0
 132 109 112 172 112 242 c 0
 112 367 161 505 240 600 c 0
 318 694 415 741 532 741 c 0
 626 741 697 704 738 634 c 0
 757 600 767 562 770 503 c 1
EndSplineSet
MinimumDistance: x4,-1 
KernsSLIF: 65 -43 0 0 72 -22 0 0 75 -20 0 0 79 -18 0 0 193 -43 0 0 196 -43 0 0 197 -43 0 0 198 -44 0 0 211 -18 0 0 214 -18 0 0
EndChar
StartChar: D
Encoding: 68 68 36
Width: 722
Flags: W
HStem: 0 82<201 393> 647 82<321 505>
VStem: 663 96<464 496>
DStem: 244 729 321 647 89 0 200 82
Fore
89 0 m 1
 244 729 l 1
 526 729 l 2
 591 729 644 711 682 677 c 0
 729 635 759 561 759 488 c 0
 759 363 711 217 643 134 c 0
 570 45 479 0 371 0 c 2
 89 0 l 1
200 82 m 1
 372 82 l 2
 463 82 539 125 591 205 c 0
 631 268 663 388 663 480 c 0
 663 584 599 647 492 647 c 2
 321 647 l 1
 200 82 l 1
EndSplineSet
KernsSLIF: 65 -50 0 0 74 -13 0 0 84 -56 0 0 86 -54 0 0 87 -31 0 0 88 -58 0 0 89 -74 0 0 192 -50 0 0 193 -50 0 0 194 -50 0 0 195 -50 0 0 196 -50 0 0 197 -50 0 0
EndChar
StartChar: E
Encoding: 69 69 37
Width: 667
Flags: W
HStem: 0 82<202 613> 332 82<273 650> 647 82<322 734>
DStem: 245 729 322 647 90 0 272 414 245 729 668 414 90 0 650 332 245 729 255 332 90 0 201 82 245 729 630 82 90 0 613 0
Fore
255 332 m 1
 201 82 l 1
 630 82 l 1
 613 0 l 1
 90 0 l 1
 245 729 l 1
 751 729 l 1
 734 647 l 1
 322 647 l 1
 272 414 l 1
 668 414 l 1
 650 332 l 1
 255 332 l 1
EndSplineSet
EndChar
StartChar: F
Encoding: 70 70 38
Width: 611
Flags: W
HStem: 0 21G<90 184> 332 82<273 602> 647 82<322 717>
DStem: 245 729 322 647 90 0 272 414 245 729 619 414 90 0 602 332 245 729 255 332 90 0 184 0
Fore
255 332 m 1
 184 0 l 1
 90 0 l 1
 245 729 l 1
 734 729 l 1
 717 647 l 1
 322 647 l 1
 272 414 l 1
 619 414 l 1
 602 332 l 1
 255 332 l 1
EndSplineSet
KernsSLIF: 44 -113 0 0 45 -20 0 0 46 -113 0 0 65 -78 0 0 74 -59 0 0 79 -30 0 0 97 -45 0 0 101 -33 0 0 105 -19 0 0 106 -19 0 0 111 -30 0 0 114 -44 0 0 117 -42 0 0 192 -78 0 0 193 -78 0 0 194 -78 0 0 195 -78 0 0 196 -78 0 0 197 -78 0 0 214 -30 0 0 225 -45 0 0 228 -45 0 0 229 -45 0 0 230 -41 0 0 233 -33 0 0 243 -30 0 0 246 -30 0 0 248 -30 0 0 339 -33 0 0
EndChar
StartChar: G
Encoding: 71 71 39
Width: 778
Flags: W
HStem: -22.497 80.8346<378 411> 303 82<489 692> 660 81<525 557>
VStem: 109 96<260 281> 718 91<508.063 526>
DStem: 489 385 793 385 471 303 710 -4
Fore
793 385 m 1
 710 -4 l 1
 651 -4 l 1
 647 86 l 1
 609 54 590 40 566 26 c 0
 512 -5 443 -23 378 -23 c 0
 310 -23 245 -2 199 36 c 0
 143 81 109 167 109 261 c 0
 109 391 167 527 263 623 c 0
 341 701 439 741 555 741 c 0
 712 741 809 658 809 525 c 2
 809 519 l 1
 809 515 l 1
 809 508 l 1
 718 508 l 1
 717 554 707 581 681 607 c 0
 648 642 598 660 537 660 c 0
 440 660 354 617 293 538 c 0
 240 468 205 365 205 277 c 0
 205 220 219 167 242 132 c 0
 273 86 337 58 411 58 c 0
 480 58 538 79 592 123 c 0
 643 165 672 211 687 277 c 2
 693 303 l 1
 471 303 l 1
 489 385 l 1
 793 385 l 1
EndSplineSet
KernsSLIF: 65 -14 0 0 84 -53 0 0 86 -53 0 0 87 -31 0 0 89 -72 0 0 192 -14 0 0 193 -14 0 0 194 -14 0 0 195 -14 0 0 196 -14 0 0 197 -14 0 0 198 -11 0 0
EndChar
StartChar: H
Encoding: 72 72 40
Width: 722
Flags: W
HStem: 0 21G<83 177 550 644> 332 82<266 620> 709 20G<238 332 705 799>
DStem: 238 729 332 729 83 0 265 414 238 729 799 729 83 0 644 0 238 729 248 332 83 0 177 0 621 332 799 729 550 0 644 0 705 729 799 729 638 414 644 0
Fore
621 332 m 1
 248 332 l 1
 177 0 l 1
 83 0 l 1
 238 729 l 1
 332 729 l 1
 265 414 l 1
 638 414 l 1
 705 729 l 1
 799 729 l 1
 644 0 l 1
 550 0 l 1
 621 332 l 1
EndSplineSet
EndChar
StartChar: I
Encoding: 73 73 41
Width: 278
Flags: W
HStem: 0 21G<100 194> 709 20G<255 349>
DStem: 255 729 349 729 100 0 194 0
Fore
349 729 m 1
 194 0 l 1
 100 0 l 1
 255 729 l 1
 349 729 l 1
EndSplineSet
EndChar
StartChar: J
Encoding: 74 74 42
Width: 500
Flags: W
HStem: -22.8565 80.8565<223 239> 709 20G<487 581>
VStem: 47 96<122 137>
DStem: 67 234 161 234 53 170 147 168 487 729 581 729 378 216 465 182
Fore
487 729 m 1
 581 729 l 1
 465 182 l 2
 437 51 345 -23 213 -23 c 0
 164 -23 130 -13 102 9 c 0
 68 37 47 79 47 122 c 0
 47 136 49 153 53 170 c 1
 67 234 l 1
 161 234 l 1
 147 168 l 1
 144 156 143 145 143 134 c 0
 143 89 179 58 233 58 c 0
 270 58 307 75 331 102 c 0
 353 127 366 160 378 216 c 2
 487 729 l 1
EndSplineSet
KernsSLIF: 65 -39 0 0 196 -39 0 0 197 -39 0 0 198 -39 0 0
EndChar
StartChar: K
Encoding: 75 75 43
Width: 667
Flags: W
HStem: 0 21G<79 173 548 658> 709 20G<234 328 693 813>
DStem: 234 729 328 729 79 0 249 356 234 729 226 249 79 0 173 0 693 729 813 729 249 356 452 431 693 729 380 376 249 356 226 249
Fore
226 249 m 1
 173 0 l 1
 79 0 l 1
 234 729 l 1
 328 729 l 1
 249 356 l 1
 693 729 l 1
 813 729 l 1
 452 431 l 1
 658 0 l 1
 548 0 l 1
 380 376 l 1
 226 249 l 1
EndSplineSet
KernsSLIF: 45 -53 0 0 67 -56 0 0 71 -57 0 0 79 -53 0 0 83 -48 0 0 84 14 0 0 97 -23 0 0 101 -46 0 0 111 -42 0 0 117 -32 0 0 121 -76 0 0 211 -53 0 0 214 -53 0 0 228 -23 0 0 229 -23 0 0 230 -20 0 0 243 -42 0 0 246 -42 0 0 252 -32 0 0 338 -49 0 0
EndChar
StartChar: L
Encoding: 76 76 44
Width: 556
Flags: W
HStem: 0 82<192 534> 709 20G<235 329>
DStem: 235 729 329 729 80 0 191 82 235 729 551 82 80 0 534 0
Fore
329 729 m 1
 191 82 l 1
 551 82 l 1
 534 0 l 1
 80 0 l 1
 235 729 l 1
 329 729 l 1
EndSplineSet
MinimumDistance: x2,-1 
KernsSLIF: 45 -140 0 0 65 8 0 0 67 -52 0 0 71 -53 0 0 79 -51 0 0 83 -28 0 0 84 -112 0 0 85 -46 0 0 86 -115 0 0 87 -77 0 0 89 -128 0 0 117 -17 0 0 121 -68 0 0 193 8 0 0 196 8 0 0 197 8 0 0 198 11 0 0 199 -51 0 0 210 -51 0 0 211 -51 0 0 212 -51 0 0 213 -51 0 0 214 -51 0 0 220 -46 0 0 252 -17 0 0 8217 -153 0 0 8221 -145 0 0
EndChar
StartChar: M
Encoding: 77 77 45
Width: 833
Flags: W
HStem: 0 21G<75 164 370 467 672 761> 709 20G<230 359 785 916>
DStem: 230 729 293 605 75 0 164 0 293 605 359 729 370 0 439 102 785 729 801 605 439 102 467 0 801 605 916 729 672 0 761 0
Fore
467 0 m 1
 370 0 l 1
 293 605 l 1
 164 0 l 1
 75 0 l 1
 230 729 l 1
 359 729 l 1
 439 102 l 1
 785 729 l 1
 916 729 l 1
 761 0 l 1
 672 0 l 1
 801 605 l 1
 467 0 l 1
EndSplineSet
EndChar
StartChar: N
Encoding: 78 78 46
Width: 722
Flags: W
HStem: 0 21G<76 165 540 646> 709 20G<231 335 712 801>
DStem: 231 729 291 591 76 0 165 0 291 591 335 729 540 0 585 131 712 729 801 729 585 131 646 0
Fore
801 729 m 1
 646 0 l 1
 540 0 l 1
 291 591 l 1
 165 0 l 1
 76 0 l 1
 231 729 l 1
 335 729 l 1
 585 131 l 1
 712 729 l 1
 801 729 l 1
EndSplineSet
KernsSLIF: 44 -15 0 0 46 -15 0 0 65 -19 0 0 67 -15 0 0 71 -14 0 0 79 -11 0 0 97 -17 0 0 101 -11 0 0 111 -8 0 0 117 -8 0 0 193 -19 0 0 196 -19 0 0 197 -19 0 0 198 -16 0 0 199 -14 0 0 211 -11 0 0 214 -11 0 0 225 -17 0 0 228 -17 0 0 229 -17 0 0 230 -13 0 0 233 -11 0 0 243 -8 0 0 246 -8 0 0 248 -4 0 0 252 -9 0 0
EndChar
StartChar: O
Encoding: 79 79 47
Width: 778
Flags: W
HStem: -23 81<390 408> 660 81<520 539>
VStem: 104 96<249 281> 732 96<441 466>
Fore
537 741 m 0
 628 741 707 713 756 664 c 0
 800 619 828 543 828 464 c 0
 828 306 752 144 635 54 c 0
 570 4 485 -23 391 -23 c 0
 306 -23 225 6 177 54 c 0
 131 100 104 177 104 263 c 0
 104 390 157 522 246 614 c 0
 327 699 424 741 537 741 c 0
525 660 m 0
 431 660 342 613 284 533 c 0
 231 460 200 363 200 271 c 0
 200 213 214 164 241 130 c 0
 276 86 339 58 404 58 c 0
 501 58 589 104 647 185 c 0
 700 257 732 355 732 446 c 0
 732 505 718 553 691 588 c 0
 657 632 593 660 525 660 c 0
EndSplineSet
KernsSLIF: 65 -43 0 0 84 -54 0 0 86 -48 0 0 87 -25 0 0 88 -52 0 0 89 -71 0 0 193 -43 0 0 196 -43 0 0 197 -43 0 0 198 -47 0 0
EndChar
StartChar: P
Encoding: 80 80 48
Width: 667
Flags: W
HStem: 0 21G<91 185> 309 82<269 481> 647 82<323 539>
VStem: 637 95.3369<549 560>
DStem: 246 729 323 647 91 0 268 391 246 729 251 309 91 0 185 0
Fore
251 309 m 1
 185 0 l 1
 91 0 l 1
 246 729 l 1
 548 729 l 2
 670 729 733 674 733 568 c 0
 733 487 697 411 634 361 c 0
 589 325 542 309 479 309 c 2
 251 309 l 1
268 391 m 1
 462 391 l 2
 526 391 569 410 602 452 c 0
 625 482 637 515 637 550 c 0
 637 613 595 647 517 647 c 2
 323 647 l 1
 268 391 l 1
EndSplineSet
KernsSLIF: 44 -138 0 0 45 -45 0 0 46 -138 0 0 65 -86 0 0 74 -85 0 0 97 -39 0 0 101 -38 0 0 111 -34 0 0 193 -86 0 0 196 -86 0 0 197 -86 0 0 198 -93 0 0 225 -39 0 0 228 -39 0 0 229 -39 0 0 230 -35 0 0 233 -38 0 0 243 -34 0 0 246 -34 0 0 248 -35 0 0 339 -38 0 0
EndChar
StartChar: Q
Encoding: 81 81 49
Width: 778
Flags: W
HStem: -23 81<389 424> 660 81<520 539>
VStem: 104 96<261 293> 732 96<437 469>
DStem: 466 149 524 205 528 87 598 132 586 28 655 76 673 -59 733 -1
Fore
733 -1 m 1
 673 -59 l 1
 586 28 l 1
 513 -11 467 -23 390 -23 c 0
 210 -23 104 84 104 264 c 0
 104 417 182 575 301 664 c 0
 370 715 448 741 537 741 c 128
 626 741 707 712 755 664 c 0
 801 617 828 539 828 456 c 0
 828 312 765 175 655 76 c 1
 733 -1 l 1
524 205 m 1
 598 132 l 1
 685 216 732 327 732 446 c 0
 732 505 718 553 691 588 c 0
 656 633 593 660 525 660 c 0
 431 660 342 613 285 533 c 0
 232 461 200 363 200 272 c 0
 200 138 278 58 409 58 c 0
 450 58 479 65 528 87 c 1
 466 149 l 1
 524 205 l 1
EndSplineSet
EndChar
StartChar: R
Encoding: 82 82 50
Width: 722
Flags: W
HStem: 0 21G<93 187 566 679> 314 82<272 509> 647 82<325 585>
VStem: 562.216 101.604<47 76> 593.995 96.005<239 264> 674 95.263<557 560>
DStem: 248 729 325 647 93 0 271 396 248 729 254 314 93 0 187 0
Fore
254 314 m 1
 187 0 l 1
 93 0 l 1
 248 729 l 1
 584 729 l 2
 712 729 770 681 770 575 c 0
 770 513 743 446 703 409 c 0
 685 393 669 382 630 360 c 1
 677 329 690 308 690 264 c 0
 690 246 682 194 669 126 c 0
 665 105 663 88 663 76 c 0
 663 54 671 35 684 23 c 1
 679 0 l 1
 566 0 l 1
 563 21 562 32 562 47 c 0
 562 79 562 79 586 179 c 0
 591 201 594 222 594 239 c 0
 594 288 558 314 493 314 c 2
 254 314 l 1
271 396 m 1
 502 396 l 2
 566 396 608 413 637 449 c 0
 659 477 674 521 674 558 c 0
 674 582 666 605 653 619 c 0
 634 640 608 647 555 647 c 2
 325 647 l 1
 271 396 l 1
EndSplineSet
KernsSLIF: 45 -4 0 0 67 -21 0 0 71 -21 0 0 79 -17 0 0 84 -33 0 0 85 -21 0 0 86 -49 0 0 87 -27 0 0 89 -54 0 0 97 -21 0 0 101 -16 0 0 111 -13 0 0 117 -13 0 0 121 -16 0 0 199 -21 0 0 211 -17 0 0 214 -17 0 0 220 -21 0 0 225 -21 0 0 228 -21 0 0 229 -21 0 0 230 -17 0 0 233 -16 0 0 243 -13 0 0 246 -13 0 0 250 -14 0 0 252 -14 0 0 338 -14 0 0 339 -16 0 0
EndChar
StartChar: S
Encoding: 83 83 51
Width: 667
Flags: W
HStem: -23 81<318 361> 660 81<457 490>
VStem: 89.0062 91.9938<171 191> 178.621 96.1936<492 518> 572.995 96.0048<209 237> 621.995 92.0051<551 571>
Fore
706 515 m 1
 618 515 l 1
 621 535 622 542 622 551 c 0
 622 580 609 612 590 629 c 0
 568 649 526 660 470 660 c 0
 404 660 355 644 318 611 c 0
 289 584 274 553 274 518 c 0
 274 474 298 454 375 432 c 2
 547 383 l 2
 594 370 623 350 645 315 c 0
 660 291 669 263 669 237 c 0
 669 181 633 108 582 61 c 0
 523 6 435 -23 330 -23 c 0
 179 -23 89 49 89 169 c 0
 89 190 91 206 98 232 c 1
 185 232 l 1
 182 213 181 204 181 191 c 0
 181 100 233 58 346 58 c 0
 426 58 485 77 526 114 c 0
 554 140 573 178 573 209 c 0
 573 257 540 286 460 309 c 2
 289 357 l 2
 222 376 178 429 178 492 c 0
 178 543 209 614 250 656 c 0
 304 712 385 741 488 741 c 0
 566 741 619 725 660 689 c 0
 693 660 714 614 714 571 c 0
 714 556 712 543 706 515 c 1
EndSplineSet
KernsSLIF: 65 -31 0 0 84 -38 0 0 86 -52 0 0 87 -31 0 0 89 -58 0 0 116 -11 0 0 193 -31 0 0 196 -31 0 0 197 -31 0 0 198 -31 0 0
EndChar
StartChar: T
Encoding: 84 84 52
Width: 611
Flags: W
HStem: 0 21G<261 355> 647 82<175 398 493 731>
DStem: 175 729 493 647 158 647 355 0 399 647 493 647 261 0 355 0
Fore
493 647 m 1
 355 0 l 1
 261 0 l 1
 399 647 l 1
 158 647 l 1
 175 729 l 1
 748 729 l 1
 731 647 l 1
 493 647 l 1
EndSplineSet
MinimumDistance: x0,-1 
KernsSLIF: 44 -105 0 0 45 -82 0 0 46 -105 0 0 58 -152 0 0 59 -140 0 0 65 -104 0 0 67 -53 0 0 71 -55 0 0 74 -108 0 0 79 -50 0 0 83 -32 0 0 86 2 0 0 87 7 0 0 89 10 0 0 97 -107 0 0 99 -96 0 0 101 -102 0 0 103 -94 0 0 105 -12 0 0 106 -12 0 0 111 -99 0 0 114 -98 0 0 115 -98 0 0 117 -98 0 0 118 -106 0 0 119 -103 0 0 121 -110 0 0 171 -126 0 0 192 -104 0 0 193 -104 0 0 194 -104 0 0 195 -104 0 0 196 -104 0 0 197 -104 0 0 198 -106 0 0 210 -50 0 0 211 -50 0 0 212 -50 0 0 213 -50 0 0 214 -50 0 0 216 -42 0 0 230 -104 0 0 248 -94 0 0 338 -44 0 0 8249 -123 0 0
EndChar
StartChar: U
Encoding: 85 85 53
Width: 722
Flags: W
HStem: -23 81<362 383> 709 20G<240 334 706 800>
VStem: 124.924 95.1499<155 173>
DStem: 240 729 334 729 138 251 225 217 706 729 800 729 597 217 691 217
Fore
706 729 m 1
 800 729 l 1
 691 217 l 2
 660 71 531 -23 363 -23 c 0
 286 -23 220 -2 179 35 c 0
 147 64 124 114 124 155 c 0
 124 170 131 218 138 251 c 2
 240 729 l 1
 334 729 l 1
 225 217 l 1
 222 201 220 187 220 173 c 0
 220 104 285 58 381 58 c 0
 494 58 576 118 597 217 c 2
 706 729 l 1
EndSplineSet
KernsSLIF: 44 -35 0 0 46 -32 0 0 65 -45 0 0 109 -17 0 0 110 -16 0 0 112 -8 0 0 114 -16 0 0 193 -45 0 0 194 -45 0 0 195 -45 0 0 196 -45 0 0 197 -45 0 0 198 -48 0 0
EndChar
StartChar: V
Encoding: 86 86 54
Width: 667
Flags: W
HStem: 0 21G<292 392> 709 20G<185 282 701 800>
DStem: 701 729 800 729 365 112 392 0
Fore
392 0 m 1
 292 0 l 1
 185 729 l 1
 282 729 l 1
 365 112 l 1
 701 729 l 1
 800 729 l 1
 392 0 l 1
EndSplineSet
KernsSLIF: 44 -94 0 0 45 -44 0 0 46 -94 0 0 58 -76 0 0 59 -75 0 0 65 -77 0 0 67 -50 0 0 71 -50 0 0 79 -46 0 0 83 -44 0 0 84 7 0 0 97 -71 0 0 101 -64 0 0 103 -57 0 0 105 -14 0 0 111 -61 0 0 114 -51 0 0 117 -52 0 0 121 -28 0 0 171 -88 0 0 192 -77 0 0 193 -77 0 0 194 -77 0 0 195 -77 0 0 196 -77 0 0 197 -77 0 0 198 -84 0 0 210 -46 0 0 211 -46 0 0 212 -46 0 0 213 -46 0 0 214 -46 0 0 216 -34 0 0 230 -66 0 0 248 -57 0 0 8249 -84 0 0
EndChar
StartChar: W
Encoding: 87 87 55
Width: 944
Flags: W
HStem: 0 21G<209 311 642 744> 709 20G<177 277 580 676 980 1084>
DStem: 580 729 601 592 292 137 311 0 601 592 676 729 642 0 717 137 980 729 1084 729 717 137 744 0
Fore
744 0 m 1
 642 0 l 1
 601 592 l 1
 311 0 l 1
 209 0 l 1
 177 729 l 1
 277 729 l 1
 292 137 l 1
 580 729 l 1
 676 729 l 1
 717 137 l 1
 980 729 l 1
 1084 729 l 1
 744 0 l 1
EndSplineSet
KernsSLIF: 44 -62 0 0 45 -19 0 0 46 -62 0 0 58 -62 0 0 59 -62 0 0 65 -56 0 0 67 -30 0 0 71 -30 0 0 79 -26 0 0 83 -31 0 0 84 11 0 0 97 -46 0 0 101 -39 0 0 103 -32 0 0 105 -10 0 0 111 -36 0 0 114 -36 0 0 117 -36 0 0 121 -15 0 0 171 -63 0 0 192 -56 0 0 193 -56 0 0 194 -56 0 0 195 -56 0 0 196 -56 0 0 197 -56 0 0 198 -62 0 0 210 -26 0 0 211 -26 0 0 212 -26 0 0 213 -26 0 0 214 -26 0 0 216 -14 0 0 230 -42 0 0 248 -32 0 0 8249 -60 0 0
EndChar
StartChar: X
Encoding: 88 88 56
Width: 667
Flags: W
HStem: 0 21G<22 137 535 650> 709 20G<194 307 680 794>
DStem: 361 374 401 304 22 0 137 0 680 729 794 729 432 444 471 374
Fore
471 374 m 1
 650 0 l 1
 535 0 l 1
 401 304 l 1
 137 0 l 1
 22 0 l 1
 361 374 l 1
 194 729 l 1
 307 729 l 1
 432 444 l 1
 680 729 l 1
 794 729 l 1
 471 374 l 1
EndSplineSet
KernsSLIF: 45 -57 0 0 67 -53 0 0 79 -50 0 0 81 -51 0 0 97 -27 0 0 101 -51 0 0 111 -46 0 0 117 -36 0 0 121 -67 0 0 214 -50 0 0
EndChar
StartChar: Y
Encoding: 89 89 57
Width: 667
Flags: W
HStem: 0 21G<293 387> 709 20G<168 280 705 816>
DStem: 354 286 448 286 293 0 387 0 705 729 816 729 416 372 448 286
Fore
448 286 m 1
 387 0 l 1
 293 0 l 1
 354 286 l 1
 168 729 l 1
 280 729 l 1
 416 372 l 1
 705 729 l 1
 816 729 l 1
 448 286 l 1
EndSplineSet
KernsSLIF: 44 -117 0 0 45 -89 0 0 46 -117 0 0 58 -97 0 0 59 -97 0 0 65 -102 0 0 67 -68 0 0 71 -69 0 0 79 -64 0 0 83 -49 0 0 84 15 0 0 97 -100 0 0 101 -97 0 0 103 -89 0 0 105 -6 0 0 111 -93 0 0 112 -63 0 0 117 -73 0 0 118 -48 0 0 171 -128 0 0 192 -102 0 0 193 -102 0 0 194 -102 0 0 195 -102 0 0 196 -102 0 0 197 -102 0 0 198 -108 0 0 210 -64 0 0 211 -64 0 0 212 -64 0 0 213 -64 0 0 214 -64 0 0 216 -55 0 0 230 -95 0 0 248 -89 0 0 8249 -124 0 0
EndChar
StartChar: Z
Encoding: 90 90 58
Width: 611
Flags: W
HStem: 0 82<164 584> 647 82<212 600>
DStem: 601 647 719 645 46 84 163 82
Fore
737 729 m 1
 719 645 l 1
 163 82 l 1
 601 82 l 1
 584 0 l 1
 28 0 l 1
 46 84 l 1
 601 647 l 1
 195 647 l 1
 212 729 l 1
 737 729 l 1
EndSplineSet
KernsSLIF: 118 -44 0 0 121 -44 0 0
EndChar
StartChar: bracketleft
Encoding: 91 91 59
Width: 278
Flags: W
HStem: -213 72<119 205> 657 72<288 390>
DStem: 219 729 405 729 19 -213 390 657 219 729 288 657 19 -213 118 -141 219 729 220 -141 19 -213 205 -213
Fore
405 729 m 1
 390 657 l 1
 288 657 l 1
 118 -141 l 1
 220 -141 l 1
 205 -213 l 1
 19 -213 l 1
 219 729 l 1
 405 729 l 1
EndSplineSet
EndChar
StartChar: backslash
Encoding: 92 92 60
Width: 278
Flags: W
HStem: 709 20G<147 202>
DStem: 147 729 202 729 225 -20 280 -20
Fore
147 729 m 1
 202 729 l 1
 280 -20 l 1
 225 -20 l 1
 147 729 l 1
EndSplineSet
EndChar
StartChar: bracketright
Encoding: 93 93 61
Width: 278
Flags: W
HStem: -213 72<-8 95> 657 72<177 264>
DStem: -8 -141 364 729 -23 -213 164 -213 177 729 364 729 162 657 164 -213 265 657 364 729 95 -141 164 -213
Fore
-23 -213 m 1
 -8 -141 l 1
 95 -141 l 1
 265 657 l 1
 162 657 l 1
 177 729 l 1
 364 729 l 1
 164 -213 l 1
 -23 -213 l 1
EndSplineSet
EndChar
StartChar: asciicircum
Encoding: 94 94 62
Width: 469
Flags: W
DStem: 349 709 369 628 115 329 187 329 369 628 422 709 427 329 496 329
Fore
349 709 m 1
 422 709 l 1
 496 329 l 1
 427 329 l 1
 369 628 l 1
 187 329 l 1
 115 329 l 1
 349 709 l 1
EndSplineSet
EndChar
StartChar: underscore
Encoding: 95 95 63
Width: 556
Flags: W
HStem: -176 50<-48 540>
Fore
551 -126 m 1
 540 -176 l 1
 -59 -176 l 1
 -48 -126 l 1
 551 -126 l 1
EndSplineSet
EndChar
StartChar: grave
Encoding: 96 96 64
Width: 333
Flags: W
HStem: 720 20G<179 285>
Fore
285 740 m 1
 357 592 l 1
 304 592 l 1
 179 740 l 1
 285 740 l 1
EndSplineSet
EndChar
StartChar: a
Encoding: 97 97 65
Width: 556
Flags: W
HStem: -22.5409 72.3163<209 242> 462 76.3338<369 385>
VStem: 65 88<104 121> 477.989 90.0112<398 426>
DStem: 451 258 562 389 431 164 498 88
Fore
552 51 m 1
 539 -14 l 1
 533 -15 527 -16 525 -17 c 0
 500 -23 497 -23 486 -23 c 0
 438 -23 410 2 410 43 c 2
 410 47 l 1
 410 54 l 1
 369 18 354 8 322 -3 c 0
 286 -16 244 -23 209 -23 c 0
 119 -23 65 25 65 105 c 0
 65 163 95 216 147 249 c 0
 196 280 238 290 372 302 c 0
 445 309 464 320 473 361 c 1
 476 379 l 1
 477 387 478 394 478 398 c 0
 478 435 432 462 372 462 c 0
 329 462 287 447 265 425 c 0
 251 411 244 397 235 369 c 1
 151 369 l 1
 170 480 255 539 394 539 c 0
 499 539 568 494 568 426 c 0
 568 416 568 416 562 389 c 1
 498 88 l 1
 497 85 497 82 497 78 c 0
 497 58 509 49 535 49 c 0
 539 49 543 49 552 51 c 1
431 164 m 2
 451 258 l 1
 407 243 399 242 305 229 c 0
 256 222 226 214 202 199 c 0
 172 181 153 148 153 115 c 0
 153 73 185 49 242 49 c 0
 330 49 418 102 431 164 c 2
EndSplineSet
KernsSLIF: 106 -10 0 0 118 -26 0 0 119 -16 0 0 121 -33 0 0 8217 -23 0 0
EndChar
StartChar: b
Encoding: 98 98 66
Width: 556
Flags: W
HStem: -23 77<292 310> 0 21G<54 129> 461.997 77.0033<383 411> 709 20G<209 293>
VStem: 500 88<323 345>
DStem: 209 729 293 729 54 0 235 454 209 729 146 78 54 0 129 0
Fore
209 729 m 1
 293 729 l 1
 235 454 l 1
 266 487 279 498 296 509 c 0
 326 527 371 539 411 539 c 0
 512 539 588 455 588 343 c 0
 588 240 544 126 477 55 c 0
 432 8 361 -23 294 -23 c 0
 250 -23 209 -8 183 18 c 0
 168 33 159 47 146 78 c 1
 129 0 l 1
 54 0 l 1
 209 729 l 1
383 462 m 0
 323 462 270 427 231 361 c 0
 203 313 185 245 185 183 c 0
 185 104 228 54 296 54 c 0
 361 54 413 87 454 155 c 0
 483 203 500 267 500 324 c 0
 500 410 456 462 383 462 c 0
EndSplineSet
KernsSLIF: 118 -21 0 0 119 -10 0 0 121 -28 0 0
EndChar
StartChar: c
Encoding: 99 99 67
Width: 500
Flags: W
HStem: -23 77<262 284> 462 77<364 383>
VStem: 76 88<169 185> 467.996 86.004<370 392>
Fore
551 348 m 1
 467 348 l 1
 468 357 468 364 468 370 c 0
 468 427 429 462 366 462 c 0
 305 462 255 432 218 373 c 0
 185 321 164 245 164 181 c 0
 164 103 208 54 277 54 c 0
 349 54 404 98 434 180 c 1
 518 180 l 1
 502 124 486 90 460 60 c 0
 414 6 345 -23 263 -23 c 0
 199 -23 154 -4 120 39 c 0
 92 74 76 123 76 170 c 0
 76 262 110 371 157 432 c 0
 210 501 291 539 381 539 c 0
 438 539 479 524 510 492 c 0
 536 465 554 425 554 392 c 0
 554 389 553 378 552 363 c 2
 551 348 l 1
EndSplineSet
KernsSLIF: 104 -7 0 0 107 -1 0 0
EndChar
StartChar: d
Encoding: 100 100 68
Width: 556
Flags: W
HStem: -22.9975 76.9975<244 278> 0 21G<414 495> 462 77<345 372> 709 20G<566 650>
VStem: 73 88<169 201>
DStem: 430 76 650 729 414 0 495 0 566 729 650 729 506 448 495 0
Fore
650 729 m 1
 495 0 l 1
 414 0 l 1
 430 76 l 1
 416 48 403 33 373 15 c 0
 333 -9 287 -23 244 -23 c 0
 140 -23 73 53 73 170 c 0
 73 381 197 539 363 539 c 0
 434 539 474 513 506 448 c 1
 566 729 l 1
 650 729 l 1
355 462 m 0
 291 462 243 430 205 361 c 0
 178 310 161 246 161 190 c 0
 161 104 204 54 278 54 c 0
 339 54 388 88 427 155 c 0
 457 207 473 268 473 327 c 0
 473 412 429 462 355 462 c 0
EndSplineSet
EndChar
StartChar: e
Encoding: 101 101 69
Width: 556
Flags: W
HStem: -23 77<281 298> 234 72<196 489> 462 77<372 391>
VStem: 84 88<169 190> 491.902 87.17<339 368>
Fore
563 234 m 1
 177 234 l 1
 173 219 172 209 172 188 c 0
 172 103 217 54 296 54 c 0
 363 54 416 90 452 159 c 1
 536 159 l 1
 505 51 402 -23 282 -23 c 0
 225 -23 181 -7 146 27 c 0
 107 64 84 119 84 173 c 0
 84 254 121 368 168 431 c 0
 218 498 302 539 389 539 c 0
 497 539 580 464 580 368 c 0
 580 341 575 299 566 251 c 2
 563 234 l 1
195 306 m 1
 489 306 l 1
 491 322 492 329 492 339 c 0
 492 414 447 462 376 462 c 0
 295 462 221 398 195 306 c 1
EndSplineSet
KernsSLIF: 116 -16 0 0 118 -26 0 0 119 -16 0 0 120 -35 0 0 121 -33 0 0 8217 -20 0 0
EndChar
StartChar: f
Encoding: 102 102 70
Width: 278
Flags: W
HStem: 0 21G<89 173> 457 67<130 185 285 356> 660 72<355 377>
DStem: 130 524 270 457 116 457 173 0 186 457 270 457 89 0 173 0 219 613 299 593 200 524 284 524
Fore
370 524 m 1
 356 457 l 1
 270 457 l 1
 173 0 l 1
 89 0 l 1
 186 457 l 1
 116 457 l 1
 130 524 l 1
 200 524 l 1
 219 613 l 2
 235 687 291 732 368 732 c 0
 384 732 395 731 413 727 c 1
 398 658 l 1
 384 660 378 660 371 660 c 0
 328 660 310 643 299 593 c 2
 284 524 l 1
 370 524 l 1
EndSplineSet
KernsSLIF: 97 -20 0 0 101 -21 0 0 102 12 0 0 105 -10 0 0 106 -11 0 0 108 -12 0 0 111 -18 0 0 115 -8 0 0 116 16 0 0 225 -20 0 0 228 -20 0 0 229 -20 0 0 230 -15 0 0 233 -21 0 0 243 -18 0 0 246 -18 0 0 248 -16 0 0 339 -20 0 0 8217 -8 0 0
EndChar
StartChar: g
Encoding: 103 103 71
Width: 556
Flags: W
HStem: -218 72<207 228> -16.8153 72.6922<247 271> 462 77<352 371> 504 20G<525 601>
VStem: 33 85<-75 -73> 74 88<166 186>
DStem: 525 524 601 524 508 446 508 85
Fore
525 524 m 1
 601 524 l 1
 508 85 l 2
 481 -42 454 -103 404 -151 c 0
 359 -194 288 -218 209 -218 c 0
 102 -218 32 -168 32 -91 c 0
 32 -87 32 -81 33 -73 c 1
 34 -60 l 1
 118 -60 l 1
 118 -68 l 1
 118 -74 l 2
 118 -119 158 -146 226 -146 c 0
 332 -146 386 -92 415 44 c 2
 419 63 l 1
 369 10 310 -17 247 -17 c 0
 145 -17 74 59 74 168 c 0
 74 260 112 373 165 439 c 0
 214 501 292 539 369 539 c 0
 403 539 435 528 461 509 c 0
 483 493 493 479 508 446 c 1
 525 524 l 1
363 462 m 0
 300 462 244 425 208 360 c 0
 179 308 162 244 162 184 c 0
 162 105 204 55 271 55 c 0
 331 55 390 93 423 154 c 0
 451 203 469 277 469 339 c 0
 469 414 427 462 363 462 c 0
EndSplineSet
KernsSLIF: 97 -17 0 0 101 -11 0 0 108 -8 0 0 114 -9 0 0 228 -17 0 0 229 -17 0 0 230 -13 0 0 233 -11 0 0 243 -8 0 0 246 -8 0 0
EndChar
StartChar: h
Encoding: 104 104 72
Width: 556
Flags: W
HStem: 0 21G<70 154 406 490> 466.996 72.0044<400 439> 709 20G<225 309>
VStem: 484.996 89.0044<382 413>
DStem: 225 729 309 729 70 0 252 459 225 729 215 289 70 0 154 0 479 343 570 376 406 0 490 0
Fore
225 729 m 1
 309 729 l 1
 252 459 l 1
 315 518 364 539 439 539 c 0
 523 539 574 492 574 413 c 0
 574 401 573 389 570 376 c 1
 490 0 l 1
 406 0 l 1
 479 343 l 1
 485 370 485 370 485 382 c 0
 485 433 451 467 400 467 c 0
 309 467 239 399 215 289 c 1
 154 0 l 1
 70 0 l 1
 225 729 l 1
EndSplineSet
KernsSLIF: 121 -31 0 0 8217 -19 0 0
EndChar
StartChar: i
Encoding: 105 105 73
Width: 222
Flags: W
HStem: 0 21G<66 150> 504 20G<177 261> 626 103<221 283>
DStem: 177 524 261 524 66 0 150 0 221 729 305 729 199 626 283 626
Fore
261 524 m 1
 150 0 l 1
 66 0 l 1
 177 524 l 1
 261 524 l 1
305 729 m 1
 283 626 l 1
 199 626 l 1
 221 729 l 1
 305 729 l 1
EndSplineSet
KernsSLIF: 84 -16 0 0 106 -10 0 0
EndChar
StartChar: j
Encoding: 106 106 74
Width: 222
Flags: W
HStem: -217.878 71.8777<-33 -17> 504 20G<180 264> 626 103<224 286>
DStem: 180 524 264 524 53 -76 130 -109 224 729 308 729 202 626 286 626
Fore
180 524 m 1
 264 524 l 1
 130 -109 l 1
 112 -191 69 -218 -46 -218 c 0
 -55 -218 -58 -217 -65 -215 c 1
 -50 -144 l 1
 -32 -146 -30 -146 -25 -146 c 0
 26 -146 41 -132 53 -76 c 2
 180 524 l 1
308 729 m 1
 286 626 l 1
 202 626 l 1
 224 729 l 1
 308 729 l 1
EndSplineSet
EndChar
StartChar: k
Encoding: 107 107 75
Width: 500
Flags: W
HStem: 0 21G<58 142 406 502> 504 20G<476 584> 709 20G<213 297>
DStem: 213 729 297 729 58 0 207 306 213 729 185 203 58 0 142 0 292 291 362 343 406 0 502 0 476 524 584 524 207 306 362 343
Fore
297 729 m 1
 207 306 l 1
 476 524 l 1
 584 524 l 1
 362 343 l 1
 502 0 l 1
 406 0 l 1
 292 291 l 1
 185 203 l 1
 142 0 l 1
 58 0 l 1
 213 729 l 1
 297 729 l 1
EndSplineSet
KernsSLIF: 44 -13 0 0 45 -49 0 0 46 -13 0 0 97 -14 0 0 101 -33 0 0 103 -26 0 0 111 -30 0 0 115 -14 0 0 117 -22 0 0 225 -14 0 0 228 -14 0 0 229 -14 0 0 230 -12 0 0 233 -33 0 0 243 -30 0 0 246 -30 0 0 252 -16 0 0
EndChar
StartChar: l
Encoding: 108 108 76
Width: 222
Flags: W
HStem: 0 21G<68 152> 709 20G<223 307>
DStem: 223 729 307 729 68 0 152 0
Fore
307 729 m 1
 152 0 l 1
 68 0 l 1
 223 729 l 1
 307 729 l 1
EndSplineSet
KernsSLIF: 118 -11 0 0 121 -15 0 0
EndChar
StartChar: m
Encoding: 109 109 77
Width: 833
Flags: W
HStem: 0 21G<71 155 377 461 683 767> 466.996 72.0039<376 423 688 725> 504 20G<182 258>
VStem: 763.996 88.0042<390 428>
DStem: 182 524 225 329 71 0 155 0 454 361 531 329 377 0 461 0 755 341 846 373 683 0 767 0
Fore
182 524 m 1
 258 524 l 1
 245 459 l 1
 309 519 355 539 423 539 c 0
 489 539 528 512 544 456 c 1
 603 513 660 539 725 539 c 0
 771 539 798 529 820 505 c 0
 840 482 852 454 852 428 c 0
 852 417 849 384 846 373 c 1
 767 0 l 1
 683 0 l 1
 755 341 l 1
 764 375 764 375 764 390 c 0
 764 438 735 467 688 467 c 0
 616 467 547 407 531 329 c 1
 461 0 l 1
 377 0 l 1
 454 361 l 1
 457 374 458 387 458 398 c 0
 458 439 425 467 376 467 c 0
 309 467 241 405 225 329 c 2
 155 0 l 1
 71 0 l 1
 182 524 l 1
EndSplineSet
KernsSLIF: 112 -3 0 0 118 -24 0 0 119 -14 0 0 121 -30 0 0
EndChar
StartChar: n
Encoding: 110 110 78
Width: 556
Flags: W
HStem: 0 21G<70 154 406 490> 466.995 72.0047<399 438> 504 20G<181 257>
VStem: 485.994 88.0059<386 414>
DStem: 181 524 215 289 70 0 154 0 480 349 570 376 406 0 490 0
Fore
181 524 m 1
 257 524 l 1
 244 459 l 1
 296 512 362 539 438 539 c 0
 521 539 574 490 574 414 c 0
 574 401 573 389 570 376 c 1
 490 0 l 1
 406 0 l 1
 480 349 l 1
 484 365 486 380 486 386 c 0
 486 432 449 467 399 467 c 0
 309 467 239 399 215 289 c 1
 154 0 l 1
 70 0 l 1
 181 524 l 1
EndSplineSet
KernsSLIF: 84 -103 0 0 112 -3 0 0 118 -24 0 0 119 -14 0 0 121 -31 0 0 8217 -19 0 0
EndChar
StartChar: o
Encoding: 111 111 79
Width: 556
Flags: W
HStem: -23 77<268 288> 462 77<368 386>
VStem: 80 88<164 186> 488 88<329 353>
Fore
384 539 m 0
 442 539 487 523 521 490 c 0
 556 456 576 405 576 352 c 0
 576 265 543 156 497 93 c 0
 441 16 365 -23 269 -23 c 0
 157 -23 80 53 80 164 c 0
 80 249 113 359 158 423 c 0
 209 497 291 539 384 539 c 0
371 462 m 0
 305 462 249 425 212 357 c 0
 185 307 168 241 168 184 c 0
 168 104 212 54 283 54 c 0
 352 54 406 90 444 159 c 0
 471 209 488 274 488 333 c 0
 488 414 445 462 371 462 c 0
EndSplineSet
KernsSLIF: 84 -106 0 0 116 -17 0 0 118 -27 0 0 119 -16 0 0 120 -35 0 0 121 -34 0 0 8217 -23 0 0
EndChar
StartChar: p
Encoding: 112 112 80
Width: 556
Flags: W
HStem: -213 21G<7 91> -23 77<285 311> 461.538 76.4731<379 412> 504 20G<164 245>
VStem: 498 88<315 345>
DStem: 164 524 245 524 7 -213 227 440 164 524 151 68 7 -213 91 -213
Fore
7 -213 m 1
 164 524 l 1
 245 524 l 1
 227 440 l 1
 240 467 252 480 284 500 c 0
 324 526 368 539 412 539 c 0
 519 539 586 464 586 344 c 0
 586 246 552 142 498 76 c 0
 447 13 372 -23 294 -23 c 0
 223 -23 182 3 151 68 c 1
 91 -213 l 1
 7 -213 l 1
379 462 m 0
 317 462 267 428 230 361 c 0
 200 309 183 244 183 184 c 0
 183 104 229 54 302 54 c 0
 367 54 417 87 454 155 c 0
 481 205 498 270 498 324 c 0
 498 410 454 462 379 462 c 0
EndSplineSet
KernsSLIF: 116 -10 0 0 121 -28 0 0
EndChar
StartChar: q
Encoding: 113 113 81
Width: 556
Flags: W
HStem: -213 21G<366 450> -22.4659 77.0681<248 276> 462 77<359 375> 504 20G<532 607>
VStem: 71 88<171 188>
DStem: 425 62 607 524 366 -213 450 -213 532 524 607 524 513 438 450 -213
Fore
450 -213 m 1
 366 -213 l 1
 425 62 l 1
 391 28 379 17 363 7 c 0
 334 -11 288 -23 248 -23 c 0
 147 -23 71 61 71 173 c 0
 71 276 115 390 182 461 c 0
 227 509 298 539 366 539 c 0
 439 539 490 503 513 438 c 1
 532 524 l 1
 607 524 l 1
 450 -213 l 1
364 462 m 0
 300 462 244 427 205 361 c 0
 178 316 159 244 159 186 c 0
 159 106 205 54 276 54 c 0
 336 54 388 89 428 155 c 0
 456 203 474 271 474 333 c 0
 474 412 431 462 364 462 c 0
EndSplineSet
KernsSLIF: 99 -2 0 0 117 -5 0 0
EndChar
StartChar: r
Encoding: 114 114 82
Width: 333
Flags: W
HStem: 0 21G<69 153> 451.139 87.8615<385.028 404 404.016 417.905> 504 20G<180 256>
DStem: 180 524 256 524 69 0 239 442 180 524 211 272 69 0 153 0
Fore
180 524 m 1
 256 524 l 1
 239 442 l 1
 301 513 346 539 404 539 c 0
 415 539 423 538 436 536 c 1
 418 451 l 1
 308 455 237 394 211 272 c 2
 153 0 l 1
 69 0 l 1
 180 524 l 1
EndSplineSet
MinimumDistance: x1,-1 
KernsSLIF: 44 -77 0 0 45 -54 0 0 46 -77 0 0 58 -31 0 0 59 -30 0 0 97 -16 0 0 99 -11 0 0 100 -8 0 0 101 -17 0 0 102 17 0 0 103 -8 0 0 104 -8 0 0 105 -6 0 0 106 -6 0 0 107 -2 0 0 108 -7 0 0 109 -9 0 0 110 -8 0 0 111 -14 0 0 113 -10 0 0 114 -8 0 0 115 -4 0 0 116 21 0 0 117 -7 0 0 118 18 0 0 119 21 0 0 120 9 0 0 121 15 0 0 224 -16 0 0 225 -16 0 0 226 -16 0 0 228 -16 0 0 229 -16 0 0 230 -11 0 0 231 -11 0 0 232 -17 0 0 233 -17 0 0 234 -17 0 0 242 -14 0 0 243 -14 0 0 244 -14 0 0 246 -14 0 0 248 -14 0 0 339 -16 0 0 8217 -6 0 0
EndChar
StartChar: s
Encoding: 115 115 83
Width: 500
Flags: W
HStem: -23 77<241 269> 462 77<333 358>
VStem: 61.498 93.0539<105 131> 123.892 87.6412<345 367> 404.81 87.2468<150 173> 430.377 89.1996<400 421>
Fore
514 378 m 1
 430 378 l 1
 431 386 431 393 431 400 c 0
 431 439 398 462 339 462 c 0
 295 462 265 452 241 429 c 0
 223 412 211 387 211 367 c 0
 211 341 240 321 296 307 c 2
 372 288 l 2
 460 266 493 234 493 173 c 0
 493 54 396 -23 247 -23 c 0
 131 -23 61 25 61 105 c 0
 61 121 62 133 67 156 c 1
 156 156 l 1
 155 146 154 137 154 131 c 0
 154 81 193 54 262 54 c 0
 305 54 348 67 373 88 c 0
 389 101 405 132 405 150 c 0
 405 159 399 174 392 183 c 0
 383 194 368 200 335 209 c 2
 261 228 l 2
 158 255 123 284 123 345 c 0
 123 392 147 444 183 479 c 0
 224 518 285 539 356 539 c 0
 453 539 520 491 520 421 c 0
 520 408 519 399 514 378 c 1
EndSplineSet
KernsSLIF: 116 -15 0 0 8217 -24 0 0
EndChar
StartChar: t
Encoding: 116 116 84
Width: 278
Flags: W
HStem: -22.0467 71.8808<186 219> 457 67<122 178 278 352> 457 211<263 277>
VStem: 97.8996 85.2698<56 76>
DStem: 122 524 263 457 108 457 185 90 179 457 263 457 100 87 185 90 224 668 308 668 193 524 277 524
Fore
366 524 m 1
 352 457 l 1
 263 457 l 1
 185 90 l 1
 184 84 183 79 183 76 c 0
 183 60 197 49 219 49 c 0
 231 49 236 50 267 57 c 1
 251 -16 l 1
 237 -20 206 -23 186 -23 c 0
 131 -23 97 7 97 56 c 0
 97 66 98 77 100 87 c 2
 179 457 l 1
 108 457 l 1
 122 524 l 1
 193 524 l 1
 224 668 l 1
 308 668 l 1
 277 524 l 1
 366 524 l 1
EndSplineSet
KernsSLIF: 58 -37 0 0 59 -36 0 0 83 -17 0 0 97 -10 0 0 101 -22 0 0 104 -14 0 0 111 -19 0 0 225 -10 0 0 228 -10 0 0 229 -10 0 0 230 -7 0 0 233 -22 0 0 243 -19 0 0 246 -19 0 0 8217 -7 0 0
EndChar
StartChar: u
Encoding: 117 117 85
Width: 556
Flags: W
HStem: -22.9987 71.9987<226 268> 0 21G<407 483> 504 20G<177 261 510 594>
DStem: 177 524 261 524 91 120 182 153 419 57 594 524 407 0 483 0 510 524 594 524 447 227 483 0
Fore
483 0 m 1
 407 0 l 1
 419 57 l 1
 361 1 304 -23 226 -23 c 0
 140 -23 88 18 88 86 c 0
 88 99 89 110 91 120 c 2
 177 524 l 1
 261 524 l 1
 182 153 l 2
 180 143 179 134 179 126 c 0
 179 79 214 49 268 49 c 0
 353 49 424 119 447 227 c 2
 510 524 l 1
 594 524 l 1
 483 0 l 1
EndSplineSet
KernsSLIF: 8217 -14 0 0
EndChar
StartChar: v
Encoding: 118 118 86
Width: 500
Flags: W
HStem: 0 21G<196 287> 504 20G<122 214 507 598>
DStem: 507 524 598 524 263 102 287 0
Fore
287 0 m 1
 196 0 l 1
 122 524 l 1
 214 524 l 1
 263 102 l 1
 507 524 l 1
 598 524 l 1
 287 0 l 1
EndSplineSet
KernsSLIF: 44 -76 0 0 45 -19 0 0 46 -76 0 0 58 -32 0 0 59 -31 0 0 97 -30 0 0 99 -22 0 0 101 -29 0 0 103 -20 0 0 108 -8 0 0 111 -25 0 0 115 -17 0 0 224 -30 0 0 225 -30 0 0 226 -30 0 0 227 -30 0 0 228 -30 0 0 229 -30 0 0 230 -25 0 0 232 -29 0 0 233 -29 0 0 234 -29 0 0 242 -25 0 0 243 -25 0 0 246 -25 0 0 248 -25 0 0
EndChar
StartChar: w
Encoding: 119 119 87
Width: 722
Flags: W
HStem: 0 21G<158 254 461 556> 504 20G<118 209 417 522 729 820>
DStem: 417 524 449 418 228 116 254 0 729 524 820 524 533 116 556 0
Fore
556 0 m 1
 461 0 l 1
 449 418 l 1
 254 0 l 1
 158 0 l 1
 118 524 l 1
 209 524 l 1
 228 116 l 1
 417 524 l 1
 522 524 l 1
 533 116 l 1
 729 524 l 1
 820 524 l 1
 556 0 l 1
EndSplineSet
KernsSLIF: 44 -57 0 0 45 -8 0 0 46 -57 0 0 58 -32 0 0 59 -31 0 0 97 -26 0 0 99 -14 0 0 101 -20 0 0 103 -13 0 0 108 -8 0 0 111 -17 0 0 115 -14 0 0 224 -26 0 0 225 -26 0 0 226 -26 0 0 227 -26 0 0 228 -26 0 0 229 -26 0 0 230 -22 0 0 232 -20 0 0 233 -20 0 0 234 -20 0 0 242 -17 0 0 243 -17 0 0 246 -17 0 0 248 -14 0 0
EndChar
StartChar: x
Encoding: 120 120 88
Width: 500
Flags: W
HStem: 0 21G<17 115 379 473> 504 20G<138 231 486 583>
DStem: 138 524 231 524 256 267 319 332 256 267 289 200 17 0 115 0 289 200 350 267 379 0 473 0 486 524 583 524 319 332 350 267
Fore
350 267 m 1
 473 0 l 1
 379 0 l 1
 289 200 l 1
 115 0 l 1
 17 0 l 1
 256 267 l 1
 138 524 l 1
 231 524 l 1
 319 332 l 1
 486 524 l 1
 583 524 l 1
 350 267 l 1
EndSplineSet
KernsSLIF: 97 -30 0 0 99 -30 0 0 101 -36 0 0 111 -33 0 0 113 -28 0 0 233 -36 0 0
EndChar
StartChar: y
Encoding: 121 121 89
Width: 500
Flags: W
HStem: -218 81<56 72> 504 20G<132 222 501 590>
DStem: 501 524 590 524 268 117 222 -110
Fore
501 524 m 1
 590 524 l 1
 222 -110 l 2
 179 -184 128 -218 57 -218 c 0
 38 -218 26 -216 8 -208 c 1
 24 -133 l 1
 51 -136 58 -137 68 -137 c 0
 105 -137 121 -127 148 -85 c 2
 200 -4 l 1
 132 524 l 1
 222 524 l 1
 268 117 l 1
 501 524 l 1
EndSplineSet
KernsSLIF: 44 -80 0 0 45 -24 0 0 46 -80 0 0 58 -40 0 0 59 -40 0 0 97 -36 0 0 99 -28 0 0 101 -35 0 0 103 -26 0 0 108 -14 0 0 111 -31 0 0 115 -23 0 0 224 -36 0 0 225 -36 0 0 226 -36 0 0 227 -36 0 0 228 -36 0 0 229 -36 0 0 230 -31 0 0 232 -35 0 0 233 -35 0 0 234 -35 0 0 242 -31 0 0 243 -31 0 0 246 -31 0 0 248 -30 0 0
EndChar
StartChar: z
Encoding: 122 122 90
Width: 500
Flags: W
HStem: 0 72<148 458> 452 72<165 443>
DStem: 444 452 539 449 49 74 147 72
Fore
557 524 m 1
 539 449 l 1
 147 72 l 1
 473 72 l 1
 458 0 l 1
 31 0 l 1
 49 74 l 1
 444 452 l 1
 150 452 l 1
 165 524 l 1
 557 524 l 1
EndSplineSet
EndChar
StartChar: braceleft
Encoding: 123 123 91
Width: 334
Flags: W
HStem: -213 66<211 231> 664 65<383 417>
VStem: 98.6584 76.3416<-117 -113> 148 76<139 164>
DStem: 139 86 218 101 104 -80 179 -80 248 597 323 597 212 431 284 416
Fore
431 729 m 1
 417 664 l 1
 401 664 l 2
 351 664 334 649 323 597 c 2
 284 416 l 1
 270 345 232 290 176 259 c 1
 213 235 224 213 224 162 c 0
 224 140 222 120 218 101 c 2
 179 -80 l 1
 176 -92 175 -103 175 -113 c 0
 175 -137 191 -147 229 -147 c 2
 245 -147 l 1
 231 -213 l 1
 184 -213 l 2
 130 -213 98 -184 98 -134 c 0
 98 -118 100 -98 104 -80 c 2
 139 86 l 1
 145 113 148 137 148 153 c 0
 148 193 128 218 91 224 c 1
 106 293 l 1
 164 303 194 342 212 431 c 1
 248 597 l 1
 258 641 268 663 290 687 c 0
 316 715 348 729 384 729 c 2
 431 729 l 1
EndSplineSet
MinimumDistance: x3,-1 
EndChar
StartChar: bar
Encoding: 124 124 92
Width: 260
Flags: W
HStem: 709 20G<255 315>
DStem: 255 729 315 729 54 -212 114 -212
Fore
255 729 m 1
 315 729 l 1
 114 -212 l 1
 54 -212 l 1
 255 729 l 1
EndSplineSet
EndChar
StartChar: braceright
Encoding: 125 125 93
Width: 334
Flags: W
HStem: -213 65<-2 33> 664 65<184 204>
VStem: 191 76<347 379> 240 76.0573<629 635>
DStem: 131 100 203 85 92 -81 167 -81 236 597 311 597 197 416 276 431
Fore
-16 -213 m 1
 -2 -148 l 1
 14 -148 l 2
 64 -148 81 -133 92 -81 c 2
 131 100 l 1
 148 190 173 226 239 257 c 1
 206 286 191 319 191 362 c 0
 191 379 193 397 197 416 c 2
 236 597 l 1
 239 609 240 620 240 630 c 0
 240 654 224 664 186 664 c 2
 170 664 l 1
 184 729 l 1
 231 729 l 2
 282 729 317 696 317 647 c 0
 317 633 315 616 311 597 c 2
 276 431 l 1
 270 401 267 379 267 359 c 0
 267 322 287 299 324 293 c 1
 309 223 l 1
 251 214 217 169 203 85 c 1
 167 -81 l 2
 158 -123 147 -148 127 -171 c 0
 100 -203 76 -213 31 -213 c 2
 -16 -213 l 1
EndSplineSet
EndChar
StartChar: asciitilde
Encoding: 126 126 94
Width: 584
Flags: W
HStem: 268.005 67.9951<458 475> 372 65.0338<260 265>
Fore
542 411 m 1
 594 411 l 1
 587 370 578 347 560 323 c 0
 535 289 496 268 458 268 c 0
 434 268 406 278 384 294 c 2
 299 357 l 2
 288 365 270 372 260 372 c 0
 229 372 205 345 189 293 c 1
 137 293 l 1
 162 387 211 438 275 438 c 0
 293 438 311 432 326 422 c 2
 428 353 l 2
 446 341 460 336 475 336 c 0
 510 336 531 360 542 411 c 1
EndSplineSet
EndChar
StartChar: exclamdown
Encoding: 161 161 95
Width: 333
Flags: W
HStem: 421 103<233 295>
DStem: 150 145 234 145 76 -205 160 -205 233 524 317 524 211 421 295 421
Fore
76 -205 m 1
 150 145 l 1
 217 356 l 1
 257 356 l 1
 234 145 l 1
 160 -205 l 1
 76 -205 l 1
211 421 m 1
 233 524 l 1
 317 524 l 1
 295 421 l 1
 211 421 l 1
EndSplineSet
MinimumDistance: x8,-1 
EndChar
StartChar: cent
Encoding: 162 162 96
Width: 556
Flags: W
VStem: 96 88<168 200> 498.997 86.0035<371 392>
DStem: 264 -22 304 -23 243 -120 283 -120 366 460 407 463 281 56 320 53 402 628 442 628 383 538 423 538
Fore
407 463 m 1
 320 53 l 1
 391 61 434 98 465 180 c 1
 549 180 l 1
 514 49 438 -15 304 -23 c 1
 283 -120 l 1
 243 -120 l 1
 264 -22 l 1
 161 -11 96 64 96 171 c 0
 96 286 142 402 214 467 c 0
 262 510 312 531 383 538 c 1
 402 628 l 1
 442 628 l 1
 423 538 l 1
 448 538 465 535 485 528 c 0
 542 507 585 448 585 392 c 0
 585 389 584 378 583 363 c 2
 582 348 l 1
 498 348 l 1
 499 357 499 365 499 371 c 0
 499 422 472 452 419 461 c 2
 407 463 l 1
281 56 m 1
 366 460 l 1
 328 453 302 440 276 415 c 0
 221 362 184 269 184 183 c 0
 184 113 221 64 281 56 c 1
EndSplineSet
EndChar
StartChar: sterling
Encoding: 163 163 97
Width: 556
Flags: W
HStem: -22.6715 93.061<401 424> 321 55<107 189 299 435> 652 77<423 443>
VStem: 160 96<473 498> 218 83<270 285> 540 87.0427<555 569>
Fore
447 376 m 1
 435 321 l 1
 298 321 l 1
 299 310 l 1
 300 297 301 287 301 283 c 0
 301 264 294 234 283 210 c 0
 261 161 242 140 169 86 c 0
 163 81 153 74 136 61 c 1
 192 89 230 100 269 100 c 0
 291 100 299 99 322 91 c 0
 367 76 397 70 424 70 c 0
 455 70 476 77 518 101 c 1
 543 31 l 1
 500 -4 449 -23 401 -23 c 0
 365 -23 329 -14 262 12 c 0
 242 19 222 23 199 23 c 0
 162 23 127 12 81 -14 c 1
 44 52 l 1
 161 129 218 200 218 271 c 0
 218 286 217 292 208 321 c 1
 95 321 l 1
 107 376 l 1
 190 376 l 1
 188 382 185 390 181 398 c 0
 164 438 160 455 160 480 c 0
 160 610 295 729 442 729 c 0
 553 729 628 669 628 579 c 0
 628 557 626 539 619 497 c 1
 531 497 l 1
 538 523 540 536 540 554 c 0
 540 614 495 652 424 652 c 0
 329 652 256 582 256 492 c 0
 256 466 256 466 278 404 c 0
 279 403 283 389 287 376 c 1
 447 376 l 1
EndSplineSet
EndChar
StartChar: currency
Encoding: 164 164 98
Width: 556
Flags: W
HStem: 160.01 76.9904<311 327> 448 76.158<368 382>
VStem: 156.863 78.1369<322 323> 458 78.0389<364 373>
DStem: 172 500 238 556 214 445 283 498
Fore
526 191 m 1
 456 137 l 1
 414 190 l 1
 386 171 348 160 309 160 c 128
 270 160 238 169 219 185 c 1
 154 133 l 1
 110 191 l 1
 170 240 l 1
 161 257 156 281 156 305 c 0
 156 328 161 354 171 378 c 0
 180 400 180 400 211 441 c 2
 214 445 l 1
 172 500 l 1
 238 556 l 1
 283 498 l 1
 310 514 351 525 385 525 c 0
 422 525 458 514 478 496 c 1
 546 552 l 1
 593 494 l 1
 524 438 l 1
 533 422 537 406 537 381 c 0
 537 334 513 274 483 245 c 1
 526 191 l 1
369 448 m 0
 300 448 235 388 235 323 c 0
 235 274 274 237 325 237 c 0
 394 237 458 299 458 364 c 0
 458 411 419 448 369 448 c 0
EndSplineSet
EndChar
StartChar: yen
Encoding: 165 165 99
Width: 556
Flags: W
HStem: 0 21G<237 325> 175 51<111 273 374 535> 303 51<138 291 420 562>
DStem: 111 226 362 175 100 175 325 0 138 354 390 303 127 303 373 226 162 709 247 709 292 354 363 387 274 175 362 175 237 0 325 0 302 303 390 303 285 226 373 226 611 709 696 709 363 387 419 354
Fore
573 354 m 1
 562 303 l 1
 390 303 l 1
 373 226 l 1
 545 226 l 1
 535 175 l 1
 362 175 l 1
 325 0 l 1
 237 0 l 1
 274 175 l 1
 100 175 l 1
 111 226 l 1
 285 226 l 1
 302 303 l 1
 127 303 l 1
 138 354 l 1
 292 354 l 1
 162 709 l 1
 247 709 l 1
 363 387 l 1
 611 709 l 1
 696 709 l 1
 419 354 l 1
 573 354 l 1
EndSplineSet
EndChar
StartChar: brokenbar
Encoding: 166 166 100
Width: 260
Flags: W
HStem: 709 20G<255 315>
DStem: 140 189 200 189 54 -212 114 -212 255 729 315 729 169 328 229 328
Fore
255 729 m 1
 315 729 l 1
 229 328 l 1
 169 328 l 1
 255 729 l 1
140 189 m 1
 200 189 l 1
 114 -212 l 1
 54 -212 l 1
 140 189 l 1
EndSplineSet
EndChar
StartChar: section
Encoding: 167 167 101
Width: 556
Flags: W
HStem: -213 77<223 246> 524 21G<491 575> 652 76.1329<417 431>
VStem: 63.0894 87.9106<-69 -57> 104.004 87.9961<274 309> 221 92<541 555> 350 91.0283<-34 -16> 470.992 88.0078<231 267> 501 87.1085<575 587>
DStem: 167 162 236 229 312 38 374 108 287 428 355 491 418 322 482 390
Fore
575 524 m 1
 491 524 l 1
 498 544 501 559 501 575 c 0
 501 622 468 652 418 652 c 0
 362 652 313 605 313 553 c 0
 313 530 321 518 355 491 c 2
 482 390 l 2
 516 363 525 354 535 342 c 0
 551 320 559 295 559 267 c 0
 559 223 537 166 507 131 c 0
 484 104 452 84 412 71 c 1
 434 41 442 18 442 -16 c 0
 442 -57 422 -104 387 -142 c 1
 348 -187 289 -213 225 -213 c 0
 127 -213 63 -158 63 -75 c 0
 63 -54 66 -41 74 -14 c 1
 159 -14 l 1
 153 -35 151 -46 151 -59 c 0
 151 -104 188 -136 238 -136 c 0
 299 -136 350 -89 350 -34 c 0
 350 -5 340 14 312 38 c 2
 167 162 l 2
 121 201 104 232 104 274 c 0
 104 315 124 365 152 397 c 0
 175 423 187 431 247 463 c 1
 229 486 221 510 221 540 c 0
 221 638 324 729 436 729 c 0
 526 729 589 673 589 594 c 0
 589 573 588 569 577 533 c 0
 577 532 576 529 575 524 c 1
236 229 m 2
 374 108 l 1
 438 141 471 183 471 231 c 0
 471 261 450 296 418 322 c 2
 287 428 l 1
 217 388 192 357 192 309 c 0
 192 277 202 258 236 229 c 2
EndSplineSet
EndChar
StartChar: dieresis
Encoding: 168 168 102
Width: 333
Flags: W
HStem: 612 103<181 263 342 424>
DStem: 181 715 285 715 159 612 263 612 342 715 446 715 320 612 424 612
Fore
285 715 m 1
 263 612 l 1
 159 612 l 1
 181 715 l 1
 285 715 l 1
446 715 m 1
 424 612 l 1
 320 612 l 1
 342 715 l 1
 446 715 l 1
EndSplineSet
EndChar
StartChar: copyright
Encoding: 169 169 103
Width: 737
Flags: W
HStem: -22 62<359 377> 126.009 61.9911<402 418> 530 62<487 504> 680 62<502 535>
VStem: 55 70<280 303> 249 72<283 314> 766 70<426 442>
Fore
637 437 m 1
 566 437 l 1
 563 503 540 530 488 530 c 0
 440 530 398 504 366 456 c 0
 338 413 321 354 321 301 c 0
 321 234 359 188 416 188 c 0
 471 188 517 231 547 312 c 1
 618 312 l 1
 594 251 578 224 552 196 c 0
 509 149 459 126 400 126 c 0
 306 126 249 189 249 292 c 0
 249 367 278 448 326 506 c 0
 374 562 435 592 503 592 c 0
 593 592 635 543 637 437 c 1
530 742 m 0
 707 742 836 614 836 440 c 0
 836 200 607 -22 361 -22 c 0
 184 -22 55 106 55 281 c 0
 55 520 284 742 530 742 c 0
516 680 m 0
 314 680 125 493 125 293 c 0
 125 147 231 40 375 40 c 0
 577 40 766 227 766 428 c 0
 766 573 660 680 516 680 c 0
EndSplineSet
EndChar
StartChar: ordfeminine
Encoding: 170 170 104
Width: 370
Flags: W
HStem: 303 51<118 395> 399.012 49.9881<233 249> 403 44<414 417> 691 51<313 336>
VStem: 136 60<478 488> 381.926 58.0743<659 660>
Fore
406 354 m 1
 395 303 l 1
 107 303 l 1
 118 354 l 1
 406 354 l 1
432 449 m 1
 423 405 l 1
 418 404 414 403 413 403 c 0
 396 399 394 399 387 399 c 0
 359 399 343 414 340 442 c 1
 310 414 272 399 231 399 c 0
 170 399 136 428 136 479 c 0
 136 516 154 548 186 568 c 0
 215 586 241 592 320 600 c 0
 364 605 371 608 378 633 c 2
 380 641 l 2
 381 646 382 651 382 656 c 0
 382 664 381 667 371 679 c 0
 365 685 342 691 320 691 c 0
 296 691 270 682 259 669 c 0
 249 658 245 650 240 634 c 1
 184 634 l 1
 196 677 202 690 218 705 c 0
 243 729 285 742 337 742 c 0
 401 742 441 717 441 676 c 0
 441 669 441 661 440 658 c 1
 399 468 l 1
 398 465 398 463 398 461 c 0
 398 454 406 447 415 447 c 0
 417 447 420 447 424 448 c 2
 432 449 l 1
353 515 m 2
 363 566 l 1
 346 560 336 558 312 555 c 0
 255 547 242 544 224 533 c 0
 208 523 196 503 196 486 c 0
 196 461 214 449 249 449 c 0
 294 449 347 483 353 515 c 2
EndSplineSet
EndChar
StartChar: guillemotleft
Encoding: 171 171 105
Width: 556
Flags: W
DStem: 147 227 204 271 272 106 290 188 343 438 325 355 166 316 204 271 352 227 409 271 477 106 495 188 548 438 530 355 371 316 409 271
Fore
147 227 m 1
 166 316 l 1
 343 438 l 1
 325 355 l 1
 204 271 l 1
 290 188 l 1
 272 106 l 1
 147 227 l 1
352 227 m 1
 371 316 l 1
 548 438 l 1
 530 355 l 1
 409 271 l 1
 495 188 l 1
 477 106 l 1
 352 227 l 1
EndSplineSet
MinimumDistance: x10,-1 
EndChar
StartChar: logicalnot
Encoding: 172 172 106
Width: 584
Flags: W
HStem: 305 72<114 533>
DStem: 114 377 619 377 99 305 558 86 534 305 619 377 488 86 558 86
Fore
114 377 m 1
 619 377 l 1
 558 86 l 1
 488 86 l 1
 534 305 l 1
 99 305 l 1
 114 377 l 1
EndSplineSet
EndChar
StartChar: registered
Encoding: 174 174 107
Width: 737
Flags: W
HStem: -22 62<354 385> 325 63<356 487> 522 63<383 530> 680 62<503 535>
VStem: 55 70<280 306> 510.491 74.9378<168 194> 528.556 70.7555<285 304> 574.994 76.0059<476 496> 766 70<415 442>
DStem: 326 585 383 522 232 140 355 388 326 585 341 325 232 140 302 140
Fore
341 325 m 1
 302 140 l 1
 232 140 l 1
 326 585 l 1
 532 585 l 2
 613 585 651 557 651 496 c 0
 651 470 644 440 633 418 c 0
 621 395 606 381 571 360 c 1
 594 342 600 331 600 304 c 0
 600 294 598 277 592 248 c 0
 587 216 585 205 585 194 c 0
 585 180 588 173 597 165 c 1
 592 140 l 1
 514 140 l 1
 511 152 510 158 510 168 c 0
 510 194 511 197 525 253 c 0
 527 264 529 276 529 285 c 0
 529 312 511 325 475 325 c 2
 341 325 l 1
355 388 m 1
 484 388 l 2
 519 388 540 396 556 416 c 0
 567 431 575 455 575 476 c 0
 575 509 556 522 512 522 c 2
 383 522 l 1
 355 388 l 1
530 742 m 0
 707 742 836 614 836 440 c 0
 836 200 607 -22 361 -22 c 0
 184 -22 55 106 55 281 c 0
 55 520 284 742 530 742 c 0
516 680 m 0
 314 680 125 493 125 293 c 0
 125 147 231 40 375 40 c 0
 577 40 766 227 766 428 c 0
 766 573 660 680 516 680 c 0
EndSplineSet
EndChar
StartChar: macron
Encoding: 175 175 108
Width: 333
Flags: W
HStem: 627 69<175 435>
Fore
450 696 m 1
 435 627 l 1
 160 627 l 1
 175 696 l 1
 450 696 l 1
EndSplineSet
EndChar
StartChar: degree
Encoding: 176 176 109
Width: 606
Flags: W
HStem: 383 43<435 451> 643 43<435 451>
VStem: 291 45<527 543> 549 45<527 543>
Fore
442 686 m 0
 526 686 594 618 594 535 c 0
 594 450 526 383 441 383 c 0
 359 383 291 452 291 535 c 128
 291 618 359 686 442 686 c 0
443 643 m 0
 384 643 336 594 336 535 c 128
 336 476 384 426 441 426 c 0
 501 426 549 474 549 535 c 0
 549 594 501 643 443 643 c 0
EndSplineSet
MinimumDistance: x1,-1 
EndChar
StartChar: plusminus
Encoding: 177 177 110
Width: 584
Flags: W
HStem: 0 72<65 534> 357 72<141 332 419 610> 357 276<403 418>
DStem: 141 429 403 357 126 357 359 149 333 357 403 357 288 149 359 149 391 633 462 633 348 429 418 429
Fore
625 429 m 1
 610 357 l 1
 403 357 l 1
 359 149 l 1
 288 149 l 1
 333 357 l 1
 126 357 l 1
 141 429 l 1
 348 429 l 1
 391 633 l 1
 462 633 l 1
 418 429 l 1
 625 429 l 1
549 72 m 1
 534 0 l 1
 50 0 l 1
 65 72 l 1
 549 72 l 1
EndSplineSet
MinimumDistance: x10,-1 
EndChar
StartChar: twosuperior
Encoding: 178 178 111
Width: 390
Flags: W
HStem: 284 60<182 400> 654 55<324 347>
VStem: 403 65<588 605>
Fore
412 344 m 1
 400 284 l 1
 100 284 l 1
 128 385 155 416 265 472 c 2
 328 503 l 2
 375 525 403 559 403 594 c 0
 403 630 376 654 335 654 c 0
 279 654 247 624 230 555 c 1
 167 555 l 1
 191 662 246 709 345 709 c 0
 420 709 468 668 468 603 c 0
 468 543 427 493 344 452 c 2
 276 419 l 2
 222 392 200 375 181 344 c 1
 412 344 l 1
EndSplineSet
EndChar
StartChar: threesuperior
Encoding: 179 179 112
Width: 390
Flags: W
HStem: 270 55<246 268> 475 52<267 299> 654 55<327 340>
VStem: 123 65<372 383> 365 65<416 434> 390 64.5529<605 608>
Fore
256 474 m 1
 267 527 l 1
 279 527 l 1
 283 527 l 2
 356 527 390 552 390 606 c 0
 390 636 366 654 328 654 c 0
 296 654 269 642 252 619 c 0
 243 608 238 596 231 565 c 1
 168 565 l 1
 181 613 191 636 211 657 c 0
 242 691 286 709 338 709 c 0
 409 709 455 673 455 618 c 0
 455 567 436 535 386 504 c 1
 417 489 430 467 430 434 c 0
 430 340 351 270 247 270 c 0
 167 270 123 307 123 373 c 0
 123 383 124 392 126 414 c 1
 190 414 l 1
 189 402 l 1
 188 393 188 387 188 381 c 0
 188 347 215 325 256 325 c 0
 321 325 365 365 365 425 c 0
 365 457 336 475 287 475 c 0
 280 475 272 475 256 474 c 1
EndSplineSet
EndChar
StartChar: acute
Encoding: 180 180 113
Width: 333
Flags: W
HStem: 720 20G<346 458>
Fore
346 740 m 1
 458 740 l 1
 278 592 l 1
 218 592 l 1
 346 740 l 1
EndSplineSet
EndChar
StartChar: mu
Encoding: 181 181 114
Width: 556
Flags: W
HStem: -22.9981 72.9981<231 266> 504 20G<176 260 509 593>
DStem: 176 524 260 524 18 -220 183 160 176 524 150 6 18 -220 102 -220 509 524 593 524 446 227 500 88
Fore
554 49 m 1
 540 -14 l 1
 534 -15 529 -16 527 -17 c 0
 505 -22 499 -23 486 -23 c 0
 432 -23 411 -5 411 41 c 0
 411 45 412 52 414 60 c 1
 360 4 300 -23 231 -23 c 0
 194 -23 171 -15 150 6 c 1
 102 -220 l 1
 18 -220 l 1
 176 524 l 1
 260 524 l 1
 183 160 l 2
 181 150 180 141 180 130 c 0
 180 80 213 50 266 50 c 0
 352 50 423 120 446 227 c 1
 509 524 l 1
 593 524 l 1
 500 88 l 1
 499 85 499 81 499 77 c 0
 499 57 512 46 537 46 c 0
 543 46 546 47 554 49 c 1
EndSplineSet
EndChar
StartChar: paragraph
Encoding: 182 182 115
Width: 537
Flags: W
HStem: 665 64<460 542 607 663>
DStem: 310 259 460 665 217 -178 281 -178 543 665 607 665 364 -178 428 -178
Fore
677 729 m 1
 663 665 l 1
 607 665 l 1
 428 -178 l 1
 364 -178 l 1
 543 665 l 1
 460 665 l 1
 281 -178 l 1
 217 -178 l 1
 310 259 l 1
 207 262 145 329 145 436 c 0
 145 588 281 729 427 729 c 2
 677 729 l 1
EndSplineSet
EndChar
StartChar: periodcentered
Encoding: 183 183 116
Width: 278
Flags: W
HStem: 192 103<188 271>
DStem: 188 295 293 295 166 192 271 192
Fore
293 295 m 1
 271 192 l 1
 166 192 l 1
 188 295 l 1
 293 295 l 1
EndSplineSet
EndChar
StartChar: cedilla
Encoding: 184 184 117
Width: 333
Flags: W
HStem: -214 43<113 136> -20 20G<165 206>
VStem: 186 77.1123<-118 -114>
DStem: 165 0 206 0 115 -92 176 -56
Fore
165 0 m 1
 206 0 l 1
 176 -56 l 1
 189 -54 193 -54 197 -54 c 0
 234 -54 264 -77 264 -105 c 0
 264 -168 203 -214 119 -214 c 0
 81 -214 52 -206 1 -180 c 1
 29 -142 l 1
 70 -163 95 -171 123 -171 c 0
 160 -171 186 -148 186 -116 c 0
 186 -104 172 -94 155 -94 c 0
 151 -94 151 -94 135 -97 c 2
 128 -98 l 1
 115 -92 l 1
 165 0 l 1
EndSplineSet
EndChar
StartChar: onesuperior
Encoding: 185 185 118
Width: 390
Flags: W
DStem: 215 626 393 709 205 580 303 284 302 580 393 709 239 284 303 284
Fore
302 580 m 1
 205 580 l 1
 215 626 l 1
 306 638 316 644 349 709 c 1
 393 709 l 1
 303 284 l 1
 239 284 l 1
 302 580 l 1
EndSplineSet
EndChar
StartChar: ordmasculine
Encoding: 186 186 119
Width: 365
Flags: W
HStem: 303 51<125 377> 399 52<263 278> 690 52<322 338>
VStem: 149 60<510 527> 392 60<607 629>
Fore
388 354 m 1
 377 303 l 1
 114 303 l 1
 125 354 l 1
 388 354 l 1
336 742 m 0
 369 742 399 732 417 716 c 0
 437 697 452 660 452 627 c 0
 452 576 431 508 404 470 c 0
 370 424 321 399 262 399 c 0
 195 399 149 444 149 509 c 0
 149 565 169 635 197 672 c 0
 229 716 281 742 336 742 c 0
327 690 m 0
 261 690 209 618 209 525 c 0
 209 478 234 451 276 451 c 0
 341 451 392 524 392 617 c 0
 392 662 367 690 327 690 c 0
EndSplineSet
EndChar
StartChar: guillemotright
Encoding: 187 187 120
Width: 556
Flags: W
DStem: 174 356 192 438 262 273 319 317 262 273 300 228 139 189 121 106 373 356 391 438 461 273 518 317 461 273 499 228 338 189 320 106
Fore
319 317 m 1
 300 228 l 1
 121 106 l 1
 139 189 l 1
 262 273 l 1
 174 356 l 1
 192 438 l 1
 319 317 l 1
518 317 m 1
 499 228 l 1
 320 106 l 1
 338 189 l 1
 461 273 l 1
 373 356 l 1
 391 438 l 1
 518 317 l 1
EndSplineSet
MinimumDistance: x7,-1 
KernsSLIF: 65 -58 3 0 84 -132 3 0 86 -96 3 0 87 -68 3 0 89 -137 3 0 193 -58 3 0 196 -58 3 0 197 -58 3 0 198 -62 3 0
EndChar
StartChar: onequarter
Encoding: 188 188 121
Width: 947
Flags: W
HStem: 0 21G<777 840> 100 55<689 797 874 926>
DStem: 215 626 393 709 205 580 303 284 302 580 393 709 239 284 303 284 627 160 861 100 614 100 840 0 798 100 861 100 777 0 840 0 818 709 876 709 212 -20 270 -20 844 316 930 425 810 155 873 155 883 425 844 316 627 160 688 155
Fore
302 580 m 1
 205 580 l 1
 215 626 l 1
 306 638 316 644 349 709 c 1
 393 709 l 1
 303 284 l 1
 239 284 l 1
 302 580 l 1
818 709 m 1
 876 709 l 1
 270 -20 l 1
 212 -20 l 1
 818 709 l 1
798 100 m 1
 614 100 l 1
 627 160 l 1
 883 425 l 1
 930 425 l 1
 873 155 l 1
 938 155 l 1
 926 100 l 1
 861 100 l 1
 840 0 l 1
 777 0 l 1
 798 100 l 1
810 155 m 1
 844 316 l 1
 688 155 l 1
 810 155 l 1
EndSplineSet
MinimumDistance: x15,-1 
EndChar
StartChar: onehalf
Encoding: 189 189 122
Width: 947
Flags: W
HStem: 0 60<679 897> 370 55<824 844>
VStem: 900 65<309 321>
DStem: 215 626 393 709 205 580 303 284 302 580 393 709 239 284 303 284 808 709 866 709 202 -20 260 -20
Fore
302 580 m 1
 205 580 l 1
 215 626 l 1
 306 638 316 644 349 709 c 1
 393 709 l 1
 303 284 l 1
 239 284 l 1
 302 580 l 1
808 709 m 1
 866 709 l 1
 260 -20 l 1
 202 -20 l 1
 808 709 l 1
909 60 m 1
 897 0 l 1
 597 0 l 1
 625 101 652 132 762 188 c 2
 825 219 l 2
 872 241 900 275 900 310 c 0
 900 346 873 370 832 370 c 0
 776 370 744 340 727 271 c 1
 664 271 l 1
 688 378 743 425 842 425 c 0
 917 425 965 384 965 319 c 0
 965 259 924 209 841 168 c 2
 773 135 l 2
 719 108 697 91 678 60 c 1
 909 60 l 1
EndSplineSet
EndChar
StartChar: threequarters
Encoding: 190 190 123
Width: 947
Flags: W
HStem: 0 21G<777 840> 100 55<689 797 874 926> 270 55<246 268> 475 52<267 299> 654 55<327 340>
VStem: 123 65<372 383> 365 65<416 434> 390 64.4781<604 608>
DStem: 627 160 861 100 614 100 840 0 798 100 861 100 777 0 840 0 838 709 896 709 232 -20 290 -20 844 316 930 425 810 155 873 155 883 425 844 316 627 160 688 155
Fore
256 474 m 1
 267 527 l 1
 279 527 l 1
 283 527 l 2
 356 527 390 552 390 606 c 0
 390 636 366 654 328 654 c 0
 296 654 269 642 252 619 c 0
 243 608 238 596 231 565 c 1
 168 565 l 1
 181 613 191 636 211 657 c 0
 242 691 286 709 338 709 c 0
 409 709 455 673 455 618 c 0
 455 567 436 535 386 504 c 1
 417 489 430 467 430 434 c 0
 430 340 351 270 247 270 c 0
 167 270 123 307 123 373 c 0
 123 383 124 392 126 414 c 1
 190 414 l 1
 189 402 l 1
 188 393 188 387 188 381 c 0
 188 347 215 325 256 325 c 0
 321 325 365 365 365 425 c 0
 365 457 336 475 287 475 c 0
 280 475 272 475 256 474 c 1
838 709 m 1
 896 709 l 1
 290 -20 l 1
 232 -20 l 1
 838 709 l 1
798 100 m 1
 614 100 l 1
 627 160 l 1
 883 425 l 1
 930 425 l 1
 873 155 l 1
 938 155 l 1
 926 100 l 1
 861 100 l 1
 840 0 l 1
 777 0 l 1
 798 100 l 1
810 155 m 1
 844 316 l 1
 688 155 l 1
 810 155 l 1
EndSplineSet
MinimumDistance: x31,-1 
EndChar
StartChar: questiondown
Encoding: 191 191 124
Width: 611
Flags: W
HStem: -216.813 76.8133<278 290> 421 103<386 454>
VStem: 86.6492 94.3508<-72 -53>
DStem: 344 325 434 325 334 278 422 270 386 524 476 524 364 421 454 421
Fore
344 325 m 1
 434 325 l 1
 422 270 l 1
 408 209 390 187 285 107 c 1
 213 50 181 1 181 -53 c 0
 181 -106 223 -140 288 -140 c 0
 376 -140 424 -92 446 17 c 1
 531 17 l 1
 500 -138 410 -217 266 -217 c 0
 199 -217 154 -200 121 -162 c 0
 99 -137 86 -104 86 -72 c 0
 86 -26 105 26 137 68 c 0
 157 94 182 117 230 154 c 0
 304 209 320 228 334 278 c 1
 344 325 l 1
364 421 m 1
 386 524 l 1
 476 524 l 1
 454 421 l 1
 364 421 l 1
EndSplineSet
MinimumDistance: x16,-1 
EndChar
StartChar: Agrave
Encoding: 192 192 125
Width: 667
Flags: W
HStem: 0 21G<17 116 551 653> 219 78<284 513> 709 20G<432 552>
DStem: 432 729 474 630 17 0 283 297 432 729 239 219 17 0 116 0
Fore
524 219 m 1
 239 219 l 1
 116 0 l 1
 17 0 l 1
 432 729 l 1
 552 729 l 1
 653 0 l 1
 551 0 l 1
 524 219 l 1
514 297 m 1
 474 630 l 1
 283 297 l 1
 514 297 l 1
483 939 m 1
 555 791 l 1
 502 791 l 1
 377 939 l 1
 483 939 l 1
EndSplineSet
MinimumDistance: x9,-1 
KernsSLIF: 44 -4 0 0 46 -2 0 0 67 -41 0 0 71 -41 0 0 79 -37 0 0 81 -38 0 0 84 -103 0 0 85 -42 0 0 86 -81 0 0 87 -57 0 0 89 -104 0 0
EndChar
StartChar: Aacute
Encoding: 193 193 126
Width: 667
Flags: W
HStem: 0 21G<17 116 551 653> 219 78<284 513> 709 20G<432 552>
DStem: 432 729 474 630 17 0 283 297 432 729 239 219 17 0 116 0
Fore
524 219 m 1
 239 219 l 1
 116 0 l 1
 17 0 l 1
 432 729 l 1
 552 729 l 1
 653 0 l 1
 551 0 l 1
 524 219 l 1
514 297 m 1
 474 630 l 1
 283 297 l 1
 514 297 l 1
555 939 m 1
 667 939 l 1
 487 791 l 1
 427 791 l 1
 555 939 l 1
EndSplineSet
MinimumDistance: x9,-1 
KernsSLIF: 44 -4 0 0 45 -9 0 0 46 -3 0 0 67 -42 0 0 71 -42 0 0 79 -38 0 0 81 -39 0 0 84 -103 0 0 85 -43 0 0 86 -81 0 0 87 -57 0 0 89 -104 0 0 97 -16 0 0 98 -6 0 0 99 -17 0 0 100 -15 0 0 101 -23 0 0 103 -17 0 0 111 -20 0 0 113 -16 0 0 116 -23 0 0 117 -20 0 0 118 -40 0 0 119 -29 0 0 121 -44 0 0 171 -51 0 0 8217 -68 0 0 8249 -48 0 0
EndChar
StartChar: Acircumflex
Encoding: 194 194 127
Width: 667
Flags: W
HStem: 0 21G<17 116 551 653> 219 78<284 513> 709 20G<432 552>
DStem: 432 729 474 630 17 0 283 297 432 729 239 219 17 0 116 0
Fore
524 219 m 1
 239 219 l 1
 116 0 l 1
 17 0 l 1
 432 729 l 1
 552 729 l 1
 653 0 l 1
 551 0 l 1
 524 219 l 1
514 297 m 1
 474 630 l 1
 283 297 l 1
 514 297 l 1
486 940 m 1
 581 940 l 1
 645 790 l 1
 582 790 l 1
 526 889 l 1
 422 790 l 1
 358 790 l 1
 486 940 l 1
EndSplineSet
MinimumDistance: x9,-1 
KernsSLIF: 44 -4 0 0 46 -2 0 0 67 -41 0 0 71 -41 0 0 79 -37 0 0 81 -38 0 0 84 -103 0 0 85 -42 0 0 86 -81 0 0 87 -57 0 0 89 -104 0 0
EndChar
StartChar: Atilde
Encoding: 195 195 128
Width: 667
Flags: W
HStem: 0 21G<17 116 551 653> 219 78<284 513> 709 20G<432 552> 811 70<571 581> 843 70<432 449>
DStem: 432 729 474 630 17 0 283 297 432 729 239 219 17 0 116 0
Fore
524 219 m 1
 239 219 l 1
 116 0 l 1
 17 0 l 1
 432 729 l 1
 552 729 l 1
 653 0 l 1
 551 0 l 1
 524 219 l 1
514 297 m 1
 474 630 l 1
 283 297 l 1
 514 297 l 1
627 918 m 1
 680 918 l 1
 659 853 617 811 572 811 c 0
 550 811 533 815 469 837 c 0
 458 841 448 843 442 843 c 0
 423 843 411 837 399 819 c 0
 397 817 395 814 392 810 c 1
 339 810 l 1
 351 845 359 862 371 877 c 0
 387 898 418 913 443 913 c 0
 460 913 477 909 516 896 c 0
 542 887 569 881 579 881 c 0
 599 881 609 889 627 918 c 1
EndSplineSet
MinimumDistance: x9,-1 
KernsSLIF: 44 -4 0 0 46 -4 0 0 67 -43 0 0 71 -42 0 0 79 -39 0 0 81 -40 0 0 84 -103 0 0 85 -44 0 0 86 -81 0 0 87 -57 0 0 89 -104 0 0
EndChar
StartChar: Adieresis
Encoding: 196 196 129
Width: 667
Flags: W
HStem: 0 21G<17 116 551 653> 219 78<284 513> 709 20G<432 552> 811 103<397 479 558 640>
DStem: 397 914 501 914 375 811 479 811 432 729 474 630 17 0 283 297 432 729 239 219 17 0 116 0 558 914 662 914 536 811 640 811
Fore
524 219 m 1
 239 219 l 1
 116 0 l 1
 17 0 l 1
 432 729 l 1
 552 729 l 1
 653 0 l 1
 551 0 l 1
 524 219 l 1
514 297 m 1
 474 630 l 1
 283 297 l 1
 514 297 l 1
501 914 m 1
 479 811 l 1
 375 811 l 1
 397 914 l 1
 501 914 l 1
662 914 m 1
 640 811 l 1
 536 811 l 1
 558 914 l 1
 662 914 l 1
EndSplineSet
MinimumDistance: x15,-1 
KernsSLIF: 44 -4 0 0 45 -8 0 0 46 -3 0 0 67 -42 0 0 71 -41 0 0 79 -38 0 0 81 -39 0 0 84 -103 0 0 85 -43 0 0 86 -81 0 0 87 -57 0 0 89 -104 0 0 97 -16 0 0 98 -5 0 0 99 -17 0 0 100 -14 0 0 103 -17 0 0 111 -19 0 0 113 -15 0 0 116 -22 0 0 117 -19 0 0 118 -40 0 0 119 -29 0 0 121 -44 0 0 171 -51 0 0 8217 -68 0 0 8221 -60 0 0 8249 -48 0 0
EndChar
StartChar: Aring
Encoding: 197 197 130
Width: 667
Flags: W
HStem: 0 21G<17 116 551 653> 219 78<284 513> 709 20G<432 552> 778 44<498 508> 909 44<523 534>
VStem: 425 46<848 859> 560 44.0744<873 880>
DStem: 432 729 474 630 17 0 283 297 432 729 239 219 17 0 116 0
Fore
524 219 m 1
 239 219 l 1
 116 0 l 1
 17 0 l 1
 432 729 l 1
 552 729 l 1
 653 0 l 1
 551 0 l 1
 524 219 l 1
514 297 m 1
 474 630 l 1
 283 297 l 1
 514 297 l 1
533 953 m 0
 574 953 605 924 605 886 c 0
 605 830 553 778 496 778 c 0
 456 778 425 809 425 848 c 0
 425 901 479 953 533 953 c 0
526 909 m 0
 498 909 471 883 471 857 c 0
 471 836 486 822 506 822 c 0
 533 822 560 848 560 874 c 0
 560 894 545 909 526 909 c 0
EndSplineSet
KernsSLIF: 44 -4 0 0 45 -8 0 0 46 -2 0 0 67 -41 0 0 71 -41 0 0 79 -37 0 0 81 -38 0 0 84 -103 0 0 85 -42 0 0 86 -81 0 0 87 -57 0 0 89 -104 0 0 97 -16 0 0 98 -5 0 0 99 -16 0 0 100 -14 0 0 101 -22 0 0 103 -17 0 0 111 -19 0 0 113 -15 0 0 116 -22 0 0 117 -18 0 0 118 -40 0 0 119 -29 0 0 121 -44 0 0 171 -51 0 0 8217 -68 0 0 8221 -60 0 0 8249 -47 0 0
EndChar
StartChar: AE
Encoding: 198 198 131
Width: 1000
Flags: W
HStem: 0 82<580 950> 214 81<294 512> 332 82<651 983> 647 82<505 604 699 1070>
DStem: 465 729 505 647 11 0 293 295 465 729 244 214 11 0 114 0 513 214 632 332 468 0 579 82 513 214 967 82 468 0 950 0 605 647 699 647 531 295 650 414 605 647 1001 414 531 295 983 332
Fore
513 214 m 1
 244 214 l 1
 114 0 l 1
 11 0 l 1
 465 729 l 1
 1087 729 l 1
 1070 647 l 1
 699 647 l 1
 650 414 l 1
 1001 414 l 1
 983 332 l 1
 632 332 l 1
 579 82 l 1
 967 82 l 1
 950 0 l 1
 468 0 l 1
 513 214 l 1
531 295 m 1
 605 647 l 1
 505 647 l 1
 293 295 l 1
 531 295 l 1
EndSplineSet
EndChar
StartChar: Ccedilla
Encoding: 199 199 132
Width: 722
Flags: W
HStem: -214 43<288 311> -23 81<369 384> 660 81<512 534>
VStem: 112 96<241 268> 361 77.1123<-118 -114>
DStem: 328 -21 368 -23 290 -92 351 -56
Fore
368 -23 m 1
 351 -56 l 1
 364 -54 367 -54 372 -54 c 0
 409 -54 439 -77 439 -105 c 0
 439 -168 378 -214 294 -214 c 0
 256 -214 227 -206 176 -180 c 1
 204 -142 l 1
 244 -163 270 -171 298 -171 c 0
 335 -171 361 -148 361 -116 c 0
 361 -104 347 -94 330 -94 c 0
 325 -94 325 -94 310 -97 c 2
 303 -98 l 1
 290 -92 l 1
 328 -21 l 1
 261 -11 232 1 197 32 c 0
 142 81 112 156 112 242 c 0
 112 367 161 505 240 600 c 0
 318 694 415 741 532 741 c 0
 626 741 697 704 738 634 c 0
 757 600 767 562 770 503 c 1
 674 503 l 1
 666 611 616 660 515 660 c 0
 423 660 350 617 289 527 c 0
 238 451 208 351 208 260 c 0
 208 139 277 58 381 58 c 0
 460 58 536 95 578 155 c 0
 596 179 612 209 637 266 c 1
 735 266 l 1
 656 68 542 -21 368 -23 c 1
EndSplineSet
KernsSLIF: 65 -44 0 0
EndChar
StartChar: Egrave
Encoding: 200 200 133
Width: 667
Flags: W
HStem: 0 82<202 613> 332 82<273 650> 647 82<322 734>
DStem: 245 729 322 647 90 0 272 414 245 729 668 414 90 0 650 332 245 729 255 332 90 0 201 82 245 729 630 82 90 0 613 0
Fore
255 332 m 1
 201 82 l 1
 630 82 l 1
 613 0 l 1
 90 0 l 1
 245 729 l 1
 751 729 l 1
 734 647 l 1
 322 647 l 1
 272 414 l 1
 668 414 l 1
 650 332 l 1
 255 332 l 1
495 939 m 1
 567 791 l 1
 514 791 l 1
 389 939 l 1
 495 939 l 1
EndSplineSet
EndChar
StartChar: Eacute
Encoding: 201 201 134
Width: 667
Flags: W
HStem: 0 82<202 613> 332 82<273 650> 647 82<322 734>
DStem: 245 729 322 647 90 0 272 414 245 729 668 414 90 0 650 332 245 729 255 332 90 0 201 82 245 729 630 82 90 0 613 0
Fore
255 332 m 1
 201 82 l 1
 630 82 l 1
 613 0 l 1
 90 0 l 1
 245 729 l 1
 751 729 l 1
 734 647 l 1
 322 647 l 1
 272 414 l 1
 668 414 l 1
 650 332 l 1
 255 332 l 1
582 939 m 1
 694 939 l 1
 514 791 l 1
 454 791 l 1
 582 939 l 1
EndSplineSet
EndChar
StartChar: Ecircumflex
Encoding: 202 202 135
Width: 667
Flags: W
HStem: 0 82<202 613> 332 82<273 650> 647 82<322 734>
DStem: 245 729 322 647 90 0 272 414 245 729 668 414 90 0 650 332 245 729 255 332 90 0 201 82 245 729 630 82 90 0 613 0
Fore
255 332 m 1
 201 82 l 1
 630 82 l 1
 613 0 l 1
 90 0 l 1
 245 729 l 1
 751 729 l 1
 734 647 l 1
 322 647 l 1
 272 414 l 1
 668 414 l 1
 650 332 l 1
 255 332 l 1
495 940 m 1
 590 940 l 1
 654 790 l 1
 591 790 l 1
 535 889 l 1
 431 790 l 1
 367 790 l 1
 495 940 l 1
EndSplineSet
EndChar
StartChar: Edieresis
Encoding: 203 203 136
Width: 667
Flags: W
HStem: 0 82<202 613> 332 82<273 650> 647 82<322 734> 811 103<401 483 562 644>
DStem: 245 729 322 647 90 0 272 414 245 729 668 414 90 0 650 332 245 729 255 332 90 0 201 82 245 729 630 82 90 0 613 0 401 914 505 914 379 811 483 811 562 914 666 914 540 811 644 811
Fore
255 332 m 1
 201 82 l 1
 630 82 l 1
 613 0 l 1
 90 0 l 1
 245 729 l 1
 751 729 l 1
 734 647 l 1
 322 647 l 1
 272 414 l 1
 668 414 l 1
 650 332 l 1
 255 332 l 1
505 914 m 1
 483 811 l 1
 379 811 l 1
 401 914 l 1
 505 914 l 1
666 914 m 1
 644 811 l 1
 540 811 l 1
 562 914 l 1
 666 914 l 1
EndSplineSet
EndChar
StartChar: Igrave
Encoding: 204 204 137
Width: 278
Flags: W
HStem: 0 21G<100 194> 709 20G<255 349>
DStem: 255 729 349 729 100 0 194 0
Fore
349 729 m 1
 194 0 l 1
 100 0 l 1
 255 729 l 1
 349 729 l 1
306 939 m 1
 378 791 l 1
 325 791 l 1
 200 939 l 1
 306 939 l 1
EndSplineSet
EndChar
StartChar: Iacute
Encoding: 205 205 138
Width: 278
Flags: W
HStem: 0 21G<100 194> 709 20G<255 349>
DStem: 255 729 349 729 100 0 194 0
Fore
349 729 m 1
 194 0 l 1
 100 0 l 1
 255 729 l 1
 349 729 l 1
367 939 m 1
 479 939 l 1
 299 791 l 1
 239 791 l 1
 367 939 l 1
EndSplineSet
EndChar
StartChar: Icircumflex
Encoding: 206 206 139
Width: 278
Flags: W
HStem: 0 21G<100 194> 709 20G<255 349>
DStem: 255 729 349 729 100 0 194 0
Fore
349 729 m 1
 194 0 l 1
 100 0 l 1
 255 729 l 1
 349 729 l 1
295 940 m 1
 390 940 l 1
 454 790 l 1
 391 790 l 1
 335 889 l 1
 231 790 l 1
 167 790 l 1
 295 940 l 1
EndSplineSet
EndChar
StartChar: Idieresis
Encoding: 207 207 140
Width: 278
Flags: W
HStem: 0 21G<100 194> 709 20G<255 349> 804 103<202 284 363 445>
DStem: 202 907 306 907 180 804 284 804 255 729 349 729 100 0 194 0 363 907 467 907 341 804 445 804
Fore
349 729 m 1
 194 0 l 1
 100 0 l 1
 255 729 l 1
 349 729 l 1
306 907 m 1
 284 804 l 1
 180 804 l 1
 202 907 l 1
 306 907 l 1
467 907 m 1
 445 804 l 1
 341 804 l 1
 363 907 l 1
 467 907 l 1
EndSplineSet
EndChar
StartChar: Eth
Encoding: 208 208 141
Width: 722
Flags: W
HStem: 0 82<201 393> 341 67<106 160 271 422> 647 82<321 505>
VStem: 663 96<464 496>
DStem: 161 341 255 341 89 0 200 82 244 729 321 647 176 408 270 408
Fore
161 341 m 1
 93 341 l 1
 106 408 l 1
 176 408 l 1
 244 729 l 1
 526 729 l 2
 591 729 644 711 682 677 c 0
 729 635 759 561 759 488 c 0
 759 363 711 217 643 134 c 0
 570 45 479 0 371 0 c 2
 89 0 l 1
 161 341 l 1
255 341 m 1
 200 82 l 1
 372 82 l 2
 463 82 539 125 591 205 c 0
 631 268 663 389 663 480 c 0
 663 585 599 647 492 647 c 2
 321 647 l 1
 270 408 l 1
 436 408 l 1
 422 341 l 1
 255 341 l 1
EndSplineSet
EndChar
StartChar: Ntilde
Encoding: 209 209 142
Width: 722
Flags: W
HStem: 0 21G<76 165 540 646> 709 20G<231 335 712 801> 811 70<613 623> 843 70<476 492>
DStem: 231 729 291 591 76 0 165 0 291 591 335 729 540 0 585 131 712 729 801 729 585 131 646 0
Fore
801 729 m 1
 646 0 l 1
 540 0 l 1
 291 591 l 1
 165 0 l 1
 76 0 l 1
 231 729 l 1
 335 729 l 1
 585 131 l 1
 712 729 l 1
 801 729 l 1
669 918 m 1
 722 918 l 1
 701 853 659 811 614 811 c 0
 592 811 575 815 511 837 c 0
 500 841 490 843 484 843 c 0
 465 843 453 837 441 819 c 0
 439 817 437 814 434 810 c 1
 381 810 l 1
 393 845 401 862 413 877 c 0
 429 898 460 913 485 913 c 0
 502 913 519 909 558 896 c 0
 584 887 611 881 621 881 c 0
 641 881 651 889 669 918 c 1
EndSplineSet
EndChar
StartChar: Ograve
Encoding: 210 210 143
Width: 778
Flags: W
HStem: -23 81<390 408> 660 81<520 540>
VStem: 104 96<249 281> 732 96<441 466>
Fore
537 741 m 0
 628 741 707 713 756 664 c 0
 800 619 828 543 828 464 c 0
 828 306 752 144 635 54 c 0
 570 4 485 -23 391 -23 c 0
 306 -23 225 6 177 54 c 0
 131 100 104 177 104 263 c 0
 104 390 157 522 246 614 c 0
 327 699 424 741 537 741 c 0
525 660 m 0
 431 660 342 613 284 533 c 0
 231 460 200 363 200 271 c 0
 200 213 214 164 241 130 c 0
 276 86 339 58 404 58 c 0
 501 58 589 104 647 185 c 0
 700 257 732 355 732 446 c 0
 732 505 718 553 691 588 c 0
 657 632 593 660 525 660 c 0
538 939 m 1
 610 791 l 1
 557 791 l 1
 432 939 l 1
 538 939 l 1
EndSplineSet
KernsSLIF: 84 -54 0 0 86 -48 0 0 89 -71 0 0
EndChar
StartChar: Oacute
Encoding: 211 211 144
Width: 778
Flags: W
HStem: -23 81<390 408> 660 81<520 539>
VStem: 104 96<249 281> 732 96<441 466>
Fore
537 741 m 0
 628 741 707 713 756 664 c 0
 800 619 828 543 828 464 c 0
 828 306 752 144 635 54 c 0
 570 4 485 -23 391 -23 c 0
 306 -23 225 6 177 54 c 0
 131 100 104 177 104 263 c 0
 104 390 157 522 246 614 c 0
 327 699 424 741 537 741 c 0
525 660 m 0
 431 660 342 613 284 533 c 0
 231 460 200 363 200 271 c 0
 200 213 214 164 241 130 c 0
 276 86 339 58 404 58 c 0
 501 58 589 104 647 185 c 0
 700 257 732 355 732 446 c 0
 732 505 718 553 691 588 c 0
 657 632 593 660 525 660 c 0
621 939 m 1
 733 939 l 1
 553 791 l 1
 493 791 l 1
 621 939 l 1
EndSplineSet
KernsSLIF: 65 -43 0 0 84 -54 0 0 86 -48 0 0 87 -25 0 0 89 -71 0 0
EndChar
StartChar: Ocircumflex
Encoding: 212 212 145
Width: 778
Flags: W
HStem: -23 81<390 412> 660 81<520 540>
VStem: 104 96<249 281> 732 96<441 466>
Fore
537 741 m 0
 628 741 707 713 756 664 c 0
 800 619 828 543 828 464 c 0
 828 306 752 144 635 54 c 0
 570 4 485 -23 391 -23 c 0
 306 -23 225 6 177 54 c 0
 131 100 104 177 104 263 c 0
 104 390 157 522 246 614 c 0
 327 699 424 741 537 741 c 0
525 660 m 0
 431 660 342 613 284 533 c 0
 231 460 200 363 200 271 c 0
 200 213 214 164 241 130 c 0
 276 86 339 58 404 58 c 0
 501 58 589 104 647 185 c 0
 700 257 732 355 732 446 c 0
 732 505 718 553 691 588 c 0
 657 632 593 660 525 660 c 0
538 940 m 1
 633 940 l 1
 697 790 l 1
 634 790 l 1
 578 889 l 1
 474 790 l 1
 410 790 l 1
 538 940 l 1
EndSplineSet
KernsSLIF: 84 -54 0 0 86 -48 0 0 89 -71 0 0
EndChar
StartChar: Otilde
Encoding: 213 213 146
Width: 778
Flags: W
HStem: -23 81<390 408> 660 81<508 539> 811 70<637 649> 843 70<504 512>
VStem: 104 96<249 281> 732 96<441 466>
Fore
537 741 m 0
 628 741 707 713 756 664 c 0
 800 619 828 543 828 464 c 0
 828 306 752 144 635 54 c 0
 570 4 485 -23 391 -23 c 0
 306 -23 225 6 177 54 c 0
 131 100 104 177 104 263 c 0
 104 390 157 522 246 614 c 0
 327 699 424 741 537 741 c 0
525 660 m 0
 431 660 342 613 284 533 c 0
 231 460 200 363 200 271 c 0
 200 213 214 164 241 130 c 0
 276 86 339 58 404 58 c 0
 501 58 589 104 647 185 c 0
 700 257 732 355 732 446 c 0
 732 505 718 553 691 588 c 0
 657 632 593 660 525 660 c 0
694 918 m 1
 747 918 l 1
 726 853 684 811 639 811 c 0
 617 811 600 815 536 837 c 0
 525 841 515 843 509 843 c 0
 490 843 478 837 466 819 c 0
 464 817 462 814 459 810 c 1
 406 810 l 1
 418 845 426 862 438 877 c 0
 454 898 485 913 510 913 c 0
 527 913 544 909 583 896 c 0
 609 887 636 881 646 881 c 0
 666 881 676 889 694 918 c 1
EndSplineSet
KernsSLIF: 84 -54 0 0 86 -48 0 0 89 -71 0 0
EndChar
StartChar: Odieresis
Encoding: 214 214 147
Width: 778
Flags: W
HStem: -23 81<390 408> 660 81<520 539> 811 103<446 528 607 689>
VStem: 104 96<249 281> 732 96<441 466>
DStem: 446 914 550 914 424 811 528 811 607 914 711 914 585 811 689 811
Fore
537 741 m 0
 628 741 707 713 756 664 c 0
 800 619 828 543 828 464 c 0
 828 306 752 144 635 54 c 0
 570 4 485 -23 391 -23 c 0
 306 -23 225 6 177 54 c 0
 131 100 104 177 104 263 c 0
 104 390 157 522 246 614 c 0
 327 699 424 741 537 741 c 0
525 660 m 0
 431 660 342 613 284 533 c 0
 231 460 200 363 200 271 c 0
 200 213 214 164 241 130 c 0
 276 86 339 58 404 58 c 0
 501 58 589 104 647 185 c 0
 700 257 732 355 732 446 c 0
 732 505 718 553 691 588 c 0
 657 632 593 660 525 660 c 0
550 914 m 1
 528 811 l 1
 424 811 l 1
 446 914 l 1
 550 914 l 1
711 914 m 1
 689 811 l 1
 585 811 l 1
 607 914 l 1
 711 914 l 1
EndSplineSet
KernsSLIF: 65 -43 0 0 84 -54 0 0 86 -48 0 0 87 -25 0 0 88 -52 0 0 89 -71 0 0
EndChar
StartChar: multiply
Encoding: 215 215 148
Width: 584
Flags: W
DStem: 176 377 236 426 291 231 351 281 291 231 330 181 113 84 152 35 330 181 390 231 446 34 507 84 529 427 568 377 351 281 390 231
Fore
529 427 m 1
 568 377 l 1
 390 231 l 1
 507 84 l 1
 446 34 l 1
 330 181 l 1
 152 35 l 1
 113 84 l 1
 291 231 l 1
 176 377 l 1
 236 426 l 1
 351 281 l 1
 529 427 l 1
EndSplineSet
MinimumDistance: x1,-1 
EndChar
StartChar: Oslash
Encoding: 216 216 149
Width: 778
Flags: W
HStem: -23 81<377 400> 660 81<496 528>
VStem: 88 96<248 296> 716 96<440 472>
DStem: 126 100 158 57 32 15 67 -24 672 592 700 546 202 168 230 123 832 735 867 696 745 657 775 613
Fore
32 15 m 1
 126 100 l 1
 102 141 88 205 88 268 c 0
 88 390 142 522 229 614 c 0
 309 698 407 741 519 741 c 0
 616 741 701 709 745 657 c 1
 832 735 l 1
 867 696 l 1
 775 613 l 1
 800 570 812 519 812 463 c 0
 812 305 734 140 618 54 c 0
 550 4 467 -23 378 -23 c 0
 285 -23 209 5 158 57 c 1
 67 -24 l 1
 32 15 l 1
202 168 m 1
 672 592 l 1
 636 635 575 660 508 660 c 0
 327 660 184 486 184 265 c 0
 184 225 189 198 202 168 c 1
700 546 m 1
 230 123 l 1
 264 83 325 58 391 58 c 0
 484 58 574 106 632 185 c 0
 684 256 716 355 716 443 c 0
 716 485 710 521 700 546 c 1
EndSplineSet
KernsSLIF: 65 -47 0 0
EndChar
StartChar: Ugrave
Encoding: 217 217 150
Width: 722
Flags: HW
Fore
514 939 m 1
 586 791 l 1
 532 791 l 1
 408 939 l 1
 514 939 l 1
706 729 m 1
 800 729 l 1
 691 217 l 2
 660 71 531 -23 363 -23 c 0
 286 -23 220 -2 179 35 c 0
 147 64 124 114 124 155 c 0
 124 171 131 217 138 251 c 1
 240 729 l 1
 334 729 l 1
 225 217 l 2
 222 202 220 187 220 174 c 0
 220 104 285 58 381 58 c 0
 494 58 576 118 597 217 c 2
 706 729 l 1
EndSplineSet
KernsSLIF: 65 -45 0 0
EndChar
StartChar: Uacute
Encoding: 218 218 151
Width: 722
Flags: W
HStem: -23 81<362 383> 709 20G<240 334 706 800>
VStem: 124.895 95.2169<155 174>
DStem: 240 729 334 729 138 251 225 217 706 729 800 729 597 217 691 217
Fore
591 939 m 1
 703 939 l 1
 523 791 l 1
 463 791 l 1
 591 939 l 1
706 729 m 1
 800 729 l 1
 691 217 l 2
 660 71 531 -23 363 -23 c 0
 286 -23 220 -2 179 35 c 0
 147 64 124 114 124 155 c 0
 124 171 131 217 138 251 c 1
 240 729 l 1
 334 729 l 1
 225 217 l 2
 222 202 220 187 220 174 c 0
 220 104 285 58 381 58 c 0
 494 58 576 118 597 217 c 2
 706 729 l 1
EndSplineSet
KernsSLIF: 44 -35 0 0 46 -32 0 0 65 -45 0 0 109 -17 0 0 110 -16 0 0 112 -8 0 0 114 -16 0 0
EndChar
StartChar: Ucircumflex
Encoding: 219 219 152
Width: 722
Flags: W
HStem: -23 81<362 391> 709 20G<240 334 706 800>
VStem: 124.895 95.2169<155 174>
DStem: 240 729 334 729 138 251 225 217 706 729 800 729 597 217 691 217
Fore
517 940 m 1
 611 940 l 1
 676 790 l 1
 612 790 l 1
 556 889 l 1
 453 790 l 1
 389 790 l 1
 517 940 l 1
706 729 m 1
 800 729 l 1
 691 217 l 2
 660 71 531 -23 363 -23 c 0
 286 -23 220 -2 179 35 c 0
 147 64 124 114 124 155 c 0
 124 171 131 217 138 251 c 1
 240 729 l 1
 334 729 l 1
 225 217 l 2
 222 202 220 187 220 174 c 0
 220 104 285 58 381 58 c 0
 494 58 576 118 597 217 c 2
 706 729 l 1
EndSplineSet
KernsSLIF: 65 -45 0 0
EndChar
StartChar: Udieresis
Encoding: 220 220 153
Width: 722
Flags: W
HStem: -23 81<362 383> 709 20G<240 334 706 800> 811 103<428 509 589 670>
VStem: 124.895 95.2169<155 174>
DStem: 240 729 334 729 138 251 225 217 428 914 532 914 406 811 509 811 589 914 693 914 567 811 670 811 706 729 800 729 597 217 691 217
Fore
532 914 m 1
 509 811 l 1
 406 811 l 1
 428 914 l 1
 532 914 l 1
693 914 m 1
 670 811 l 1
 567 811 l 1
 589 914 l 1
 693 914 l 1
706 729 m 1
 800 729 l 1
 691 217 l 2
 660 71 531 -23 363 -23 c 0
 286 -23 220 -2 179 35 c 0
 147 64 124 114 124 155 c 0
 124 171 131 217 138 251 c 1
 240 729 l 1
 334 729 l 1
 225 217 l 2
 222 202 220 187 220 174 c 0
 220 104 285 58 381 58 c 0
 494 58 576 118 597 217 c 2
 706 729 l 1
EndSplineSet
KernsSLIF: 44 -35 0 0 46 -32 0 0 65 -44 0 0 98 -8 0 0 109 -17 0 0 110 -16 0 0 112 -8 0 0 114 -16 0 0
EndChar
StartChar: Yacute
Encoding: 221 221 154
Width: 667
Flags: W
HStem: 0 21G<293 387> 709 20G<168 280 705 816>
DStem: 354 286 448 286 293 0 387 0 705 729 816 729 416 372 448 286
Fore
448 286 m 1
 387 0 l 1
 293 0 l 1
 354 286 l 1
 168 729 l 1
 280 729 l 1
 416 372 l 1
 705 729 l 1
 816 729 l 1
 448 286 l 1
564 939 m 1
 676 939 l 1
 496 791 l 1
 436 791 l 1
 564 939 l 1
EndSplineSet
EndChar
StartChar: Thorn
Encoding: 222 222 155
Width: 667
Flags: W
HStem: 0 21G<91 185> 191 82<244 459> 529 82<316 507> 709 20G<246 340>
VStem: 612 96<431 448>
DStem: 246 729 340 729 91 0 315 611 246 729 297 529 91 0 243 273 246 729 226 191 91 0 185 0
Fore
226 191 m 1
 185 0 l 1
 91 0 l 1
 246 729 l 1
 340 729 l 1
 315 611 l 1
 523 611 l 2
 645 611 708 556 708 450 c 0
 708 369 672 293 609 243 c 0
 564 207 517 191 454 191 c 2
 226 191 l 1
243 273 m 1
 437 273 l 2
 501 273 544 292 577 334 c 0
 600 364 612 397 612 432 c 0
 612 495 570 529 492 529 c 2
 297 529 l 1
 243 273 l 1
EndSplineSet
EndChar
StartChar: germandbls
Encoding: 223 223 156
Width: 611
Flags: W
HStem: -15 79<294 328> 0 21G<55 143> 354 73<373.125 400.15> 652 76<422 444>
VStem: 518 94<252 269> 555 91<563 585>
DStem: 168 532 252 510 55 0 143 0
Fore
373 427 m 1
 493 427 539 481 552 540 c 0
 554 548 555 556 555 564 c 0
 555 616 512 652 424 652 c 0
 311 652 270 595 252 510 c 2
 143 0 l 1
 55 0 l 1
 168 532 l 2
 193 647 291 728 441 728 c 0
 571 728 646 673 646 585 c 0
 646 573 644 561 642 548 c 0
 621 451 554 415 528 400 c 1
 586 383 612 321 612 267 c 0
 612 255 611 244 609 234 c 0
 571 57 447 -15 304 -15 c 0
 275 -15 266 -11 253 -8 c 1
 268 67 l 1
 283 65 298 64 312 64 c 0
 421 64 492 113 514 214 c 0
 517 229 518 242 518 254 c 0
 518 328 461 354 373 354 c 2
 357 354 l 1
 373 427 l 1
EndSplineSet
Back
376 349 m 1
 394 431 l 1
 492 430 567 488 567 565 c 0
 567 619 530 652 468 652 c 0
 391 652 340 612 324 538 c 1
 210 0 l 1
 126 0 l 1
 240 538 l 2
 254 604 275 639 321 676 c 0
 367 713 414 729 473 729 c 0
 586 729 655 673 655 582 c 0
 655 502 612 437 535 403 c 1
 592 378 619 337 619 278 c 0
 619 211 592 134 552 82 c 0
 497 11 422 -23 324 -23 c 0
 311 -23 306 -22 298 -19 c 1
 315 59 l 1
 325 59 l 2
 334 58 341 58 344 58 c 0
 448 58 531 144 531 251 c 0
 531 317 491 349 407 349 c 2
 397 349 l 1
 376 349 l 1
EndSplineSet
EndChar
StartChar: agrave
Encoding: 224 224 157
Width: 556
Flags: W
HStem: -22.5409 72.3163<209 242> 462 76.3338<369 391> 720 20G<285 391>
VStem: 65 88<104 121> 477.989 90.0112<398 426>
DStem: 451 258 562 389 431 164 498 88
Fore
552 51 m 1
 539 -14 l 1
 533 -15 527 -16 525 -17 c 0
 500 -23 497 -23 486 -23 c 0
 438 -23 410 2 410 43 c 2
 410 47 l 1
 410 54 l 1
 369 18 354 8 322 -3 c 0
 286 -16 244 -23 209 -23 c 0
 119 -23 65 25 65 105 c 0
 65 163 95 216 147 249 c 0
 196 280 238 290 372 302 c 0
 445 309 464 320 473 361 c 1
 476 379 l 1
 477 387 478 394 478 398 c 0
 478 435 432 462 372 462 c 0
 329 462 287 447 265 425 c 0
 251 411 244 397 235 369 c 1
 151 369 l 1
 170 480 255 539 394 539 c 0
 499 539 568 494 568 426 c 0
 568 416 568 416 562 389 c 1
 498 88 l 1
 497 85 497 82 497 78 c 0
 497 58 509 49 535 49 c 0
 539 49 543 49 552 51 c 1
431 164 m 2
 451 258 l 1
 407 243 399 242 305 229 c 0
 256 222 226 214 202 199 c 0
 172 181 153 148 153 115 c 0
 153 73 185 49 242 49 c 0
 330 49 418 102 431 164 c 2
391 740 m 1
 463 592 l 1
 410 592 l 1
 285 740 l 1
 391 740 l 1
EndSplineSet
KernsSLIF: 118 -26 0 0 119 -16 0 0 121 -33 0 0
EndChar
StartChar: aacute
Encoding: 225 225 158
Width: 556
Flags: W
HStem: -22.5409 72.3163<209 242> 462 76.3338<369 391> 720 20G<458 570>
VStem: 65 88<104 121> 477.989 90.0112<398 426>
DStem: 451 258 562 389 431 164 498 88
Fore
552 51 m 1
 539 -14 l 1
 533 -15 527 -16 525 -17 c 0
 500 -23 497 -23 486 -23 c 0
 438 -23 410 2 410 43 c 2
 410 47 l 1
 410 54 l 1
 369 18 354 8 322 -3 c 0
 286 -16 244 -23 209 -23 c 0
 119 -23 65 25 65 105 c 0
 65 163 95 216 147 249 c 0
 196 280 238 290 372 302 c 0
 445 309 464 320 473 361 c 1
 476 379 l 1
 477 387 478 394 478 398 c 0
 478 435 432 462 372 462 c 0
 329 462 287 447 265 425 c 0
 251 411 244 397 235 369 c 1
 151 369 l 1
 170 480 255 539 394 539 c 0
 499 539 568 494 568 426 c 0
 568 416 568 416 562 389 c 1
 498 88 l 1
 497 85 497 82 497 78 c 0
 497 58 509 49 535 49 c 0
 539 49 543 49 552 51 c 1
431 164 m 2
 451 258 l 1
 407 243 399 242 305 229 c 0
 256 222 226 214 202 199 c 0
 172 181 153 148 153 115 c 0
 153 73 185 49 242 49 c 0
 330 49 418 102 431 164 c 2
458 740 m 1
 570 740 l 1
 390 592 l 1
 330 592 l 1
 458 740 l 1
EndSplineSet
KernsSLIF: 118 -26 0 0 119 -16 0 0 121 -33 0 0
EndChar
StartChar: acircumflex
Encoding: 226 226 159
Width: 556
Flags: W
HStem: -22.5409 72.3163<209 242> 462 76.3338<369 385> 721 20G<393 488>
VStem: 65 88<104 121> 477.989 90.0112<398 426>
DStem: 451 258 562 389 431 164 498 88
Fore
552 51 m 1
 539 -14 l 1
 533 -15 527 -16 525 -17 c 0
 500 -23 497 -23 486 -23 c 0
 438 -23 410 2 410 43 c 2
 410 47 l 1
 410 54 l 1
 369 18 354 8 322 -3 c 0
 286 -16 244 -23 209 -23 c 0
 119 -23 65 25 65 105 c 0
 65 163 95 216 147 249 c 0
 196 280 238 290 372 302 c 0
 445 309 464 320 473 361 c 1
 476 379 l 1
 477 387 478 394 478 398 c 0
 478 435 432 462 372 462 c 0
 329 462 287 447 265 425 c 0
 251 411 244 397 235 369 c 1
 151 369 l 1
 170 480 255 539 394 539 c 0
 499 539 568 494 568 426 c 0
 568 416 568 416 562 389 c 1
 498 88 l 1
 497 85 497 82 497 78 c 0
 497 58 509 49 535 49 c 0
 539 49 543 49 552 51 c 1
431 164 m 2
 451 258 l 1
 407 243 399 242 305 229 c 0
 256 222 226 214 202 199 c 0
 172 181 153 148 153 115 c 0
 153 73 185 49 242 49 c 0
 330 49 418 102 431 164 c 2
393 741 m 1
 488 741 l 1
 552 591 l 1
 489 591 l 1
 433 690 l 1
 329 591 l 1
 265 591 l 1
 393 741 l 1
EndSplineSet
EndChar
StartChar: atilde
Encoding: 227 227 160
Width: 556
Flags: W
HStem: -22.5409 72.3163<209 242> 462 76.3338<369 385> 612 70<473 487> 644 70<337 353>
VStem: 65 88<104 121> 477.989 90.0112<398 426>
DStem: 451 258 562 389 431 164 498 88
Fore
552 51 m 1
 539 -14 l 1
 533 -15 527 -16 525 -17 c 0
 500 -23 497 -23 486 -23 c 0
 438 -23 410 2 410 43 c 2
 410 47 l 1
 410 54 l 1
 369 18 354 8 322 -3 c 0
 286 -16 244 -23 209 -23 c 0
 119 -23 65 25 65 105 c 0
 65 163 95 216 147 249 c 0
 196 280 238 290 372 302 c 0
 445 309 464 320 473 361 c 1
 476 379 l 1
 477 387 478 394 478 398 c 0
 478 435 432 462 372 462 c 0
 329 462 287 447 265 425 c 0
 251 411 244 397 235 369 c 1
 151 369 l 1
 170 480 255 539 394 539 c 0
 499 539 568 494 568 426 c 0
 568 416 568 416 562 389 c 1
 498 88 l 1
 497 85 497 82 497 78 c 0
 497 58 509 49 535 49 c 0
 539 49 543 49 552 51 c 1
431 164 m 2
 451 258 l 1
 407 243 399 242 305 229 c 0
 256 222 226 214 202 199 c 0
 172 181 153 148 153 115 c 0
 153 73 185 49 242 49 c 0
 330 49 418 102 431 164 c 2
530 719 m 1
 583 719 l 1
 562 654 520 612 475 612 c 0
 453 612 436 616 372 638 c 0
 361 642 351 644 345 644 c 0
 326 644 314 638 302 620 c 0
 300 618 298 615 295 611 c 1
 242 611 l 1
 254 646 262 663 274 678 c 0
 290 699 321 714 346 714 c 0
 363 714 380 710 419 697 c 0
 445 688 472 682 482 682 c 0
 502 682 512 690 530 719 c 1
EndSplineSet
EndChar
StartChar: adieresis
Encoding: 228 228 161
Width: 556
Flags: W
HStem: -22.5409 72.3163<209 242> 462 76.3338<369 385> 612 103<299 381 460 542>
VStem: 65 88<104 121> 477.989 90.0112<398 426>
DStem: 299 715 403 715 277 612 381 612 451 258 562 389 431 164 498 88 460 715 564 715 438 612 542 612
Fore
552 51 m 1
 539 -14 l 1
 533 -15 527 -16 525 -17 c 0
 500 -23 497 -23 486 -23 c 0
 438 -23 410 2 410 43 c 2
 410 47 l 1
 410 54 l 1
 369 18 354 8 322 -3 c 0
 286 -16 244 -23 209 -23 c 0
 119 -23 65 25 65 105 c 0
 65 163 95 216 147 249 c 0
 196 280 238 290 372 302 c 0
 445 309 464 320 473 361 c 1
 476 379 l 1
 477 387 478 394 478 398 c 0
 478 435 432 462 372 462 c 0
 329 462 287 447 265 425 c 0
 251 411 244 397 235 369 c 1
 151 369 l 1
 170 480 255 539 394 539 c 0
 499 539 568 494 568 426 c 0
 568 416 568 416 562 389 c 1
 498 88 l 1
 497 85 497 82 497 78 c 0
 497 58 509 49 535 49 c 0
 539 49 543 49 552 51 c 1
431 164 m 2
 451 258 l 1
 407 243 399 242 305 229 c 0
 256 222 226 214 202 199 c 0
 172 181 153 148 153 115 c 0
 153 73 185 49 242 49 c 0
 330 49 418 102 431 164 c 2
403 715 m 1
 381 612 l 1
 277 612 l 1
 299 715 l 1
 403 715 l 1
564 715 m 1
 542 612 l 1
 438 612 l 1
 460 715 l 1
 564 715 l 1
EndSplineSet
KernsSLIF: 118 -26 0 0 119 -16 0 0 121 -33 0 0
EndChar
StartChar: aring
Encoding: 229 229 162
Width: 556
Flags: W
HStem: -22.5409 72.3163<209 242> 462 76.3338<369 385> 579 44<406 417> 710 44<430 442>
VStem: 65 88<104 121> 333 46<649 660> 468 44.0744<674 681> 477.989 90.0112<398 426>
DStem: 451 258 562 389 431 164 498 88
Fore
552 51 m 1
 539 -14 l 1
 533 -15 527 -16 525 -17 c 0
 500 -23 497 -23 486 -23 c 0
 438 -23 410 2 410 43 c 2
 410 47 l 1
 410 54 l 1
 369 18 354 8 322 -3 c 0
 286 -16 244 -23 209 -23 c 0
 119 -23 65 25 65 105 c 0
 65 163 95 216 147 249 c 0
 196 280 238 290 372 302 c 0
 445 309 464 320 473 361 c 1
 476 379 l 1
 477 387 478 394 478 398 c 0
 478 435 432 462 372 462 c 0
 329 462 287 447 265 425 c 0
 251 411 244 397 235 369 c 1
 151 369 l 1
 170 480 255 539 394 539 c 0
 499 539 568 494 568 426 c 0
 568 416 568 416 562 389 c 1
 498 88 l 1
 497 85 497 82 497 78 c 0
 497 58 509 49 535 49 c 0
 539 49 543 49 552 51 c 1
431 164 m 2
 451 258 l 1
 407 243 399 242 305 229 c 0
 256 222 226 214 202 199 c 0
 172 181 153 148 153 115 c 0
 153 73 185 49 242 49 c 0
 330 49 418 102 431 164 c 2
441 754 m 0
 482 754 513 725 513 687 c 0
 513 631 461 579 404 579 c 0
 364 579 333 610 333 649 c 0
 333 702 387 754 441 754 c 0
434 710 m 0
 406 710 379 684 379 658 c 0
 379 637 394 623 414 623 c 0
 441 623 468 649 468 675 c 0
 468 695 453 710 434 710 c 0
EndSplineSet
KernsSLIF: 118 -26 0 0 119 -16 0 0 121 -33 0 0
EndChar
StartChar: ae
Encoding: 230 230 163
Width: 889
Flags: W
HStem: -23 77<615 635> -22.4746 72.2874<201 237> 234 72<531 824> 462 77<362 388 711 729>
VStem: 59 88<104 121> 826.997 88.0026<339 370>
Fore
225 369 m 1
 141 369 l 1
 157 427 170 454 194 478 c 0
 235 517 304 539 387 539 c 0
 451 539 486 528 522 499 c 0
 541 483 543 481 546 474 c 1
 591 514 660 539 728 539 c 0
 830 539 915 462 915 370 c 0
 915 342 910 299 901 251 c 2
 898 234 l 1
 512 234 l 1
 508 216 507 204 507 181 c 2
 507 169 l 1
 507 163 l 2
 507 135 524 101 550 79 c 0
 570 62 597 54 632 54 c 0
 698 54 751 90 787 159 c 1
 871 159 l 1
 839 50 737 -23 616 -23 c 0
 536 -23 481 9 442 79 c 1
 375 14 288 -23 201 -23 c 128
 114 -23 59 27 59 105 c 0
 59 163 90 217 141 249 c 0
 191 279 234 289 363 300 c 0
 435 307 453 318 463 361 c 1
 468 386 l 1
 469 393 470 399 470 405 c 0
 470 440 430 462 366 462 c 0
 287 462 246 435 225 369 c 1
421 164 m 2
 441 257 l 1
 404 244 398 243 299 229 c 0
 247 222 220 214 196 199 c 0
 166 180 147 148 147 115 c 0
 147 72 179 49 237 49 c 0
 321 49 408 104 421 164 c 2
530 306 m 1
 824 306 l 1
 826 321 827 328 827 339 c 0
 827 414 783 462 712 462 c 0
 629 462 561 404 530 306 c 1
EndSplineSet
KernsSLIF: 118 -26 0 0 119 -15 0 0 121 -32 0 0
EndChar
StartChar: ccedilla
Encoding: 231 231 164
Width: 500
Flags: W
HStem: -214 43<188 213> 462 77<364 383>
VStem: 76 88<169 186> 263 77.1123<-118 -114> 467.736 85.2833<370 393>
DStem: 230 -22 271 -23 192 -92 253 -56
Fore
271 -23 m 1
 253 -56 l 1
 266 -54 270 -54 274 -54 c 0
 311 -54 341 -77 341 -105 c 0
 341 -168 280 -214 196 -214 c 0
 158 -214 129 -206 78 -180 c 1
 106 -142 l 1
 147 -163 172 -171 200 -171 c 0
 237 -171 263 -148 263 -116 c 0
 263 -104 248 -94 232 -94 c 0
 227 -94 227 -94 212 -97 c 2
 205 -98 l 1
 192 -92 l 1
 230 -22 l 1
 183 -13 163 -4 139 19 c 0
 100 55 76 112 76 170 c 0
 76 262 110 371 157 432 c 0
 210 501 291 539 381 539 c 0
 438 539 479 524 510 492 c 0
 536 465 554 425 554 393 c 0
 554 390 553 379 552 363 c 2
 551 348 l 1
 467 348 l 1
 468 357 468 364 468 370 c 0
 468 427 429 462 366 462 c 0
 305 462 255 432 218 373 c 0
 185 321 164 245 164 181 c 0
 164 103 208 54 277 54 c 0
 349 54 404 98 434 180 c 1
 518 180 l 1
 486 51 400 -19 271 -23 c 1
EndSplineSet
EndChar
StartChar: egrave
Encoding: 232 232 165
Width: 556
Flags: W
HStem: -23 77<278 298> 234 72<196 489> 462 77<372 391> 720 20G<278 384>
VStem: 84 88<169 190> 491.902 87.17<339 368>
Fore
563 234 m 1
 177 234 l 1
 173 219 172 209 172 188 c 0
 172 103 217 54 296 54 c 0
 363 54 416 90 452 159 c 1
 536 159 l 1
 505 51 402 -23 282 -23 c 0
 225 -23 181 -7 146 27 c 0
 107 64 84 119 84 173 c 0
 84 254 121 368 168 431 c 0
 218 498 302 539 389 539 c 0
 497 539 580 464 580 368 c 0
 580 341 575 299 566 251 c 2
 563 234 l 1
195 306 m 1
 489 306 l 1
 491 322 492 329 492 339 c 0
 492 414 447 462 376 462 c 0
 295 462 221 398 195 306 c 1
384 740 m 1
 456 592 l 1
 403 592 l 1
 278 740 l 1
 384 740 l 1
EndSplineSet
EndChar
StartChar: eacute
Encoding: 233 233 166
Width: 556
Flags: W
HStem: -23 77<281 298> 234 72<196 489> 462 77<372 391> 720 20G<468 580>
VStem: 84 88<169 190> 491.902 87.17<339 368>
Fore
563 234 m 1
 177 234 l 1
 173 219 172 209 172 188 c 0
 172 103 217 54 296 54 c 0
 363 54 416 90 452 159 c 1
 536 159 l 1
 505 51 402 -23 282 -23 c 0
 225 -23 181 -7 146 27 c 0
 107 64 84 119 84 173 c 0
 84 254 121 368 168 431 c 0
 218 498 302 539 389 539 c 0
 497 539 580 464 580 368 c 0
 580 341 575 299 566 251 c 2
 563 234 l 1
195 306 m 1
 489 306 l 1
 491 322 492 329 492 339 c 0
 492 414 447 462 376 462 c 0
 295 462 221 398 195 306 c 1
468 740 m 1
 580 740 l 1
 400 592 l 1
 340 592 l 1
 468 740 l 1
EndSplineSet
KernsSLIF: 118 -26 0 0 119 -16 0 0 121 -33 0 0
EndChar
StartChar: ecircumflex
Encoding: 234 234 167
Width: 556
Flags: W
HStem: -23 77<281 298> 234 72<196 489> 462 77<372 391> 721 20G<389 484>
VStem: 84 88<169 190> 491.902 87.17<339 368>
Fore
563 234 m 1
 177 234 l 1
 173 219 172 209 172 188 c 0
 172 103 217 54 296 54 c 0
 363 54 416 90 452 159 c 1
 536 159 l 1
 505 51 402 -23 282 -23 c 0
 225 -23 181 -7 146 27 c 0
 107 64 84 119 84 173 c 0
 84 254 121 368 168 431 c 0
 218 498 302 539 389 539 c 0
 497 539 580 464 580 368 c 0
 580 341 575 299 566 251 c 2
 563 234 l 1
195 306 m 1
 489 306 l 1
 491 322 492 329 492 339 c 0
 492 414 447 462 376 462 c 0
 295 462 221 398 195 306 c 1
389 741 m 1
 484 741 l 1
 548 591 l 1
 485 591 l 1
 429 690 l 1
 325 591 l 1
 261 591 l 1
 389 741 l 1
EndSplineSet
KernsSLIF: 118 -26 0 0 119 -16 0 0 121 -33 0 0
EndChar
StartChar: edieresis
Encoding: 235 235 168
Width: 556
Flags: W
HStem: -23 77<281 298> 234 72<196 489> 462 77<372 391> 612 103<296 378 457 539>
VStem: 84 88<169 190> 491.902 87.17<339 368>
DStem: 296 715 400 715 274 612 378 612 457 715 561 715 435 612 539 612
Fore
563 234 m 1
 177 234 l 1
 173 219 172 209 172 188 c 0
 172 103 217 54 296 54 c 0
 363 54 416 90 452 159 c 1
 536 159 l 1
 505 51 402 -23 282 -23 c 0
 225 -23 181 -7 146 27 c 0
 107 64 84 119 84 173 c 0
 84 254 121 368 168 431 c 0
 218 498 302 539 389 539 c 0
 497 539 580 464 580 368 c 0
 580 341 575 299 566 251 c 2
 563 234 l 1
195 306 m 1
 489 306 l 1
 491 322 492 329 492 339 c 0
 492 414 447 462 376 462 c 0
 295 462 221 398 195 306 c 1
400 715 m 1
 378 612 l 1
 274 612 l 1
 296 715 l 1
 400 715 l 1
561 715 m 1
 539 612 l 1
 435 612 l 1
 457 715 l 1
 561 715 l 1
EndSplineSet
EndChar
StartChar: igrave
Encoding: 236 236 169
Width: 278
Flags: W
HStem: 0 21G<94 178> 507 20G<206 290> 720 20G<152 258>
DStem: 206 527 290 527 94 0 178 0
Fore
290 527 m 1
 178 0 l 1
 94 0 l 1
 206 527 l 1
 290 527 l 1
258 740 m 1
 330 592 l 1
 277 592 l 1
 152 740 l 1
 258 740 l 1
EndSplineSet
EndChar
StartChar: iacute
Encoding: 237 237 170
Width: 278
Flags: W
HStem: 0 21G<94 178> 507 20G<206 290> 720 20G<319 431>
DStem: 206 527 290 527 94 0 178 0
Fore
290 527 m 1
 178 0 l 1
 94 0 l 1
 206 527 l 1
 290 527 l 1
319 740 m 1
 431 740 l 1
 251 592 l 1
 191 592 l 1
 319 740 l 1
EndSplineSet
EndChar
StartChar: icircumflex
Encoding: 238 238 171
Width: 278
Flags: W
HStem: 0 21G<94 178> 507 20G<206 290> 721 20G<247 342>
DStem: 206 527 290 527 94 0 178 0
Fore
290 527 m 1
 178 0 l 1
 94 0 l 1
 206 527 l 1
 290 527 l 1
247 741 m 1
 342 741 l 1
 406 591 l 1
 343 591 l 1
 287 690 l 1
 183 591 l 1
 119 591 l 1
 247 741 l 1
EndSplineSet
EndChar
StartChar: idieresis
Encoding: 239 239 172
Width: 278
Flags: W
HStem: 0 21G<94 178> 507 20G<206 290> 605 103<154 236 315 397>
DStem: 154 708 258 708 132 605 236 605 206 527 290 527 94 0 178 0 315 708 419 708 293 605 397 605
Fore
290 527 m 1
 178 0 l 1
 94 0 l 1
 206 527 l 1
 290 527 l 1
258 708 m 1
 236 605 l 1
 132 605 l 1
 154 708 l 1
 258 708 l 1
419 708 m 1
 397 605 l 1
 293 605 l 1
 315 708 l 1
 419 708 l 1
EndSplineSet
EndChar
StartChar: eth
Encoding: 240 240 173
Width: 556
Flags: W
HStem: -23 77<272 297> 462 72<353 384>
VStem: 80 88<164 186> 488 88<329 349>
DStem: 308 644 351 609 219 603 251 564 476 719 515 681 377 676 420 640
Fore
251 564 m 1
 219 603 l 1
 308 644 l 1
 299 652 291 659 288 661 c 0
 286 663 276 669 261 679 c 0
 257 681 245 689 233 698 c 1
 275 743 l 1
 297 729 l 2
 316 718 328 710 332 707 c 0
 345 698 357 690 369 681 c 0
 370 681 373 679 377 676 c 1
 476 719 l 1
 515 681 l 1
 420 640 l 1
 525 550 576 454 576 347 c 0
 576 265 542 155 497 93 c 0
 443 17 364 -23 273 -23 c 0
 215 -23 168 -6 135 26 c 0
 101 60 80 111 80 164 c 0
 80 248 113 358 158 423 c 0
 206 493 284 534 369 534 c 0
 395 534 407 531 435 517 c 1
 403 559 387 576 351 609 c 1
 251 564 l 1
371 462 m 0
 305 462 249 425 212 357 c 0
 185 307 168 241 168 184 c 0
 168 104 212 54 283 54 c 0
 352 54 406 90 444 159 c 0
 471 209 488 274 488 333 c 0
 488 414 445 462 371 462 c 0
EndSplineSet
EndChar
StartChar: ntilde
Encoding: 241 241 174
Width: 556
Flags: W
HStem: 0 21G<70 154 406 490> 466.995 72.0047<399 438> 504 20G<181 257> 612 70<479 492> 644 70<342 358>
VStem: 485.994 88.0059<386 414>
DStem: 181 524 215 289 70 0 154 0 480 349 570 376 406 0 490 0
Fore
181 524 m 1
 257 524 l 1
 244 459 l 1
 296 512 362 539 438 539 c 0
 521 539 574 490 574 414 c 0
 574 401 573 389 570 376 c 1
 490 0 l 1
 406 0 l 1
 480 349 l 1
 484 365 486 380 486 386 c 0
 486 432 449 467 399 467 c 0
 309 467 239 399 215 289 c 1
 154 0 l 1
 70 0 l 1
 181 524 l 1
536 719 m 1
 589 719 l 1
 568 654 526 612 481 612 c 0
 459 612 442 616 378 638 c 0
 367 642 357 644 351 644 c 0
 332 644 320 638 308 620 c 0
 306 618 304 615 301 611 c 1
 248 611 l 1
 260 646 268 663 280 678 c 0
 296 699 327 714 352 714 c 0
 369 714 386 710 425 697 c 0
 451 688 478 682 488 682 c 0
 508 682 518 690 536 719 c 1
EndSplineSet
EndChar
StartChar: ograve
Encoding: 242 242 175
Width: 556
Flags: W
HStem: -23 77<268 288> 462 77<368 386> 720 20G<274 380>
VStem: 80 88<164 186> 488 88<329 353>
Fore
384 539 m 0
 442 539 487 523 521 490 c 0
 556 456 576 405 576 352 c 0
 576 265 543 156 497 93 c 0
 441 16 365 -23 269 -23 c 0
 157 -23 80 53 80 164 c 0
 80 249 113 359 158 423 c 0
 209 497 291 539 384 539 c 0
371 462 m 0
 305 462 249 425 212 357 c 0
 185 307 168 241 168 184 c 0
 168 104 212 54 283 54 c 0
 352 54 406 90 444 159 c 0
 471 209 488 274 488 333 c 0
 488 414 445 462 371 462 c 0
380 740 m 1
 452 592 l 1
 399 592 l 1
 274 740 l 1
 380 740 l 1
EndSplineSet
KernsSLIF: 118 -27 0 0 119 -16 0 0 121 -34 0 0
EndChar
StartChar: oacute
Encoding: 243 243 176
Width: 556
Flags: W
HStem: -23 77<268 288> 462 77<368 386> 720 20G<464 576>
VStem: 80 88<164 186> 488 88<329 353>
Fore
384 539 m 0
 442 539 487 523 521 490 c 0
 556 456 576 405 576 352 c 0
 576 265 543 156 497 93 c 0
 441 16 365 -23 269 -23 c 0
 157 -23 80 53 80 164 c 0
 80 249 113 359 158 423 c 0
 209 497 291 539 384 539 c 0
371 462 m 0
 305 462 249 425 212 357 c 0
 185 307 168 241 168 184 c 0
 168 104 212 54 283 54 c 0
 352 54 406 90 444 159 c 0
 471 209 488 274 488 333 c 0
 488 414 445 462 371 462 c 0
464 740 m 1
 576 740 l 1
 396 592 l 1
 336 592 l 1
 464 740 l 1
EndSplineSet
KernsSLIF: 118 -27 0 0 119 -16 0 0 121 -34 0 0
EndChar
StartChar: ocircumflex
Encoding: 244 244 177
Width: 556
Flags: W
HStem: -23 77<268 288> 462 77<368 386> 721 20G<383 478>
VStem: 80 88<164 186> 488 88<329 353>
Fore
384 539 m 0
 442 539 487 523 521 490 c 0
 556 456 576 405 576 352 c 0
 576 265 543 156 497 93 c 0
 441 16 365 -23 269 -23 c 0
 157 -23 80 53 80 164 c 0
 80 249 113 359 158 423 c 0
 209 497 291 539 384 539 c 0
371 462 m 0
 305 462 249 425 212 357 c 0
 185 307 168 241 168 184 c 0
 168 104 212 54 283 54 c 0
 352 54 406 90 444 159 c 0
 471 209 488 274 488 333 c 0
 488 414 445 462 371 462 c 0
383 741 m 1
 478 741 l 1
 542 591 l 1
 479 591 l 1
 423 690 l 1
 319 591 l 1
 255 591 l 1
 383 741 l 1
EndSplineSet
KernsSLIF: 116 -17 0 0
EndChar
StartChar: otilde
Encoding: 245 245 178
Width: 556
Flags: W
HStem: -23 77<268 295> 462 77<368 386> 612 70<474 487> 644 70<336 352>
VStem: 80 88<164 186> 488 88<329 353>
Fore
384 539 m 0
 442 539 487 523 521 490 c 0
 556 456 576 405 576 352 c 0
 576 265 543 156 497 93 c 0
 441 16 365 -23 269 -23 c 0
 157 -23 80 53 80 164 c 0
 80 249 113 359 158 423 c 0
 209 497 291 539 384 539 c 0
371 462 m 0
 305 462 249 425 212 357 c 0
 185 307 168 241 168 184 c 0
 168 104 212 54 283 54 c 0
 352 54 406 90 444 159 c 0
 471 209 488 274 488 333 c 0
 488 414 445 462 371 462 c 0
530 719 m 1
 583 719 l 1
 562 654 520 612 475 612 c 0
 453 612 436 616 372 638 c 0
 361 642 351 644 345 644 c 0
 326 644 314 638 302 620 c 0
 300 618 298 615 295 611 c 1
 242 611 l 1
 254 646 262 663 274 678 c 0
 290 699 321 714 346 714 c 0
 363 714 380 710 419 697 c 0
 445 688 472 682 482 682 c 0
 502 682 512 690 530 719 c 1
EndSplineSet
EndChar
StartChar: odieresis
Encoding: 246 246 179
Width: 556
Flags: W
HStem: -23 77<268 293> 462 77<368 386> 612 103<291 373 452 534>
VStem: 80 88<164 186> 488 88<329 353>
DStem: 291 715 395 715 269 612 373 612 452 715 556 715 430 612 534 612
Fore
384 539 m 0
 442 539 487 523 521 490 c 0
 556 456 576 405 576 352 c 0
 576 265 543 156 497 93 c 0
 441 16 365 -23 269 -23 c 0
 157 -23 80 53 80 164 c 0
 80 249 113 359 158 423 c 0
 209 497 291 539 384 539 c 0
371 462 m 0
 305 462 249 425 212 357 c 0
 185 307 168 241 168 184 c 0
 168 104 212 54 283 54 c 0
 352 54 406 90 444 159 c 0
 471 209 488 274 488 333 c 0
 488 414 445 462 371 462 c 0
395 715 m 1
 373 612 l 1
 269 612 l 1
 291 715 l 1
 395 715 l 1
556 715 m 1
 534 612 l 1
 430 612 l 1
 452 715 l 1
 556 715 l 1
EndSplineSet
KernsSLIF: 116 -17 0 0 118 -27 0 0 119 -16 0 0 120 -35 0 0 121 -34 0 0
EndChar
StartChar: divide
Encoding: 247 247 180
Width: 584
Flags: W
HStem: 0 104<300 307> 197 72<107 576> 358 104<369.088 381>
VStem: 253 104<48 54> 327 104<408 416>
Fore
591 269 m 1
 576 197 l 1
 92 197 l 1
 107 269 l 1
 591 269 l 1
305 104 m 0
 334 104 357 81 357 51 c 0
 357 24 333 0 305 0 c 128
 277 0 253 24 253 52 c 128
 253 80 277 104 305 104 c 0
379 462 m 0
 408 462 431 439 431 409 c 0
 431 382 407 358 379 358 c 128
 351 358 327 382 327 410 c 0
 327 439 350 462 379 462 c 0
EndSplineSet
MinimumDistance: x9,-1 
EndChar
StartChar: oslash
Encoding: 248 248 181
Width: 611
Flags: W
HStem: -23 77<273 291> 462 77<368 387>
VStem: 81 88<161 182> 489 87.0443<327 338>
DStem: 102 74 123 41 19 -2 45 -30 470 410 484 370 175 141 190 102 613 541 639 511 537 472 558 437
Fore
19 -2 m 1
 102 74 l 1
 87 106 81 133 81 164 c 0
 81 248 114 359 159 423 c 0
 211 498 291 539 383 539 c 0
 454 539 504 517 537 472 c 1
 613 541 l 1
 639 511 l 1
 558 437 l 1
 571 408 577 383 577 354 c 0
 577 265 544 157 498 93 c 0
 443 17 365 -23 274 -23 c 0
 206 -23 153 -1 123 41 c 1
 45 -30 l 1
 19 -2 l 1
175 141 m 1
 470 410 l 1
 451 444 415 462 369 462 c 0
 305 462 249 425 213 357 c 0
 185 306 169 242 169 180 c 0
 169 163 170 156 175 141 c 1
484 370 m 1
 190 102 l 1
 209 71 245 54 289 54 c 0
 353 54 410 93 446 159 c 0
 470 204 489 280 489 328 c 0
 489 339 488 350 484 370 c 1
EndSplineSet
EndChar
StartChar: ugrave
Encoding: 249 249 182
Width: 556
Flags: W
HStem: -22.9987 71.9987<226 268> 0 21G<407 483> 504 20G<177 261 510 594> 720 20G<270 376>
DStem: 177 524 261 524 91 120 182 153 419 57 594 524 407 0 483 0 510 524 594 524 447 227 483 0
Fore
483 0 m 1
 407 0 l 1
 419 57 l 1
 361 1 304 -23 226 -23 c 0
 140 -23 88 18 88 86 c 0
 88 99 89 110 91 120 c 2
 177 524 l 1
 261 524 l 1
 182 153 l 2
 180 143 179 134 179 126 c 0
 179 79 214 49 268 49 c 0
 353 49 424 119 447 227 c 2
 510 524 l 1
 594 524 l 1
 483 0 l 1
376 740 m 1
 448 592 l 1
 395 592 l 1
 270 740 l 1
 376 740 l 1
EndSplineSet
EndChar
StartChar: uacute
Encoding: 250 250 183
Width: 556
Flags: W
HStem: -22.9987 71.9987<226 268> 0 21G<407 483> 504 20G<177 261 510 594> 720 20G<463 575>
DStem: 177 524 261 524 91 120 182 153 419 57 594 524 407 0 483 0 510 524 594 524 447 227 483 0
Fore
483 0 m 1
 407 0 l 1
 419 57 l 1
 361 1 304 -23 226 -23 c 0
 140 -23 88 18 88 86 c 0
 88 99 89 110 91 120 c 2
 177 524 l 1
 261 524 l 1
 182 153 l 2
 180 143 179 134 179 126 c 0
 179 79 214 49 268 49 c 0
 353 49 424 119 447 227 c 2
 510 524 l 1
 594 524 l 1
 483 0 l 1
463 740 m 1
 575 740 l 1
 395 592 l 1
 335 592 l 1
 463 740 l 1
EndSplineSet
EndChar
StartChar: ucircumflex
Encoding: 251 251 184
Width: 556
Flags: W
HStem: -22.044 71.9768<226 268> 0 21G<407 483> 504 20G<177 261 510 594> 721 20G<380 475>
DStem: 177 524 261 524 91 120 182 153 419 57 594 524 407 0 483 0 510 524 594 524 447 227 483 0
Fore
483 0 m 1
 407 0 l 1
 419 57 l 1
 361 1 304 -23 226 -23 c 0
 140 -23 88 18 88 86 c 0
 88 99 89 110 91 120 c 2
 177 524 l 1
 261 524 l 1
 182 153 l 2
 180 143 179 134 179 126 c 0
 179 79 214 49 268 49 c 0
 353 49 424 119 447 227 c 2
 510 524 l 1
 594 524 l 1
 483 0 l 1
380 741 m 1
 475 741 l 1
 539 591 l 1
 476 591 l 1
 420 690 l 1
 316 591 l 1
 252 591 l 1
 380 741 l 1
EndSplineSet
EndChar
StartChar: udieresis
Encoding: 252 252 185
Width: 556
Flags: W
HStem: -22.9987 71.9987<226 268> 0 21G<407 483> 504 20G<177 261 510 594> 612 103<290 372 451 533>
DStem: 177 524 261 524 91 120 182 153 290 715 394 715 268 612 372 612 419 57 594 524 407 0 483 0 451 715 555 715 429 612 533 612 510 524 594 524 447 227 483 0
Fore
483 0 m 1
 407 0 l 1
 419 57 l 1
 361 1 304 -23 226 -23 c 0
 140 -23 88 18 88 86 c 0
 88 99 89 110 91 120 c 2
 177 524 l 1
 261 524 l 1
 182 153 l 2
 180 143 179 134 179 126 c 0
 179 79 214 49 268 49 c 0
 353 49 424 119 447 227 c 2
 510 524 l 1
 594 524 l 1
 483 0 l 1
394 715 m 1
 372 612 l 1
 268 612 l 1
 290 715 l 1
 394 715 l 1
555 715 m 1
 533 612 l 1
 429 612 l 1
 451 715 l 1
 555 715 l 1
EndSplineSet
EndChar
StartChar: yacute
Encoding: 253 253 186
Width: 500
Flags: W
HStem: -218 81<56 72> 504 20G<132 222 501 590> 720 20G<434 546>
DStem: 501 524 590 524 268 117 222 -110
Fore
501 524 m 1
 590 524 l 1
 222 -110 l 2
 179 -184 128 -218 57 -218 c 0
 38 -218 26 -216 8 -208 c 1
 24 -133 l 1
 51 -136 58 -137 68 -137 c 0
 105 -137 121 -127 148 -85 c 2
 200 -4 l 1
 132 524 l 1
 222 524 l 1
 268 117 l 1
 501 524 l 1
434 740 m 1
 546 740 l 1
 366 592 l 1
 306 592 l 1
 434 740 l 1
EndSplineSet
EndChar
StartChar: thorn
Encoding: 254 254 187
Width: 556
Flags: W
HStem: -213 21G<7 91> -23 77<290 311> 461.997 77.0031<379 412> 709 20G<207 291>
VStem: 498 88<315 345>
DStem: 207 729 291 729 7 -213 230 440 207 729 151 68 7 -213 91 -213
Fore
7 -213 m 1
 207 729 l 1
 291 729 l 1
 230 440 l 1
 260 498 336 539 412 539 c 0
 519 539 586 464 586 344 c 0
 586 246 552 142 498 76 c 0
 447 13 372 -23 294 -23 c 0
 223 -23 182 3 151 68 c 1
 91 -213 l 1
 7 -213 l 1
379 462 m 0
 317 462 267 428 230 361 c 0
 200 309 183 244 183 184 c 0
 183 104 229 54 302 54 c 0
 367 54 417 87 454 155 c 0
 481 205 498 270 498 324 c 0
 498 410 454 462 379 462 c 0
EndSplineSet
EndChar
StartChar: ydieresis
Encoding: 255 255 188
Width: 500
Flags: W
HStem: -218 81<56 72> 504 20G<132 222 501 590> 612 103<268 350 429 511>
DStem: 268 715 372 715 246 612 350 612 429 715 533 715 407 612 511 612 501 524 590 524 268 117 222 -110
Fore
501 524 m 1
 590 524 l 1
 222 -110 l 2
 179 -184 128 -218 57 -218 c 0
 38 -218 26 -216 8 -208 c 1
 24 -133 l 1
 51 -136 58 -137 68 -137 c 0
 105 -137 121 -127 148 -85 c 2
 200 -4 l 1
 132 524 l 1
 222 524 l 1
 268 117 l 1
 501 524 l 1
372 715 m 1
 350 612 l 1
 246 612 l 1
 268 715 l 1
 372 715 l 1
533 715 m 1
 511 612 l 1
 407 612 l 1
 429 715 l 1
 533 715 l 1
EndSplineSet
EndChar
StartChar: Amacron
Encoding: 256 256 189
Width: 667
Flags: W
HStem: 0 21G<17 116 551 653> 219 78<284 513> 709 20G<432 552> 826 69<388 648>
DStem: 432 729 474 630 17 0 283 297 432 729 239 219 17 0 116 0
Fore
524 219 m 1
 239 219 l 1
 116 0 l 1
 17 0 l 1
 432 729 l 1
 552 729 l 1
 653 0 l 1
 551 0 l 1
 524 219 l 1
514 297 m 1
 474 630 l 1
 283 297 l 1
 514 297 l 1
663 895 m 1
 648 826 l 1
 373 826 l 1
 388 895 l 1
 663 895 l 1
EndSplineSet
MinimumDistance: x9,-1 
EndChar
StartChar: amacron
Encoding: 257 257 190
Width: 556
Flags: W
HStem: -22.5409 72.3163<209 242> 462 76.3338<369 385> 627 69<292 552>
VStem: 65 88<104 121> 477.989 90.0112<398 426>
DStem: 451 258 562 389 431 164 498 88
Fore
552 51 m 1
 539 -14 l 1
 533 -15 527 -16 525 -17 c 0
 500 -23 497 -23 486 -23 c 0
 438 -23 410 2 410 43 c 2
 410 47 l 1
 410 54 l 1
 369 18 354 8 322 -3 c 0
 286 -16 244 -23 209 -23 c 0
 119 -23 65 25 65 105 c 0
 65 163 95 216 147 249 c 0
 196 280 238 290 372 302 c 0
 445 309 464 320 473 361 c 1
 476 379 l 1
 477 387 478 394 478 398 c 0
 478 435 432 462 372 462 c 0
 329 462 287 447 265 425 c 0
 251 411 244 397 235 369 c 1
 151 369 l 1
 170 480 255 539 394 539 c 0
 499 539 568 494 568 426 c 0
 568 416 568 416 562 389 c 1
 498 88 l 1
 497 85 497 82 497 78 c 0
 497 58 509 49 535 49 c 0
 539 49 543 49 552 51 c 1
431 164 m 2
 451 258 l 1
 407 243 399 242 305 229 c 0
 256 222 226 214 202 199 c 0
 172 181 153 148 153 115 c 0
 153 73 185 49 242 49 c 0
 330 49 418 102 431 164 c 2
567 696 m 1
 552 627 l 1
 277 627 l 1
 292 696 l 1
 567 696 l 1
EndSplineSet
EndChar
StartChar: Abreve
Encoding: 258 258 191
Width: 667
Flags: W
HStem: 0 21G<17 116 551 653> 219 78<284 513> 709 20G<432 552> 793 72<503 523>
VStem: 377.004 57.9958<892 915>
DStem: 432 729 474 630 17 0 283 297 432 729 239 219 17 0 116 0
Fore
524 219 m 1
 239 219 l 1
 116 0 l 1
 17 0 l 1
 432 729 l 1
 552 729 l 1
 653 0 l 1
 551 0 l 1
 524 219 l 1
514 297 m 1
 474 630 l 1
 283 297 l 1
 514 297 l 1
382 928 m 1
 435 928 l 1
 435 920 l 1
 435 915 l 2
 435 885 468 865 517 865 c 0
 576 865 617 888 627 928 c 1
 683 928 l 1
 672 884 661 863 637 842 c 0
 604 812 553 793 504 793 c 0
 429 793 377 833 377 892 c 0
 377 901 378 909 382 928 c 1
EndSplineSet
MinimumDistance: x9,-1 
EndChar
StartChar: abreve
Encoding: 259 259 192
Width: 556
Flags: W
HStem: -22.5409 72.3163<209 242> 462 76.3338<369 385> 594 72<401 418> 709 20G<281 334 526 582>
VStem: 65 88<104 121> 276.004 57.9958<693 716> 477.989 90.0112<398 426>
DStem: 451 258 562 389 431 164 498 88
Fore
552 51 m 1
 539 -14 l 1
 533 -15 527 -16 525 -17 c 0
 500 -23 497 -23 486 -23 c 0
 438 -23 410 2 410 43 c 2
 410 47 l 1
 410 54 l 1
 369 18 354 8 322 -3 c 0
 286 -16 244 -23 209 -23 c 0
 119 -23 65 25 65 105 c 0
 65 163 95 216 147 249 c 0
 196 280 238 290 372 302 c 0
 445 309 464 320 473 361 c 1
 476 379 l 1
 477 387 478 394 478 398 c 0
 478 435 432 462 372 462 c 0
 329 462 287 447 265 425 c 0
 251 411 244 397 235 369 c 1
 151 369 l 1
 170 480 255 539 394 539 c 0
 499 539 568 494 568 426 c 0
 568 416 568 416 562 389 c 1
 498 88 l 1
 497 85 497 82 497 78 c 0
 497 58 509 49 535 49 c 0
 539 49 543 49 552 51 c 1
431 164 m 2
 451 258 l 1
 407 243 399 242 305 229 c 0
 256 222 226 214 202 199 c 0
 172 181 153 148 153 115 c 0
 153 73 185 49 242 49 c 0
 330 49 418 102 431 164 c 2
281 729 m 1
 334 729 l 1
 334 721 l 1
 334 716 l 2
 334 686 367 666 416 666 c 0
 475 666 516 689 526 729 c 1
 582 729 l 1
 571 685 560 664 536 643 c 0
 503 613 452 594 403 594 c 0
 328 594 276 634 276 693 c 0
 276 702 277 710 281 729 c 1
EndSplineSet
EndChar
StartChar: Aogonek
Encoding: 260 260 193
Width: 667
Flags: W
HStem: -205 45<581 597> 0 21G<17 116> 219 78<284 513> 709 20G<432 552>
VStem: 452.006 74.9937<-130 -116>
DStem: 432 729 474 630 17 0 283 297
Fore
524 219 m 1
 226 219 l 1
 116 0 l 1
 17 0 l 1
 432 729 l 1
 552 729 l 1
 653 0 l 1
 564 -39 527 -73 527 -116 c 0
 527 -143 554 -160 595 -160 c 0
 619 -160 643 -157 663 -150 c 1
 654 -195 l 1
 612 -204 605 -205 582 -205 c 0
 502 -205 452 -176 452 -130 c 0
 452 -96 474 -59 509 -35 c 0
 529 -21 545 -13 582 0 c 1
 551 0 l 1
 524 219 l 1
514 297 m 1
 474 630 l 1
 283 297 l 1
 514 297 l 1
EndSplineSet
MinimumDistance: x7,-1 
EndChar
StartChar: aogonek
Encoding: 261 261 194
Width: 556
Flags: W
HStem: -205 45<489 513> -22.5409 72.3163<209 242> 462 76.3338<369 385>
VStem: 65 88<104 117> 360.524 74.4758<-117 -114> 477.989 90.0112<398 426>
DStem: 451 258 562 389 431 164 498 88
Fore
552 51 m 1
 539 -14 l 1
 484 -27 435 -75 435 -116 c 0
 435 -143 462 -160 503 -160 c 0
 527 -160 551 -157 571 -150 c 1
 562 -195 l 1
 522 -204 513 -205 490 -205 c 0
 408 -205 360 -177 360 -128 c 0
 360 -83 384 -56 455 -19 c 1
 425 -10 410 11 410 43 c 2
 410 47 l 1
 410 54 l 1
 369 18 354 8 322 -3 c 0
 286 -16 244 -23 209 -23 c 0
 119 -23 65 25 65 105 c 0
 65 163 95 216 147 249 c 0
 196 280 238 290 372 302 c 0
 445 309 464 320 473 361 c 1
 476 379 l 1
 477 387 478 394 478 398 c 0
 478 435 432 462 372 462 c 0
 329 462 287 447 265 425 c 0
 251 411 244 397 235 369 c 1
 151 369 l 1
 170 480 255 539 394 539 c 0
 499 539 568 494 568 426 c 0
 568 416 568 416 562 389 c 1
 498 88 l 1
 497 85 497 82 497 78 c 0
 497 58 509 49 535 49 c 0
 539 49 543 49 552 51 c 1
431 164 m 2
 451 258 l 1
 407 243 399 242 305 229 c 0
 256 222 226 214 202 199 c 0
 172 181 153 148 153 115 c 0
 153 73 185 49 242 49 c 0
 330 49 418 102 431 164 c 2
EndSplineSet
EndChar
StartChar: Cacute
Encoding: 262 262 195
Width: 722
Flags: W
HStem: -23 81<366 384> 660 81<512 534>
VStem: 112 96<241 268>
Fore
770 503 m 1
 674 503 l 1
 666 611 616 660 515 660 c 0
 423 660 350 617 289 527 c 0
 238 451 208 351 208 260 c 0
 208 139 277 58 381 58 c 0
 460 58 536 95 578 155 c 0
 596 179 612 209 637 266 c 1
 735 266 l 1
 701 185 669 130 630 87 c 0
 565 16 473 -23 367 -23 c 0
 278 -23 215 4 169 62 c 0
 132 109 112 172 112 242 c 0
 112 367 161 505 240 600 c 0
 318 694 415 741 532 741 c 0
 626 741 697 704 738 634 c 0
 757 600 767 562 770 503 c 1
621 939 m 1
 733 939 l 1
 553 791 l 1
 493 791 l 1
 621 939 l 1
EndSplineSet
MinimumDistance: x4,-1 
EndChar
StartChar: cacute
Encoding: 263 263 196
Width: 500
Flags: W
HStem: -23 77<262 284> 462 77<364 383> 720 20G<463 575>
VStem: 76 88<169 185> 467.996 86.004<370 392>
Fore
551 348 m 1
 467 348 l 1
 468 357 468 364 468 370 c 0
 468 427 429 462 366 462 c 0
 305 462 255 432 218 373 c 0
 185 321 164 245 164 181 c 0
 164 103 208 54 277 54 c 0
 349 54 404 98 434 180 c 1
 518 180 l 1
 502 124 486 90 460 60 c 0
 414 6 345 -23 263 -23 c 0
 199 -23 154 -4 120 39 c 0
 92 74 76 123 76 170 c 0
 76 262 110 371 157 432 c 0
 210 501 291 539 381 539 c 0
 438 539 479 524 510 492 c 0
 536 465 554 425 554 392 c 0
 554 389 553 378 552 363 c 2
 551 348 l 1
463 740 m 1
 575 740 l 1
 395 592 l 1
 335 592 l 1
 463 740 l 1
EndSplineSet
EndChar
StartChar: Ccaron
Encoding: 268 268 201
Width: 722
Flags: W
HStem: -23 81<366 384> 660 81<503 534>
VStem: 112 96<241 268>
Fore
770 503 m 1
 674 503 l 1
 666 611 616 660 515 660 c 0
 423 660 350 617 289 527 c 0
 238 451 208 351 208 260 c 0
 208 139 277 58 381 58 c 0
 460 58 536 95 578 155 c 0
 596 179 612 209 637 266 c 1
 735 266 l 1
 701 185 669 130 630 87 c 0
 565 16 473 -23 367 -23 c 0
 278 -23 215 4 169 62 c 0
 132 109 112 172 112 242 c 0
 112 367 161 505 240 600 c 0
 318 694 415 741 532 741 c 0
 626 741 697 704 738 634 c 0
 757 600 767 562 770 503 c 1
596 791 m 1
 501 791 l 1
 437 939 l 1
 500 939 l 1
 556 841 l 1
 660 939 l 1
 724 939 l 1
 596 791 l 1
EndSplineSet
MinimumDistance: x4,-1 
EndChar
StartChar: ccaron
Encoding: 269 269 202
Width: 500
Flags: W
HStem: -23 77<262 284> 462 77<364 383> 720 20G<276 339 499 563>
VStem: 76 88<169 185> 467.996 86.004<370 392>
Fore
551 348 m 1
 467 348 l 1
 468 357 468 364 468 370 c 0
 468 427 429 462 366 462 c 0
 305 462 255 432 218 373 c 0
 185 321 164 245 164 181 c 0
 164 103 208 54 277 54 c 0
 349 54 404 98 434 180 c 1
 518 180 l 1
 502 124 486 90 460 60 c 0
 414 6 345 -23 263 -23 c 0
 199 -23 154 -4 120 39 c 0
 92 74 76 123 76 170 c 0
 76 262 110 371 157 432 c 0
 210 501 291 539 381 539 c 0
 438 539 479 524 510 492 c 0
 536 465 554 425 554 392 c 0
 554 389 553 378 552 363 c 2
 551 348 l 1
435 592 m 1
 340 592 l 1
 276 740 l 1
 339 740 l 1
 395 642 l 1
 499 740 l 1
 563 740 l 1
 435 592 l 1
EndSplineSet
EndChar
StartChar: Dcaron
Encoding: 270 270 203
Width: 722
Flags: W
HStem: 0 82<201 393> 647 82<321 505>
VStem: 663 96<464 496>
DStem: 244 729 321 647 89 0 200 82
Fore
89 0 m 1
 244 729 l 1
 526 729 l 2
 591 729 644 711 682 677 c 0
 729 635 759 561 759 488 c 0
 759 363 711 217 643 134 c 0
 570 45 479 0 371 0 c 2
 89 0 l 1
200 82 m 1
 372 82 l 2
 463 82 539 125 591 205 c 0
 631 268 663 388 663 480 c 0
 663 584 599 647 492 647 c 2
 321 647 l 1
 200 82 l 1
536 791 m 1
 441 791 l 1
 377 939 l 1
 440 939 l 1
 496 841 l 1
 600 939 l 1
 664 939 l 1
 536 791 l 1
EndSplineSet
EndChar
StartChar: dcaron
Encoding: 271 271 204
Width: 650
Flags: W
HStem: -22.9975 76.9975<244 278> 0 21G<414 495> 462 77<345 372> 505.339 37.6606<671 672> 631 98<710 743>
VStem: 73 88<169 201>
DStem: 430 76 650 729 414 0 495 0 566 729 650 729 506 448 495 0 710 729 810 729 689 631 791 636
Fore
650 729 m 1
 495 0 l 1
 414 0 l 1
 430 76 l 1
 416 48 403 33 373 15 c 0
 333 -9 287 -23 244 -23 c 0
 140 -23 73 53 73 170 c 0
 73 381 197 539 363 539 c 0
 434 539 474 513 506 448 c 1
 566 729 l 1
 650 729 l 1
355 462 m 0
 291 462 243 430 205 361 c 0
 178 310 161 246 161 190 c 0
 161 104 204 54 278 54 c 0
 339 54 388 88 427 155 c 0
 457 207 473 268 473 327 c 0
 473 412 429 462 355 462 c 0
710 729 m 1
 810 729 l 1
 791 636 l 1
 773 554 725 505 662 505 c 1
 670 543 l 1
 709 543 733 572 744 631 c 1
 689 631 l 1
 710 729 l 1
EndSplineSet
EndChar
StartChar: Dcroat
Encoding: 272 272 205
Width: 722
Flags: W
HStem: 0 82<201 393> 341 67<106 160 271 422> 647 82<321 505>
VStem: 663 96<464 496>
DStem: 161 341 255 341 89 0 200 82 244 729 321 647 176 408 270 408
Fore
161 341 m 1
 93 341 l 1
 106 408 l 1
 176 408 l 1
 244 729 l 1
 526 729 l 2
 591 729 644 711 682 677 c 0
 729 635 759 561 759 488 c 0
 759 363 711 217 643 134 c 0
 570 45 479 0 371 0 c 2
 89 0 l 1
 161 341 l 1
255 341 m 1
 200 82 l 1
 372 82 l 2
 463 82 539 125 591 205 c 0
 631 268 663 389 663 480 c 0
 663 585 599 647 492 647 c 2
 321 647 l 1
 270 408 l 1
 436 408 l 1
 422 341 l 1
 255 341 l 1
EndSplineSet
EndChar
StartChar: dcroat
Encoding: 273 273 206
Width: 556
Flags: W
HStem: -22.9975 76.9975<244 278> 0 21G<414 495> 462 77<345 372> 600 53<400 537 635 684> 600 129<622 634>
VStem: 73 88<169 192>
DStem: 430 76 622 600 414 0 495 0 538 600 622 600 506 448 495 0 566 729 650 729 550 653 634 653
Fore
550 653 m 1
 566 729 l 1
 650 729 l 1
 634 653 l 1
 695 653 l 1
 684 600 l 1
 622 600 l 1
 495 0 l 1
 414 0 l 1
 430 76 l 1
 416 48 403 33 373 15 c 0
 333 -9 287 -23 244 -23 c 0
 140 -23 73 53 73 170 c 0
 73 271 107 376 160 440 c 0
 212 503 286 539 363 539 c 0
 433 539 474 513 506 448 c 1
 538 600 l 1
 388 600 l 1
 400 653 l 1
 550 653 l 1
355 462 m 0
 291 462 243 430 205 361 c 0
 178 310 161 246 161 190 c 0
 161 104 204 54 278 54 c 0
 339 54 388 88 427 155 c 0
 457 207 473 268 473 327 c 0
 473 412 429 462 355 462 c 0
EndSplineSet
EndChar
StartChar: Emacron
Encoding: 274 274 207
Width: 667
Flags: W
HStem: 0 82<202 613> 332 82<273 650> 647 82<322 734> 826 69<392 652>
DStem: 245 729 322 647 90 0 272 414 245 729 668 414 90 0 650 332 245 729 255 332 90 0 201 82 245 729 630 82 90 0 613 0
Fore
255 332 m 1
 201 82 l 1
 630 82 l 1
 613 0 l 1
 90 0 l 1
 245 729 l 1
 751 729 l 1
 734 647 l 1
 322 647 l 1
 272 414 l 1
 668 414 l 1
 650 332 l 1
 255 332 l 1
667 895 m 1
 652 826 l 1
 377 826 l 1
 392 895 l 1
 667 895 l 1
EndSplineSet
EndChar
StartChar: emacron
Encoding: 275 275 208
Width: 556
Flags: W
HStem: -23 77<281 298> 234 72<196 489> 462 77<372 391> 627 69<288 548>
VStem: 84 88<169 190> 491.902 87.17<339 368>
Fore
563 234 m 1
 177 234 l 1
 173 219 172 209 172 188 c 0
 172 103 217 54 296 54 c 0
 363 54 416 90 452 159 c 1
 536 159 l 1
 505 51 402 -23 282 -23 c 0
 225 -23 181 -7 146 27 c 0
 107 64 84 119 84 173 c 0
 84 254 121 368 168 431 c 0
 218 498 302 539 389 539 c 0
 497 539 580 464 580 368 c 0
 580 341 575 299 566 251 c 2
 563 234 l 1
195 306 m 1
 489 306 l 1
 491 322 492 329 492 339 c 0
 492 414 447 462 376 462 c 0
 295 462 221 398 195 306 c 1
563 696 m 1
 548 627 l 1
 273 627 l 1
 288 696 l 1
 563 696 l 1
EndSplineSet
EndChar
StartChar: Edotaccent
Encoding: 278 278 211
Width: 667
Flags: W
HStem: 0 82<202 613> 332 82<273 650> 647 82<322 734> 811 103<481 563>
DStem: 245 729 322 647 90 0 272 414 245 729 668 414 90 0 650 332 245 729 255 332 90 0 201 82 245 729 630 82 90 0 613 0 481 914 585 914 459 811 563 811
Fore
255 332 m 1
 201 82 l 1
 630 82 l 1
 613 0 l 1
 90 0 l 1
 245 729 l 1
 751 729 l 1
 734 647 l 1
 322 647 l 1
 272 414 l 1
 668 414 l 1
 650 332 l 1
 255 332 l 1
585 914 m 1
 563 811 l 1
 459 811 l 1
 481 914 l 1
 585 914 l 1
EndSplineSet
EndChar
StartChar: edotaccent
Encoding: 279 279 212
Width: 556
Flags: W
HStem: -23 77<281 298> 234 72<196 489> 462 77<372 391> 612 103<378 460>
VStem: 84 88<169 190> 491.902 87.17<339 368>
DStem: 378 715 482 715 356 612 460 612
Fore
563 234 m 1
 177 234 l 1
 173 219 172 209 172 188 c 0
 172 103 217 54 296 54 c 0
 363 54 416 90 452 159 c 1
 536 159 l 1
 505 51 402 -23 282 -23 c 0
 225 -23 181 -7 146 27 c 0
 107 64 84 119 84 173 c 0
 84 254 121 368 168 431 c 0
 218 498 302 539 389 539 c 0
 497 539 580 464 580 368 c 0
 580 341 575 299 566 251 c 2
 563 234 l 1
195 306 m 1
 489 306 l 1
 491 322 492 329 492 339 c 0
 492 414 447 462 376 462 c 0
 295 462 221 398 195 306 c 1
482 715 m 1
 460 612 l 1
 356 612 l 1
 378 715 l 1
 482 715 l 1
EndSplineSet
EndChar
StartChar: Eogonek
Encoding: 280 280 213
Width: 667
Flags: W
HStem: -205 45<541 557> 0 82<202 541> 332 82<273 650> 647 82<322 734>
VStem: 412.006 74.9937<-130 -116>
DStem: 245 729 322 647 90 0 272 414 245 729 668 414 90 0 650 332 245 729 255 332 90 0 201 82 245 729 630 82 90 0 613 0
Fore
255 332 m 1
 201 82 l 1
 630 82 l 1
 613 0 l 1
 551 -29 539 -37 522 -52 c 0
 499 -73 487 -94 487 -116 c 0
 487 -142 514 -160 555 -160 c 0
 579 -160 603 -157 623 -150 c 1
 614 -195 l 1
 572 -204 565 -205 542 -205 c 0
 462 -205 412 -176 412 -130 c 0
 412 -96 434 -59 469 -35 c 0
 489 -21 505 -14 542 0 c 1
 90 0 l 1
 245 729 l 1
 751 729 l 1
 734 647 l 1
 322 647 l 1
 272 414 l 1
 668 414 l 1
 650 332 l 1
 255 332 l 1
EndSplineSet
EndChar
StartChar: eogonek
Encoding: 281 281 214
Width: 556
Flags: W
HStem: -205 45<386 404> -23 77<279 298> 234 72<196 489> 462 77<372 393>
VStem: 84 88<172 195> 253.722 73.2781<-115 -113> 491.287 88.3854<339 368>
Fore
464 -150 m 1
 455 -195 l 1
 434 -202 416 -205 387 -205 c 0
 351 -205 310 -197 289 -186 c 0
 265 -174 253 -154 253 -127 c 0
 253 -86 276 -58 346 -16 c 1
 314 -22 300 -23 280 -23 c 0
 225 -23 181 -7 146 27 c 0
 107 64 84 119 84 173 c 0
 84 254 121 368 168 431 c 0
 218 498 302 539 389 539 c 0
 497 539 580 464 580 368 c 0
 580 341 575 299 566 251 c 2
 563 234 l 1
 177 234 l 1
 173 219 172 209 172 188 c 0
 172 103 217 54 296 54 c 0
 363 54 416 90 452 159 c 1
 536 159 l 1
 520 100 479 50 395 -14 c 0
 354 -46 327 -86 327 -114 c 0
 327 -141 355 -160 394 -160 c 0
 421 -160 446 -156 464 -150 c 1
195 306 m 1
 489 306 l 1
 491 322 492 329 492 339 c 0
 492 414 447 462 376 462 c 0
 295 462 221 398 195 306 c 1
EndSplineSet
EndChar
StartChar: Ecaron
Encoding: 282 282 215
Width: 667
Flags: W
HStem: 0 82<202 613> 332 82<273 650> 647 82<322 734>
DStem: 245 729 322 647 90 0 272 414 245 729 668 414 90 0 650 332 245 729 255 332 90 0 201 82 245 729 630 82 90 0 613 0
Fore
255 332 m 1
 201 82 l 1
 630 82 l 1
 613 0 l 1
 90 0 l 1
 245 729 l 1
 751 729 l 1
 734 647 l 1
 322 647 l 1
 272 414 l 1
 668 414 l 1
 650 332 l 1
 255 332 l 1
555 791 m 1
 460 791 l 1
 396 939 l 1
 459 939 l 1
 515 841 l 1
 619 939 l 1
 683 939 l 1
 555 791 l 1
EndSplineSet
EndChar
StartChar: ecaron
Encoding: 283 283 216
Width: 556
Flags: W
HStem: -23 77<281 298> 234 72<196 489> 462 77<372 391> 720 20G<291 354 514 578>
VStem: 84 88<169 190> 491.902 87.17<339 368>
Fore
563 234 m 1
 177 234 l 1
 173 219 172 209 172 188 c 0
 172 103 217 54 296 54 c 0
 363 54 416 90 452 159 c 1
 536 159 l 1
 505 51 402 -23 282 -23 c 0
 225 -23 181 -7 146 27 c 0
 107 64 84 119 84 173 c 0
 84 254 121 368 168 431 c 0
 218 498 302 539 389 539 c 0
 497 539 580 464 580 368 c 0
 580 341 575 299 566 251 c 2
 563 234 l 1
195 306 m 1
 489 306 l 1
 491 322 492 329 492 339 c 0
 492 414 447 462 376 462 c 0
 295 462 221 398 195 306 c 1
450 592 m 1
 355 592 l 1
 291 740 l 1
 354 740 l 1
 410 642 l 1
 514 740 l 1
 578 740 l 1
 450 592 l 1
EndSplineSet
EndChar
StartChar: Gbreve
Encoding: 286 286 219
Width: 778
Flags: W
HStem: -22.497 80.8346<378 411> 303 82<489 692> 660 81<525 557> 793 72<564 580>
VStem: 109 96<260 281> 438.004 57.9958<892 915> 718 91<508.063 526>
DStem: 489 385 793 385 471 303 710 -4
Fore
793 385 m 1
 710 -4 l 1
 651 -4 l 1
 647 86 l 1
 609 54 590 40 566 26 c 0
 512 -5 443 -23 378 -23 c 0
 310 -23 245 -2 199 36 c 0
 143 81 109 167 109 261 c 0
 109 391 167 527 263 623 c 0
 341 701 439 741 555 741 c 0
 712 741 809 658 809 525 c 2
 809 519 l 1
 809 515 l 1
 809 508 l 1
 718 508 l 1
 717 554 707 581 681 607 c 0
 648 642 598 660 537 660 c 0
 440 660 354 617 293 538 c 0
 240 468 205 365 205 277 c 0
 205 220 219 167 242 132 c 0
 273 86 337 58 411 58 c 0
 480 58 538 79 592 123 c 0
 643 165 672 211 687 277 c 2
 693 303 l 1
 471 303 l 1
 489 385 l 1
 793 385 l 1
443 928 m 1
 496 928 l 1
 496 920 l 1
 496 915 l 2
 496 885 529 865 578 865 c 0
 637 865 678 888 688 928 c 1
 744 928 l 1
 733 884 722 863 698 842 c 0
 665 812 614 793 565 793 c 0
 490 793 438 833 438 892 c 0
 438 901 439 909 443 928 c 1
EndSplineSet
EndChar
StartChar: gbreve
Encoding: 287 287 220
Width: 556
Flags: W
HStem: -218 72<207 228> -16.8153 72.6922<247 271> 462 77<352 371> 504 20G<525 601> 594 72<405 425> 709 20G<288 341 533 589>
VStem: 33 85<-75 -73> 74 88<166 186> 283.004 57.9958<693 716>
DStem: 525 524 601 524 508 446 508 85
Fore
525 524 m 1
 601 524 l 1
 508 85 l 2
 481 -42 454 -103 404 -151 c 0
 359 -194 288 -218 209 -218 c 0
 102 -218 32 -168 32 -91 c 0
 32 -87 32 -81 33 -73 c 1
 34 -60 l 1
 118 -60 l 1
 118 -68 l 1
 118 -74 l 2
 118 -119 158 -146 226 -146 c 0
 332 -146 386 -92 415 44 c 2
 419 63 l 1
 369 10 310 -17 247 -17 c 0
 145 -17 74 59 74 168 c 0
 74 260 112 373 165 439 c 0
 214 501 292 539 369 539 c 0
 403 539 435 528 461 509 c 0
 483 493 493 479 508 446 c 1
 525 524 l 1
363 462 m 0
 300 462 244 425 208 360 c 0
 179 308 162 244 162 184 c 0
 162 105 204 55 271 55 c 0
 331 55 390 93 423 154 c 0
 451 203 469 277 469 339 c 0
 469 414 427 462 363 462 c 0
288 729 m 1
 341 729 l 1
 341 721 l 1
 341 716 l 2
 341 686 374 666 423 666 c 0
 482 666 523 689 533 729 c 1
 589 729 l 1
 578 685 567 664 543 643 c 0
 510 613 459 594 410 594 c 0
 335 594 283 634 283 693 c 0
 283 702 284 710 288 729 c 1
EndSplineSet
EndChar
StartChar: Gcommaaccent
Encoding: 290 290 223
Width: 778
Flags: W
HStem: -283.661 37.6606<292 295> -158 98<331 364> -22.497 80.8346<378 411> 303 82<489 692> 660 81<525 557>
VStem: 109 96<260 279> 718 91<508.063 526>
DStem: 331 -60 431 -60 310 -158 412 -153 489 385 793 385 471 303 710 -4
Fore
793 385 m 1
 710 -4 l 1
 651 -4 l 1
 647 86 l 1
 609 54 590 40 566 26 c 0
 512 -5 443 -23 378 -23 c 0
 310 -23 245 -2 199 36 c 0
 143 81 109 167 109 261 c 0
 109 391 167 527 263 623 c 0
 341 701 439 741 555 741 c 0
 712 741 809 658 809 525 c 2
 809 519 l 1
 809 515 l 1
 809 508 l 1
 718 508 l 1
 717 554 707 581 681 607 c 0
 648 642 598 660 537 660 c 0
 440 660 354 617 293 538 c 0
 240 468 205 365 205 277 c 0
 205 220 219 167 242 132 c 0
 273 86 337 58 411 58 c 0
 480 58 538 79 592 123 c 0
 643 165 672 211 687 277 c 2
 693 303 l 1
 471 303 l 1
 489 385 l 1
 793 385 l 1
331 -60 m 1
 431 -60 l 1
 412 -153 l 1
 394 -235 346 -284 283 -284 c 1
 291 -246 l 1
 330 -246 354 -217 365 -158 c 1
 310 -158 l 1
 331 -60 l 1
EndSplineSet
EndChar
StartChar: gcommaaccent
Encoding: 291 291 224
Width: 527
Flags: W
HStem: -218 72<178 199> -16.8153 72.6922<218 242> 462 77<323 349> 504 20G<496 572> 589 98<397 430> 775 37.4899<467 470>
VStem: 4 85<-75 -73> 45 88<166 186>
DStem: 350 682 451 687 330 589 430 589 496 524 572 524 479 446 479 85
Fore
496 524 m 1
 572 524 l 1
 479 85 l 2
 452 -42 425 -103 375 -151 c 0
 330 -194 259 -218 180 -218 c 0
 73 -218 3 -168 3 -91 c 0
 3 -87 3 -81 4 -73 c 1
 5 -60 l 1
 89 -60 l 1
 89 -68 l 1
 89 -74 l 2
 89 -119 129 -146 197 -146 c 0
 303 -146 357 -92 386 44 c 2
 390 63 l 1
 340 10 281 -17 218 -17 c 0
 116 -17 45 59 45 168 c 0
 45 260 83 373 136 439 c 0
 185 501 263 539 340 539 c 0
 374 539 406 528 432 509 c 0
 454 493 464 479 479 446 c 1
 496 524 l 1
334 462 m 0
 271 462 215 425 179 360 c 0
 150 308 133 244 133 184 c 0
 133 105 175 55 242 55 c 0
 302 55 361 93 394 154 c 0
 422 203 440 277 440 339 c 0
 440 414 398 462 334 462 c 0
430 589 m 1
 330 589 l 1
 350 682 l 2
 368 764 415 813 478 813 c 1
 470 775 l 1
 431 775 407 746 396 687 c 1
 451 687 l 1
 430 589 l 1
EndSplineSet
EndChar
StartChar: Hbar
Encoding: 294 294 227
Width: 722
Flags: W
HStem: 0 21G<6 100 474 567> 332 82<187 544> 506 70<83 113 221 581 689 718> 709 20G<160 253 628 721>
DStem: 113 506 206 504 6 0 187 414 113 506 170 332 6 0 100 0 160 729 253 729 128 576 221 576 544 332 674 506 474 0 567 0 581 504 674 506 562 414 567 0 628 729 721 729 596 576 689 576
Fore
206 504 m 1
 187 414 l 1
 562 414 l 1
 581 504 l 1
 206 504 l 1
128 576 m 1
 160 729 l 1
 253 729 l 1
 221 576 l 1
 596 576 l 1
 628 729 l 1
 721 729 l 1
 689 576 l 1
 733 576 l 1
 718 506 l 1
 674 506 l 1
 567 0 l 1
 474 0 l 1
 544 332 l 1
 170 332 l 1
 100 0 l 1
 6 0 l 1
 113 506 l 1
 69 506 l 1
 84 576 l 1
 128 576 l 1
EndSplineSet
MinimumDistance: x10,-1 
EndChar
StartChar: hbar
Encoding: 295 295 228
Width: 556
Flags: W
HStem: 0 21G<-7 76 326 409> 466 73<317 358> 600 53<67 120 214 353> 709 20G<147 230>
DStem: 120 600 203 600 -7 0 172 452 120 600 137 289 -7 0 76 0 403 363 493 396 326 0 409 0
Fore
214 653 m 1
 364 653 l 1
 353 600 l 1
 203 600 l 1
 172 452 l 1
 234 516 284 539 358 539 c 0
 446 539 496 498 496 430 c 0
 496 419 495 408 493 396 c 2
 409 0 l 1
 326 0 l 1
 403 363 l 2
 405 374 406 384 406 393 c 0
 406 441 363 466 317 466 c 0
 231 466 160 396 137 289 c 2
 76 0 l 1
 -7 0 l 1
 120 600 l 1
 57 600 l 1
 68 653 l 1
 131 653 l 1
 147 729 l 1
 230 729 l 1
 214 653 l 1
EndSplineSet
MinimumDistance: x7,-1 
EndChar
StartChar: Imacron
Encoding: 298 298 231
Width: 278
Flags: W
HStem: 0 21G<100 194> 709 20G<255 349> 826 69<211 443>
DStem: 255 729 349 729 100 0 194 0
Fore
349 729 m 1
 194 0 l 1
 100 0 l 1
 255 729 l 1
 349 729 l 1
458 895 m 1
 443 826 l 1
 195 826 l 1
 211 895 l 1
 458 895 l 1
EndSplineSet
EndChar
StartChar: imacron
Encoding: 299 299 232
Width: 222
Flags: W
HStem: 0 21G<66 150> 504 20G<177 261> 627 69<139 358>
DStem: 177 524 261 524 66 0 150 0
Fore
261 524 m 1
 150 0 l 1
 66 0 l 1
 177 524 l 1
 261 524 l 1
373 696 m 1
 358 627 l 1
 124 627 l 1
 139 696 l 1
 373 696 l 1
EndSplineSet
EndChar
StartChar: Iogonek
Encoding: 302 302 235
Width: 278
Flags: W
HStem: -204.654 45.6536<156 163> 709 20G<255 349>
VStem: 28.8533 74.1467<-116 -115>
DStem: 255 729 349 729 100 0 194 0
Fore
349 729 m 1
 194 0 l 1
 189 -4 184 -8 178 -12 c 0
 128 -51 103 -86 103 -115 c 0
 103 -142 127 -159 163 -159 c 0
 178 -159 184 -158 209 -150 c 1
 200 -195 l 1
 176 -203 164 -205 143 -205 c 0
 76 -205 28 -174 28 -129 c 0
 28 -96 43 -71 85 -35 c 0
 103 -20 112 -13 135 0 c 1
 100 0 l 1
 255 729 l 1
 349 729 l 1
EndSplineSet
EndChar
StartChar: iogonek
Encoding: 303 303 236
Width: 222
Flags: W
HStem: -204.997 45.9969<102 128> 504 20G<177 261> 626 103<221 282>
VStem: 0.0668501 72.9332<-128 -116>
DStem: 177 524 261 524 66 0 150 0 221 729 305 729 198 626 282 626
Fore
261 524 m 1
 150 0 l 1
 105 -35 73 -84 73 -116 c 0
 73 -142 94 -159 128 -159 c 0
 140 -159 142 -158 164 -150 c 1
 155 -195 l 1
 133 -202 120 -205 102 -205 c 0
 42 -205 0 -173 0 -128 c 0
 0 -88 36 -42 100 0 c 1
 66 0 l 1
 177 524 l 1
 261 524 l 1
305 729 m 1
 282 626 l 1
 198 626 l 1
 221 729 l 1
 305 729 l 1
EndSplineSet
EndChar
StartChar: Idotaccent
Encoding: 304 304 237
Width: 278
Flags: W
HStem: 0 21G<100 194> 709 20G<255 349> 811 103<285 367>
DStem: 255 729 349 729 100 0 194 0 285 914 389 914 263 811 367 811
Fore
349 729 m 1
 194 0 l 1
 100 0 l 1
 255 729 l 1
 349 729 l 1
389 914 m 1
 367 811 l 1
 263 811 l 1
 285 914 l 1
 389 914 l 1
EndSplineSet
EndChar
StartChar: dotlessi
Encoding: 305 305 238
Width: 278
Flags: W
HStem: 0 21G<94 178> 507 20G<206 290>
DStem: 206 527 290 527 94 0 178 0
Fore
290 527 m 1
 178 0 l 1
 94 0 l 1
 206 527 l 1
 290 527 l 1
EndSplineSet
EndChar
StartChar: jcircumflex
Encoding: 309 309 242
Width: 222
HStem: -217.878 71.8777<-33 -17> 504 20G<180 264>
DStem: 180 524 264 524 53 -76 130 -109
Fore
180 524 m 1
 264 524 l 1
 130 -109 l 1
 112 -191 69 -218 -46 -218 c 0
 -55 -218 -58 -217 -65 -215 c 1
 -50 -144 l 1
 -32 -146 -30 -146 -25 -146 c 0
 26 -146 41 -132 53 -76 c 2
 180 524 l 1
227.811 828 m 1
 322.811 828 l 1
 386.811 678 l 1
 323.811 678 l 1
 267.811 777 l 1
 163.811 678 l 1
 99.8105 678 l 1
 227.811 828 l 1
EndSplineSet
EndChar
StartChar: Kcommaaccent
Encoding: 310 310 243
Width: 667
Flags: W
HStem: -283.661 37.6606<247 250> -158 98<286 319> 0 21G<79 173 548 658> 709 20G<234 328 693 813>
DStem: 234 729 328 729 79 0 249 356 234 729 226 249 79 0 173 0 286 -60 386 -60 265 -158 367 -153 693 729 813 729 249 356 452 431 693 729 380 376 249 356 226 249
Fore
226 249 m 1
 173 0 l 1
 79 0 l 1
 234 729 l 1
 328 729 l 1
 249 356 l 1
 693 729 l 1
 813 729 l 1
 452 431 l 1
 658 0 l 1
 548 0 l 1
 380 376 l 1
 226 249 l 1
286 -60 m 1
 386 -60 l 1
 367 -153 l 1
 349 -235 301 -284 238 -284 c 1
 246 -246 l 1
 285 -246 309 -217 320 -158 c 1
 265 -158 l 1
 286 -60 l 1
EndSplineSet
EndChar
StartChar: kcommaaccent
Encoding: 311 311 244
Width: 500
Flags: W
HStem: -283.661 37.6606<168 170> -158 98<207 240> 0 21G<58 142 406 502> 504 20G<476 584> 709 20G<213 297>
DStem: 207 -60 307 -60 186 -158 288 -153 213 729 297 729 58 0 207 306 213 729 185 203 58 0 142 0 292 291 362 343 406 0 502 0 476 524 584 524 207 306 362 343
Fore
297 729 m 1
 207 306 l 1
 476 524 l 1
 584 524 l 1
 362 343 l 1
 502 0 l 1
 406 0 l 1
 292 291 l 1
 185 203 l 1
 142 0 l 1
 58 0 l 1
 213 729 l 1
 297 729 l 1
207 -60 m 1
 307 -60 l 1
 288 -153 l 1
 270 -235 222 -284 159 -284 c 1
 167 -246 l 1
 206 -246 230 -217 241 -158 c 1
 186 -158 l 1
 207 -60 l 1
EndSplineSet
EndChar
StartChar: kgreenlandic
Encoding: 312 312 245
Width: 510
Flags: W
HStem: 0 21G<70 153 411 514> 504 20G<181 264 486 593>
DStem: 181 524 264 524 70 0 217 302 181 524 199 216 70 0 153 0 199 216 266 264 411 0 514 0 486 524 593 524 217 302 266 264
Fore
264 524 m 1
 217 302 l 1
 486 524 l 1
 593 524 l 1
 266 264 l 1
 514 0 l 1
 411 0 l 1
 199 216 l 1
 153 0 l 1
 70 0 l 1
 181 524 l 1
 264 524 l 1
EndSplineSet
EndChar
StartChar: Lacute
Encoding: 313 313 246
Width: 556
Flags: W
HStem: 0 82<192 534> 709 20G<235 329>
DStem: 235 729 329 729 80 0 191 82 235 729 551 82 80 0 534 0
Fore
329 729 m 1
 191 82 l 1
 551 82 l 1
 534 0 l 1
 80 0 l 1
 235 729 l 1
 329 729 l 1
368 939 m 1
 480 939 l 1
 300 791 l 1
 240 791 l 1
 368 939 l 1
EndSplineSet
MinimumDistance: x2,-1 
EndChar
StartChar: lacute
Encoding: 314 314 247
Width: 222
Flags: W
HStem: 0 21G<68 152> 709 20G<223 307>
DStem: 223 729 307 729 68 0 152 0
Fore
307 729 m 1
 152 0 l 1
 68 0 l 1
 223 729 l 1
 307 729 l 1
351 939 m 1
 463 939 l 1
 283 791 l 1
 223 791 l 1
 351 939 l 1
EndSplineSet
EndChar
StartChar: Lcommaaccent
Encoding: 315 315 248
Width: 556
Flags: W
HStem: -283.661 37.6606<205 208> -158 98<244 277> 0 82<192 534> 709 20G<235 329>
DStem: 235 729 329 729 80 0 191 82 235 729 551 82 80 0 534 0 244 -60 344 -60 223 -158 325 -153
Fore
329 729 m 1
 191 82 l 1
 551 82 l 1
 534 0 l 1
 80 0 l 1
 235 729 l 1
 329 729 l 1
244 -60 m 1
 344 -60 l 1
 325 -153 l 1
 307 -235 259 -284 196 -284 c 1
 204 -246 l 1
 243 -246 267 -217 278 -158 c 1
 223 -158 l 1
 244 -60 l 1
EndSplineSet
MinimumDistance: x2,-1 
EndChar
StartChar: lcommaaccent
Encoding: 316 316 249
Width: 222
Flags: W
HStem: -283.661 37.6606<8 9> -158 98<47 80> 0 21G<68 152> 709 20G<223 307>
DStem: 47 -60 147 -60 26 -158 128 -153 223 729 307 729 68 0 152 0
Fore
307 729 m 1
 152 0 l 1
 68 0 l 1
 223 729 l 1
 307 729 l 1
47 -60 m 1
 147 -60 l 1
 128 -153 l 1
 110 -235 62 -284 -1 -284 c 1
 7 -246 l 1
 46 -246 70 -217 81 -158 c 1
 26 -158 l 1
 47 -60 l 1
EndSplineSet
EndChar
StartChar: Lcaron
Encoding: 317 317 250
Width: 556
Flags: W
HStem: 0 82<192 534> 505.339 37.6606<390 391> 631 98<429 462>
DStem: 235 729 329 729 80 0 191 82 235 729 551 82 80 0 534 0 429 729 529 729 408 631 510 636
Fore
329 729 m 1
 191 82 l 1
 551 82 l 1
 534 0 l 1
 80 0 l 1
 235 729 l 1
 329 729 l 1
429 729 m 1
 529 729 l 1
 510 636 l 1
 492 554 444 505 381 505 c 1
 389 543 l 1
 428 543 452 572 463 631 c 1
 408 631 l 1
 429 729 l 1
EndSplineSet
MinimumDistance: x2,-1 
EndChar
StartChar: lcaron
Encoding: 318 318 251
Width: 307
Flags: W
HStem: 0 21G<68 152> 505.339 37.6606<328 329> 631 98<367 400>
DStem: 223 729 307 729 68 0 152 0 367 729 467 729 346 631 448 636
Fore
307 729 m 1
 152 0 l 1
 68 0 l 1
 223 729 l 1
 307 729 l 1
367 729 m 1
 467 729 l 1
 448 636 l 1
 430 554 382 505 319 505 c 1
 327 543 l 1
 366 543 390 572 401 631 c 1
 346 631 l 1
 367 729 l 1
EndSplineSet
EndChar
StartChar: Lslash
Encoding: 321 321 254
Width: 556
Flags: W
HStem: 0 82<212 552> 709 20G<255 349>
DStem: 92 304 261 315 75 225 211 82 158 276 261 315 100 0 211 82 158 276 570 82 100 0 552 0 255 729 349 729 175 355 278 394 474 512 457 433 278 394 261 315
Fore
261 315 m 1
 211 82 l 1
 570 82 l 1
 552 0 l 1
 100 0 l 1
 158 276 l 1
 75 225 l 1
 92 304 l 1
 175 355 l 1
 255 729 l 1
 349 729 l 1
 278 394 l 1
 474 512 l 1
 457 433 l 1
 261 315 l 1
EndSplineSet
EndChar
StartChar: lslash
Encoding: 322 322 255
Width: 222
Flags: W
HStem: 0 21G<67 151> 709 20G<222 306>
DStem: 76 337 225 347 62 270 151 0 134 314 225 347 67 0 151 0 222 729 306 729 149 382 239 414 222 729 312 456 149 382 298 389
Fore
239 414 m 1
 312 456 l 1
 298 389 l 1
 225 347 l 1
 151 0 l 1
 67 0 l 1
 134 314 l 1
 62 270 l 1
 76 337 l 1
 149 382 l 1
 222 729 l 1
 306 729 l 1
 239 414 l 1
EndSplineSet
EndChar
StartChar: Nacute
Encoding: 323 323 256
Width: 722
Flags: W
HStem: 0 21G<76 165 540 646> 709 20G<231 335 712 801>
DStem: 231 729 291 591 76 0 165 0 291 591 335 729 540 0 585 131 712 729 801 729 585 131 646 0
Fore
801 729 m 1
 646 0 l 1
 540 0 l 1
 291 591 l 1
 165 0 l 1
 76 0 l 1
 231 729 l 1
 335 729 l 1
 585 131 l 1
 712 729 l 1
 801 729 l 1
594 939 m 1
 706 939 l 1
 526 791 l 1
 466 791 l 1
 594 939 l 1
EndSplineSet
EndChar
StartChar: nacute
Encoding: 324 324 257
Width: 556
Flags: W
HStem: 0 21G<70 154 406 490> 466.995 72.0047<399 438> 504 20G<181 257> 720 20G<468 580>
VStem: 485.994 88.0059<386 414>
DStem: 181 524 215 289 70 0 154 0 480 349 570 376 406 0 490 0
Fore
181 524 m 1
 257 524 l 1
 244 459 l 1
 296 512 362 539 438 539 c 0
 521 539 574 490 574 414 c 0
 574 401 573 389 570 376 c 1
 490 0 l 1
 406 0 l 1
 480 349 l 1
 484 365 486 380 486 386 c 0
 486 432 449 467 399 467 c 0
 309 467 239 399 215 289 c 1
 154 0 l 1
 70 0 l 1
 181 524 l 1
468 740 m 1
 580 740 l 1
 400 592 l 1
 340 592 l 1
 468 740 l 1
EndSplineSet
EndChar
StartChar: Ncommaaccent
Encoding: 325 325 258
Width: 722
Flags: W
HStem: -283.661 37.6606<243 244> -158 98<282 315> 0 21G<76 165 540 646> 709 20G<231 335 712 801>
DStem: 231 729 291 591 76 0 165 0 282 -60 382 -60 261 -158 363 -153 291 591 335 729 540 0 585 131 712 729 801 729 585 131 646 0
Fore
801 729 m 1
 646 0 l 1
 540 0 l 1
 291 591 l 1
 165 0 l 1
 76 0 l 1
 231 729 l 1
 335 729 l 1
 585 131 l 1
 712 729 l 1
 801 729 l 1
282 -60 m 1
 382 -60 l 1
 363 -153 l 1
 345 -235 297 -284 234 -284 c 1
 242 -246 l 1
 281 -246 305 -217 316 -158 c 1
 261 -158 l 1
 282 -60 l 1
EndSplineSet
EndChar
StartChar: ncommaaccent
Encoding: 326 326 259
Width: 556
Flags: W
HStem: -283.661 37.6606<178 183> -158 98<217 250> 0 21G<70 154 406 490> 466.995 72.0047<399 438> 504 20G<181 257>
VStem: 485.994 88.0059<386 414>
DStem: 181 524 215 289 70 0 154 0 217 -60 317 -60 196 -158 298 -153 480 349 570 376 406 0 490 0
Fore
181 524 m 1
 257 524 l 1
 244 459 l 1
 296 512 362 539 438 539 c 0
 521 539 574 490 574 414 c 0
 574 401 573 389 570 376 c 1
 490 0 l 1
 406 0 l 1
 480 349 l 1
 484 365 486 380 486 386 c 0
 486 432 449 467 399 467 c 0
 309 467 239 399 215 289 c 1
 154 0 l 1
 70 0 l 1
 181 524 l 1
217 -60 m 1
 317 -60 l 1
 298 -153 l 1
 280 -235 232 -284 169 -284 c 1
 177 -246 l 1
 216 -246 240 -217 251 -158 c 1
 196 -158 l 1
 217 -60 l 1
EndSplineSet
EndChar
StartChar: Ncaron
Encoding: 327 327 260
Width: 722
Flags: W
HStem: 0 21G<76 165 540 646> 709 20G<231 335 712 801>
DStem: 231 729 291 591 76 0 165 0 291 591 335 729 540 0 585 131 712 729 801 729 585 131 646 0
Fore
801 729 m 1
 646 0 l 1
 540 0 l 1
 291 591 l 1
 165 0 l 1
 76 0 l 1
 231 729 l 1
 335 729 l 1
 585 131 l 1
 712 729 l 1
 801 729 l 1
570 791 m 1
 475 791 l 1
 411 939 l 1
 474 939 l 1
 530 841 l 1
 634 939 l 1
 698 939 l 1
 570 791 l 1
EndSplineSet
EndChar
StartChar: ncaron
Encoding: 328 328 261
Width: 556
Flags: W
HStem: 0 21G<70 154 406 490> 466.995 72.0047<399 438> 504 20G<181 257> 720 20G<291 354 514 578>
VStem: 485.994 88.0059<386 414>
DStem: 181 524 215 289 70 0 154 0 480 349 570 376 406 0 490 0
Fore
181 524 m 1
 257 524 l 1
 244 459 l 1
 296 512 362 539 438 539 c 0
 521 539 574 490 574 414 c 0
 574 401 573 389 570 376 c 1
 490 0 l 1
 406 0 l 1
 480 349 l 1
 484 365 486 380 486 386 c 0
 486 432 449 467 399 467 c 0
 309 467 239 399 215 289 c 1
 154 0 l 1
 70 0 l 1
 181 524 l 1
450 592 m 1
 355 592 l 1
 291 740 l 1
 354 740 l 1
 410 642 l 1
 514 740 l 1
 578 740 l 1
 450 592 l 1
EndSplineSet
EndChar
StartChar: napostrophe
Encoding: 329 329 262
Width: 556
Flags: W
HStem: 0 21G<70 154 406 490> 466.995 72.0047<399 438> 504 20G<181 257>
VStem: 485.994 88.0059<386 414>
DStem: 181 524 215 289 70 0 154 0 480 349 570 376 406 0 490 0
Fore
181 524 m 1
 257 524 l 1
 244 459 l 1
 296 512 362 539 438 539 c 0
 521 539 574 490 574 414 c 0
 574 401 573 389 570 376 c 1
 490 0 l 1
 406 0 l 1
 480 349 l 1
 484 365 486 380 486 386 c 0
 486 432 449 467 399 467 c 0
 309 467 239 399 215 289 c 1
 154 0 l 1
 70 0 l 1
 181 524 l 1
EndSplineSet
EndChar
StartChar: Eng
Encoding: 330 330 263
Width: 722
Flags: W
HStem: 0 21G<76 165 540 646> 709 20G<231 335 712 801>
DStem: 231 729 291 591 76 0 165 0 291 591 335 729 540 0 585 131 712 729 801 729 585 131 646 0
Fore
801 729 m 1
 646 0 l 1
 540 0 l 1
 291 591 l 1
 165 0 l 1
 76 0 l 1
 231 729 l 1
 335 729 l 1
 585 131 l 1
 712 729 l 1
 801 729 l 1
EndSplineSet
EndChar
StartChar: eng
Encoding: 331 331 264
Width: 556
Flags: W
HStem: 0 21G<70 154 406 490> 466.995 72.0047<399 438> 504 20G<181 257>
VStem: 485.994 88.0059<386 414>
DStem: 181 524 215 289 70 0 154 0 480 349 570 376 406 0 490 0
Fore
181 524 m 1
 257 524 l 1
 244 459 l 1
 296 512 362 539 438 539 c 0
 521 539 574 490 574 414 c 0
 574 401 573 389 570 376 c 1
 490 0 l 1
 406 0 l 1
 480 349 l 1
 484 365 486 380 486 386 c 0
 486 432 449 467 399 467 c 0
 309 467 239 399 215 289 c 1
 154 0 l 1
 70 0 l 1
 181 524 l 1
EndSplineSet
EndChar
StartChar: Omacron
Encoding: 332 332 265
Width: 778
Flags: W
HStem: -23 81<390 422> 660 81<520 539> 826 69<438 698>
VStem: 104 96<249 281> 732 96<441 466>
Fore
537 741 m 0
 628 741 707 713 756 664 c 0
 800 619 828 543 828 464 c 0
 828 306 752 144 635 54 c 0
 570 4 485 -23 391 -23 c 0
 306 -23 225 6 177 54 c 0
 131 100 104 177 104 263 c 0
 104 390 157 522 246 614 c 0
 327 699 424 741 537 741 c 0
525 660 m 0
 431 660 342 613 284 533 c 0
 231 460 200 363 200 271 c 0
 200 213 214 164 241 130 c 0
 276 86 339 58 404 58 c 0
 501 58 589 104 647 185 c 0
 700 257 732 355 732 446 c 0
 732 505 718 553 691 588 c 0
 657 632 593 660 525 660 c 0
713 895 m 1
 698 826 l 1
 423 826 l 1
 438 895 l 1
 713 895 l 1
EndSplineSet
EndChar
StartChar: omacron
Encoding: 333 333 266
Width: 556
Flags: W
HStem: -23 77<268 288> 462 77<368 386> 627 69<284 544>
VStem: 80 88<164 186> 488 88<329 353>
Fore
384 539 m 0
 442 539 487 523 521 490 c 0
 556 456 576 405 576 352 c 0
 576 265 543 156 497 93 c 0
 441 16 365 -23 269 -23 c 0
 157 -23 80 53 80 164 c 0
 80 249 113 359 158 423 c 0
 209 497 291 539 384 539 c 0
371 462 m 0
 305 462 249 425 212 357 c 0
 185 307 168 241 168 184 c 0
 168 104 212 54 283 54 c 0
 352 54 406 90 444 159 c 0
 471 209 488 274 488 333 c 0
 488 414 445 462 371 462 c 0
559 696 m 1
 544 627 l 1
 269 627 l 1
 284 696 l 1
 559 696 l 1
EndSplineSet
EndChar
StartChar: Ohungarumlaut
Encoding: 336 336 269
Width: 778
Flags: W
HStem: -23 81<390 408> 660 81<520 539>
VStem: 104 96<249 281> 732 96<441 466>
Fore
537 741 m 0
 628 741 707 713 756 664 c 0
 800 619 828 543 828 464 c 0
 828 306 752 144 635 54 c 0
 570 4 485 -23 391 -23 c 0
 306 -23 225 6 177 54 c 0
 131 100 104 177 104 263 c 0
 104 390 157 522 246 614 c 0
 327 699 424 741 537 741 c 0
525 660 m 0
 431 660 342 613 284 533 c 0
 231 460 200 363 200 271 c 0
 200 213 214 164 241 130 c 0
 276 86 339 58 404 58 c 0
 501 58 589 104 647 185 c 0
 700 257 732 355 732 446 c 0
 732 505 718 553 691 588 c 0
 657 632 593 660 525 660 c 0
555 939 m 1
 667 939 l 1
 487 789 l 1
 427 789 l 1
 555 939 l 1
729 939 m 1
 841 939 l 1
 661 789 l 1
 601 789 l 1
 729 939 l 1
EndSplineSet
EndChar
StartChar: ohungarumlaut
Encoding: 337 337 270
Width: 556
Flags: W
HStem: -23 77<268 288> 462 77<368 386> 720 20G<397 509 571 683>
VStem: 80 88<164 186> 488 88<329 353>
Fore
384 539 m 0
 442 539 487 523 521 490 c 0
 556 456 576 405 576 352 c 0
 576 265 543 156 497 93 c 0
 441 16 365 -23 269 -23 c 0
 157 -23 80 53 80 164 c 0
 80 249 113 359 158 423 c 0
 209 497 291 539 384 539 c 0
371 462 m 0
 305 462 249 425 212 357 c 0
 185 307 168 241 168 184 c 0
 168 104 212 54 283 54 c 0
 352 54 406 90 444 159 c 0
 471 209 488 274 488 333 c 0
 488 414 445 462 371 462 c 0
397 740 m 1
 509 740 l 1
 329 590 l 1
 269 590 l 1
 397 740 l 1
571 740 m 1
 683 740 l 1
 503 590 l 1
 443 590 l 1
 571 740 l 1
EndSplineSet
EndChar
StartChar: OE
Encoding: 338 338 271
Width: 1000
Flags: W
HStem: -23 81<332 357> 0 82<635 957> 327 82<705 1013> 647 82<755 1091> 660 81<479 501>
VStem: 101 96<201 249>
DStem: 638 539 755 647 562 182 704 409 638 539 1031 409 562 182 1013 327 638 539 687 327 562 182 634 82
Fore
687 327 m 1
 634 82 l 1
 974 82 l 1
 957 0 l 1
 523 0 l 1
 539 77 l 1
 482 7 419 -23 332 -23 c 0
 193 -23 101 73 101 219 c 0
 101 359 158 529 235 616 c 0
 304 693 404 741 496 741 c 0
 579 741 631 714 662 653 c 1
 678 729 l 1
 1108 729 l 1
 1091 647 l 1
 755 647 l 1
 704 409 l 1
 1031 409 l 1
 1013 327 l 1
 687 327 l 1
562 182 m 1
 638 539 l 1
 619 621 568 660 480 660 c 0
 393 660 320 613 269 523 c 0
 229 454 197 318 197 222 c 0
 197 120 256 58 352 58 c 0
 436 58 505 99 562 182 c 1
EndSplineSet
EndChar
StartChar: oe
Encoding: 339 339 272
Width: 944
Flags: W
HStem: -23 77<274 293 666 685> 234 72<582 875> 462 77<370 388 757 777>
VStem: 85 88<161 185> 877.87 87.2021<338 368>
Fore
838 159 m 1
 922 159 l 1
 890 50 788 -23 667 -23 c 0
 598 -23 550 1 508 55 c 0
 499 66 496 72 491 84 c 1
 441 17 362 -23 275 -23 c 0
 217 -23 171 -7 139 26 c 0
 105 61 85 112 85 165 c 0
 85 246 117 354 162 422 c 0
 212 497 292 539 386 539 c 0
 470 539 529 503 558 436 c 1
 601 495 693 539 775 539 c 0
 883 539 966 464 966 368 c 0
 966 341 961 299 952 251 c 2
 949 234 l 1
 563 234 l 1
 558 208 556 196 556 176 c 0
 556 102 605 54 683 54 c 0
 749 54 802 90 838 159 c 1
371 462 m 0
 261 462 173 338 173 181 c 0
 173 103 216 54 285 54 c 0
 351 54 408 92 445 159 c 0
 471 207 487 275 487 334 c 0
 487 414 443 462 371 462 c 0
581 306 m 1
 875 306 l 1
 877 320 878 328 878 338 c 0
 878 414 833 462 764 462 c 0
 682 462 607 398 581 306 c 1
EndSplineSet
EndChar
StartChar: Racute
Encoding: 340 340 273
Width: 722
Flags: W
HStem: 0 21G<93 187 566 679> 314 82<272 511> 647 82<325 585>
VStem: 562.216 101.604<47 76> 593.995 96.005<239 264> 674 95.263<557 560>
DStem: 248 729 325 647 93 0 271 396 248 729 254 314 93 0 187 0
Fore
254 314 m 1
 187 0 l 1
 93 0 l 1
 248 729 l 1
 584 729 l 2
 712 729 770 681 770 575 c 0
 770 513 743 446 703 409 c 0
 685 393 669 382 630 360 c 1
 677 329 690 308 690 264 c 0
 690 246 682 194 669 126 c 0
 665 105 663 88 663 76 c 0
 663 54 671 35 684 23 c 1
 679 0 l 1
 566 0 l 1
 563 21 562 32 562 47 c 0
 562 79 562 79 586 179 c 0
 591 201 594 222 594 239 c 0
 594 288 558 314 493 314 c 2
 254 314 l 1
271 396 m 1
 502 396 l 2
 566 396 608 413 637 449 c 0
 659 477 674 521 674 558 c 0
 674 582 666 605 653 619 c 0
 634 640 608 647 555 647 c 2
 325 647 l 1
 271 396 l 1
577 939 m 1
 689 939 l 1
 509 791 l 1
 449 791 l 1
 577 939 l 1
EndSplineSet
EndChar
StartChar: racute
Encoding: 341 341 274
Width: 333
Flags: W
HStem: 0 21G<69 153> 451.139 87.8615<385.028 404 404.016 417.905> 504 20G<180 256> 720 20G<386 498>
DStem: 180 524 256 524 69 0 239 442 180 524 211 272 69 0 153 0
Fore
180 524 m 1
 256 524 l 1
 239 442 l 1
 301 513 346 539 404 539 c 0
 415 539 423 538 436 536 c 1
 418 451 l 1
 308 455 237 394 211 272 c 2
 153 0 l 1
 69 0 l 1
 180 524 l 1
386 740 m 1
 498 740 l 1
 318 592 l 1
 258 592 l 1
 386 740 l 1
EndSplineSet
MinimumDistance: x1,-1 
EndChar
StartChar: Rcommaaccent
Encoding: 342 342 275
Width: 722
Flags: W
HStem: -283.661 37.6606<271 273> -158 98<310 343> 0 21G<93 187 566 679> 314 82<272 509> 647 82<325 585>
VStem: 562.436 100.924<47 76> 593.995 96.005<239 264> 674 95.263<557 564>
DStem: 248 729 325 647 93 0 271 396 248 729 254 314 93 0 187 0 310 -60 410 -60 289 -158 391 -153
Fore
254 314 m 1
 187 0 l 1
 93 0 l 1
 248 729 l 1
 584 729 l 2
 712 729 770 681 770 575 c 0
 770 513 743 446 703 409 c 0
 685 393 669 382 630 360 c 1
 677 329 690 308 690 264 c 0
 690 246 682 194 669 126 c 0
 665 105 663 88 663 76 c 0
 663 54 671 35 684 23 c 1
 679 0 l 1
 566 0 l 1
 563 21 562 32 562 47 c 0
 562 79 562 79 586 179 c 0
 591 201 594 222 594 239 c 0
 594 288 558 314 493 314 c 2
 254 314 l 1
271 396 m 1
 502 396 l 2
 566 396 608 413 637 449 c 0
 659 477 674 521 674 558 c 0
 674 582 666 605 653 619 c 0
 634 640 608 647 555 647 c 2
 325 647 l 1
 271 396 l 1
310 -60 m 1
 410 -60 l 1
 391 -153 l 1
 373 -235 325 -284 262 -284 c 1
 270 -246 l 1
 309 -246 333 -217 344 -158 c 1
 289 -158 l 1
 310 -60 l 1
EndSplineSet
EndChar
StartChar: rcommaaccent
Encoding: 343 343 276
Width: 333
Flags: W
HStem: -283.661 37.6606<14 15> -158 98<53 86> 0 21G<69 153> 451 88<389 418> 504 20G<181 256>
DStem: 53 -60 153 -60 32 -158 134 -153 181 524 256 524 69 0 239 442 181 524 211 272 69 0 153 0
Fore
181 524 m 1
 256 524 l 1
 239 442 l 1
 302 513 346 539 404 539 c 0
 415 539 423 538 436 536 c 1
 418 451 l 1
 408 451 l 2
 305 452 235 388 211 272 c 1
 153 0 l 1
 69 0 l 1
 181 524 l 1
53 -60 m 1
 153 -60 l 1
 134 -153 l 1
 116 -235 68 -284 5 -284 c 1
 13 -246 l 1
 52 -246 76 -217 87 -158 c 1
 32 -158 l 1
 53 -60 l 1
EndSplineSet
MinimumDistance: x1,-1 
EndChar
StartChar: Rcaron
Encoding: 344 344 277
Width: 722
Flags: W
HStem: 0 21G<93 187 566 679> 314 82<272 509> 647 82<325 585>
VStem: 562.216 101.604<47 76> 593.995 96.005<239 264> 674 95.263<557 560>
DStem: 248 729 325 647 93 0 271 396 248 729 254 314 93 0 187 0
Fore
254 314 m 1
 187 0 l 1
 93 0 l 1
 248 729 l 1
 584 729 l 2
 712 729 770 681 770 575 c 0
 770 513 743 446 703 409 c 0
 685 393 669 382 630 360 c 1
 677 329 690 308 690 264 c 0
 690 246 682 194 669 126 c 0
 665 105 663 88 663 76 c 0
 663 54 671 35 684 23 c 1
 679 0 l 1
 566 0 l 1
 563 21 562 32 562 47 c 0
 562 79 562 79 586 179 c 0
 591 201 594 222 594 239 c 0
 594 288 558 314 493 314 c 2
 254 314 l 1
271 396 m 1
 502 396 l 2
 566 396 608 413 637 449 c 0
 659 477 674 521 674 558 c 0
 674 582 666 605 653 619 c 0
 634 640 608 647 555 647 c 2
 325 647 l 1
 271 396 l 1
556 791 m 1
 461 791 l 1
 397 939 l 1
 460 939 l 1
 516 841 l 1
 620 939 l 1
 684 939 l 1
 556 791 l 1
EndSplineSet
EndChar
StartChar: rcaron
Encoding: 345 345 278
Width: 333
Flags: W
HStem: 0 21G<69 153> 451.139 87.8615<385.028 404 404.016 417.905> 504 20G<180 256> 720 20G<199 262 422 486>
DStem: 180 524 256 524 69 0 239 442 180 524 211 272 69 0 153 0
Fore
180 524 m 1
 256 524 l 1
 239 442 l 1
 301 513 346 539 404 539 c 0
 415 539 423 538 436 536 c 1
 418 451 l 1
 308 455 237 394 211 272 c 2
 153 0 l 1
 69 0 l 1
 180 524 l 1
358 592 m 1
 263 592 l 1
 199 740 l 1
 262 740 l 1
 318 642 l 1
 422 740 l 1
 486 740 l 1
 358 592 l 1
EndSplineSet
MinimumDistance: x1,-1 
EndChar
StartChar: Sacute
Encoding: 346 346 279
Width: 667
Flags: W
HStem: -23 81<318 361> 660 81<457 498>
VStem: 89.0062 91.9938<171 191> 178.621 96.1936<492 518> 572.995 96.0048<209 237> 621.995 92.0051<551 571>
Fore
706 515 m 1
 618 515 l 1
 621 535 622 542 622 551 c 0
 622 580 609 612 590 629 c 0
 568 649 526 660 470 660 c 0
 404 660 355 644 318 611 c 0
 289 584 274 553 274 518 c 0
 274 474 298 454 375 432 c 2
 547 383 l 2
 594 370 623 350 645 315 c 0
 660 291 669 263 669 237 c 0
 669 181 633 108 582 61 c 0
 523 6 435 -23 330 -23 c 0
 179 -23 89 49 89 169 c 0
 89 190 91 206 98 232 c 1
 185 232 l 1
 182 213 181 204 181 191 c 0
 181 100 233 58 346 58 c 0
 426 58 485 77 526 114 c 0
 554 140 573 178 573 209 c 0
 573 257 540 286 460 309 c 2
 289 357 l 2
 222 376 178 429 178 492 c 0
 178 543 209 614 250 656 c 0
 304 712 385 741 488 741 c 0
 566 741 619 725 660 689 c 0
 693 660 714 614 714 571 c 0
 714 556 712 543 706 515 c 1
566 939 m 1
 678 939 l 1
 498 791 l 1
 438 791 l 1
 566 939 l 1
EndSplineSet
EndChar
StartChar: sacute
Encoding: 347 347 280
Width: 500
Flags: W
HStem: -23 77<241 269> 462 77<333 358> 720 20G<433 545>
VStem: 61.498 93.0539<105 131> 123.892 87.6412<345 367> 404.81 87.2468<150 173> 430.377 89.1996<400 421>
Fore
514 378 m 1
 430 378 l 1
 431 386 431 393 431 400 c 0
 431 439 398 462 339 462 c 0
 295 462 265 452 241 429 c 0
 223 412 211 387 211 367 c 0
 211 341 240 321 296 307 c 2
 372 288 l 2
 460 266 493 234 493 173 c 0
 493 54 396 -23 247 -23 c 0
 131 -23 61 25 61 105 c 0
 61 121 62 133 67 156 c 1
 156 156 l 1
 155 146 154 137 154 131 c 0
 154 81 193 54 262 54 c 0
 305 54 348 67 373 88 c 0
 389 101 405 132 405 150 c 0
 405 159 399 174 392 183 c 0
 383 194 368 200 335 209 c 2
 261 228 l 2
 158 255 123 284 123 345 c 0
 123 392 147 444 183 479 c 0
 224 518 285 539 356 539 c 0
 453 539 520 491 520 421 c 0
 520 408 519 399 514 378 c 1
433 740 m 1
 545 740 l 1
 365 592 l 1
 305 592 l 1
 433 740 l 1
EndSplineSet
EndChar
StartChar: Scedilla
Encoding: 350 350 283
Width: 667
Flags: W
HStem: -214 43<251 280> -22 80<338.125 361> 660 81<457 490>
VStem: 89.0062 91.9938<171 191> 178.716 95.9692<492 518> 330 77.1123<-118 -114> 572.995 96.0048<209 237> 621.951 91.1406<551 571>
DStem: 296 -22 338 -22 259 -92 320 -56
Fore
338 -22 m 1
 320 -56 l 1
 333 -54 336 -54 341 -54 c 0
 378 -54 408 -77 408 -105 c 0
 408 -168 347 -214 263 -214 c 0
 225 -214 197 -206 145 -180 c 1
 173 -142 l 1
 213 -163 239 -171 267 -171 c 0
 304 -171 330 -148 330 -116 c 0
 330 -104 315 -94 299 -94 c 0
 294 -94 294 -94 279 -97 c 2
 272 -98 l 1
 259 -92 l 1
 296 -22 l 1
 227 -13 199 -4 169 15 c 0
 118 49 89 105 89 169 c 0
 89 190 91 206 98 232 c 1
 185 232 l 1
 182 213 181 204 181 191 c 0
 181 100 233 58 346 58 c 0
 426 58 485 77 526 114 c 0
 554 140 573 179 573 209 c 0
 573 257 540 286 460 309 c 2
 289 357 l 2
 222 376 178 429 178 492 c 0
 178 543 209 614 250 656 c 0
 304 712 385 741 488 741 c 0
 566 741 619 725 660 689 c 0
 693 660 714 614 714 571 c 0
 714 555 712 543 706 515 c 1
 618 515 l 1
 621 535 622 543 622 551 c 0
 622 579 609 612 590 629 c 0
 568 649 526 660 470 660 c 0
 404 660 355 644 318 611 c 0
 289 584 274 553 274 518 c 0
 274 474 298 454 375 432 c 2
 547 383 l 2
 594 370 623 350 645 315 c 0
 660 291 669 263 669 237 c 0
 669 165 616 78 545 32 c 0
 489 -4 422 -22 338 -22 c 1
EndSplineSet
EndChar
StartChar: scedilla
Encoding: 351 351 284
Width: 500
Flags: W
HStem: -214 43<173 197> 462 77<333 358>
VStem: 61.8335 92.6108<105 131> 123.004 87.9964<345 367> 247 77.1123<-118 -114> 405.676 87.3538<150 173> 430.26 90.1302<400 421>
DStem: 214 -22 255 -23 176 -92 237 -56
Fore
255 -23 m 1
 237 -56 l 1
 250 -54 253 -54 258 -54 c 0
 295 -54 325 -77 325 -105 c 0
 325 -168 264 -214 180 -214 c 0
 142 -214 113 -206 62 -180 c 1
 90 -142 l 1
 130 -163 156 -171 184 -171 c 0
 221 -171 247 -148 247 -116 c 0
 247 -104 233 -94 216 -94 c 0
 211 -94 211 -94 196 -97 c 2
 189 -98 l 1
 176 -92 l 1
 214 -22 l 1
 112 -9 61 33 61 105 c 0
 61 121 63 133 67 156 c 1
 156 156 l 1
 155 146 154 137 154 131 c 0
 154 81 193 54 262 54 c 0
 305 54 349 67 374 88 c 0
 390 101 406 132 406 150 c 0
 406 159 400 174 393 183 c 0
 384 194 369 200 335 209 c 2
 261 228 l 2
 158 255 123 284 123 345 c 0
 123 392 147 444 183 479 c 0
 224 518 286 539 356 539 c 0
 454 539 521 491 521 421 c 0
 521 409 519 399 514 378 c 1
 431 378 l 1
 431 389 l 1
 431 394 l 1
 431 400 l 2
 431 440 398 462 340 462 c 0
 295 462 265 452 241 429 c 0
 223 412 211 387 211 367 c 0
 211 341 240 321 296 307 c 2
 372 288 l 2
 461 266 494 234 494 173 c 0
 494 109 461 49 409 17 c 0
 366 -9 323 -20 255 -23 c 1
EndSplineSet
EndChar
StartChar: Scaron
Encoding: 352 352 285
Width: 667
Flags: W
HStem: -23 81<318 361> 660 81<457 490>
VStem: 89.0062 91.9938<171 191> 178.621 96.1936<492 518> 572.995 96.0048<209 237> 621.995 92.0051<551 571>
Fore
706 515 m 1
 618 515 l 1
 621 535 622 542 622 551 c 0
 622 580 609 612 590 629 c 0
 568 649 526 660 470 660 c 0
 404 660 355 644 318 611 c 0
 289 584 274 553 274 518 c 0
 274 474 298 454 375 432 c 2
 547 383 l 2
 594 370 623 350 645 315 c 0
 660 291 669 263 669 237 c 0
 669 181 633 108 582 61 c 0
 523 6 435 -23 330 -23 c 0
 179 -23 89 49 89 169 c 0
 89 190 91 206 98 232 c 1
 185 232 l 1
 182 213 181 204 181 191 c 0
 181 100 233 58 346 58 c 0
 426 58 485 77 526 114 c 0
 554 140 573 178 573 209 c 0
 573 257 540 286 460 309 c 2
 289 357 l 2
 222 376 178 429 178 492 c 0
 178 543 209 614 250 656 c 0
 304 712 385 741 488 741 c 0
 566 741 619 725 660 689 c 0
 693 660 714 614 714 571 c 0
 714 556 712 543 706 515 c 1
547 791 m 1
 452 791 l 1
 388 939 l 1
 451 939 l 1
 507 841 l 1
 611 939 l 1
 675 939 l 1
 547 791 l 1
EndSplineSet
EndChar
StartChar: scaron
Encoding: 353 353 286
Width: 500
Flags: W
HStem: -23 77<241 269> 462 77<333 358> 720 20G<260 323 483 547>
VStem: 61.498 93.0539<105 131> 123.892 87.6412<345 367> 404.81 87.2468<150 173> 430.377 89.1996<400 421>
Fore
514 378 m 1
 430 378 l 1
 431 386 431 393 431 400 c 0
 431 439 398 462 339 462 c 0
 295 462 265 452 241 429 c 0
 223 412 211 387 211 367 c 0
 211 341 240 321 296 307 c 2
 372 288 l 2
 460 266 493 234 493 173 c 0
 493 54 396 -23 247 -23 c 0
 131 -23 61 25 61 105 c 0
 61 121 62 133 67 156 c 1
 156 156 l 1
 155 146 154 137 154 131 c 0
 154 81 193 54 262 54 c 0
 305 54 348 67 373 88 c 0
 389 101 405 132 405 150 c 0
 405 159 399 174 392 183 c 0
 383 194 368 200 335 209 c 2
 261 228 l 2
 158 255 123 284 123 345 c 0
 123 392 147 444 183 479 c 0
 224 518 285 539 356 539 c 0
 453 539 520 491 520 421 c 0
 520 408 519 399 514 378 c 1
419 592 m 1
 324 592 l 1
 260 740 l 1
 323 740 l 1
 379 642 l 1
 483 740 l 1
 547 740 l 1
 419 592 l 1
EndSplineSet
EndChar
StartChar: Tcaron
Encoding: 356 356 289
Width: 611
Flags: W
HStem: 0 21G<261 355> 647 82<175 398 493 731>
DStem: 175 729 493 647 158 647 355 0 399 647 493 647 261 0 355 0
Fore
493 647 m 1
 355 0 l 1
 261 0 l 1
 399 647 l 1
 158 647 l 1
 175 729 l 1
 748 729 l 1
 731 647 l 1
 493 647 l 1
524 791 m 1
 429 791 l 1
 365 939 l 1
 428 939 l 1
 484 841 l 1
 588 939 l 1
 652 939 l 1
 524 791 l 1
EndSplineSet
MinimumDistance: x0,-1 
EndChar
StartChar: tcaron
Encoding: 357 357 290
Width: 319
Flags: W
HStem: -22.0467 71.8808<186 219> 457 67<122 178 278 352> 457 211<263 277> 577.339 37.6606<353 354> 703 98<392 425>
VStem: 97.8996 85.2698<56 76>
DStem: 122 524 263 457 108 457 185 90 179 457 263 457 100 87 185 90 224 668 308 668 193 524 277 524 392 801 492 801 371 703 473 708
Fore
366 524 m 1
 352 457 l 1
 263 457 l 1
 185 90 l 1
 184 84 183 79 183 76 c 0
 183 60 197 49 219 49 c 0
 231 49 236 50 267 57 c 1
 251 -16 l 1
 237 -20 206 -23 186 -23 c 0
 131 -23 97 7 97 56 c 0
 97 66 98 77 100 87 c 2
 179 457 l 1
 108 457 l 1
 122 524 l 1
 193 524 l 1
 224 668 l 1
 308 668 l 1
 277 524 l 1
 366 524 l 1
392 801 m 1
 492 801 l 1
 473 708 l 1
 455 626 407 577 344 577 c 1
 352 615 l 1
 391 615 415 644 426 703 c 1
 371 703 l 1
 392 801 l 1
EndSplineSet
EndChar
StartChar: Tbar
Encoding: 358 358 291
Width: 611
Flags: W
HStem: 0 21G<261 355> 647 82<175 398 493 731>
DStem: 175 729 493 647 158 647 355 0 399 647 493 647 261 0 355 0
Fore
493 647 m 1
 355 0 l 1
 261 0 l 1
 399 647 l 1
 158 647 l 1
 175 729 l 1
 748 729 l 1
 731 647 l 1
 493 647 l 1
EndSplineSet
MinimumDistance: x0,-1 
EndChar
StartChar: tbar
Encoding: 359 359 292
Width: 278
Flags: W
HStem: -22.0467 71.8808<186 219> 457 67<122 178 278 352> 457 211<263 277>
VStem: 97.8996 85.2698<56 76>
DStem: 122 524 263 457 108 457 185 90 179 457 263 457 100 87 185 90 224 668 308 668 193 524 277 524
Fore
366 524 m 1
 352 457 l 1
 263 457 l 1
 185 90 l 1
 184 84 183 79 183 76 c 0
 183 60 197 49 219 49 c 0
 231 49 236 50 267 57 c 1
 251 -16 l 1
 237 -20 206 -23 186 -23 c 0
 131 -23 97 7 97 56 c 0
 97 66 98 77 100 87 c 2
 179 457 l 1
 108 457 l 1
 122 524 l 1
 193 524 l 1
 224 668 l 1
 308 668 l 1
 277 524 l 1
 366 524 l 1
EndSplineSet
EndChar
StartChar: Umacron
Encoding: 362 362 295
Width: 722
Flags: W
HStem: -23 81<362 383> 709 20G<240 334 706 800> 826 69<418 677>
VStem: 124.895 95.2169<155 174>
DStem: 240 729 334 729 138 251 225 217 706 729 800 729 597 217 691 217
Fore
706 729 m 1
 800 729 l 1
 691 217 l 2
 660 71 531 -23 363 -23 c 0
 286 -23 220 -2 179 35 c 0
 147 64 124 114 124 155 c 0
 124 171 131 217 138 251 c 1
 240 729 l 1
 334 729 l 1
 225 217 l 2
 222 202 220 187 220 174 c 0
 220 104 285 58 381 58 c 0
 494 58 576 118 597 217 c 2
 706 729 l 1
692 895 m 1
 677 826 l 1
 403 826 l 1
 418 895 l 1
 692 895 l 1
EndSplineSet
EndChar
StartChar: umacron
Encoding: 363 363 296
Width: 556
Flags: W
HStem: -22.9987 71.9987<226 268> 0 21G<407 483> 504 20G<177 261 510 594> 627 69<285 545>
DStem: 177 524 261 524 91 120 182 153 419 57 594 524 407 0 483 0 510 524 594 524 447 227 483 0
Fore
483 0 m 1
 407 0 l 1
 419 57 l 1
 361 1 304 -23 226 -23 c 0
 140 -23 88 18 88 86 c 0
 88 99 89 110 91 120 c 2
 177 524 l 1
 261 524 l 1
 182 153 l 2
 180 143 179 134 179 126 c 0
 179 79 214 49 268 49 c 0
 353 49 424 119 447 227 c 2
 510 524 l 1
 594 524 l 1
 483 0 l 1
560 696 m 1
 545 627 l 1
 270 627 l 1
 285 696 l 1
 560 696 l 1
EndSplineSet
EndChar
StartChar: Uring
Encoding: 366 366 299
Width: 722
Flags: W
HStem: -23 81<362 383> 709 20G<240 334 706 800> 778 44<532 542> 909 44<556 568>
VStem: 124.895 95.2169<155 174> 459 46<848 859> 594 44.0744<873 876>
DStem: 240 729 334 729 138 251 225 217 706 729 800 729 597 217 691 217
Fore
706 729 m 1
 800 729 l 1
 691 217 l 2
 660 71 531 -23 363 -23 c 0
 286 -23 220 -2 179 35 c 0
 147 64 124 114 124 155 c 0
 124 171 131 217 138 251 c 1
 240 729 l 1
 334 729 l 1
 225 217 l 2
 222 202 220 187 220 174 c 0
 220 104 285 58 381 58 c 0
 494 58 576 118 597 217 c 2
 706 729 l 1
567 953 m 0
 608 953 639 924 639 886 c 0
 639 830 587 778 530 778 c 0
 490 778 459 809 459 848 c 0
 459 901 513 953 567 953 c 0
560 909 m 0
 532 909 505 883 505 857 c 0
 505 836 520 822 540 822 c 0
 567 822 594 848 594 874 c 0
 594 894 579 909 560 909 c 0
EndSplineSet
EndChar
StartChar: uring
Encoding: 367 367 300
Width: 556
Flags: W
HStem: -22.9987 71.9987<226 268> 0 21G<407 483> 504 20G<177 261 510 594> 579 44<397 408> 710 44<419 433>
VStem: 324 46<649 660> 459 44.0744<674 681>
DStem: 177 524 261 524 91 120 182 153 419 57 594 524 407 0 483 0 510 524 594 524 447 227 483 0
Fore
483 0 m 1
 407 0 l 1
 419 57 l 1
 361 1 304 -23 226 -23 c 0
 140 -23 88 18 88 86 c 0
 88 99 89 110 91 120 c 2
 177 524 l 1
 261 524 l 1
 182 153 l 2
 180 143 179 134 179 126 c 0
 179 79 214 49 268 49 c 0
 353 49 424 119 447 227 c 2
 510 524 l 1
 594 524 l 1
 483 0 l 1
432 754 m 0
 473 754 504 725 504 687 c 0
 504 631 452 579 395 579 c 0
 355 579 324 610 324 649 c 0
 324 702 378 754 432 754 c 0
425 710 m 0
 397 710 370 684 370 658 c 0
 370 637 385 623 405 623 c 0
 432 623 459 649 459 675 c 0
 459 695 444 710 425 710 c 0
EndSplineSet
EndChar
StartChar: Uhungarumlaut
Encoding: 368 368 301
Width: 722
Flags: W
HStem: -23 81<362 392> 709 20G<240 334 706 800>
VStem: 124.895 95.2169<155 174>
DStem: 240 729 334 729 138 251 225 217 706 729 800 729 597 217 691 217
Fore
706 729 m 1
 800 729 l 1
 691 217 l 2
 660 71 531 -23 363 -23 c 0
 286 -23 220 -2 179 35 c 0
 147 64 124 114 124 155 c 0
 124 171 131 217 138 251 c 1
 240 729 l 1
 334 729 l 1
 225 217 l 2
 222 202 220 187 220 174 c 0
 220 104 285 58 381 58 c 0
 494 58 576 118 597 217 c 2
 706 729 l 1
520 939 m 1
 632 939 l 1
 452 789 l 1
 392 789 l 1
 520 939 l 1
694 939 m 1
 806 939 l 1
 626 789 l 1
 566 789 l 1
 694 939 l 1
EndSplineSet
EndChar
StartChar: uhungarumlaut
Encoding: 369 369 302
Width: 556
Flags: W
HStem: -22.9987 71.9987<226 268> 0 21G<407 483> 504 20G<177 261 510 594> 720 20G<397 509 571 683>
DStem: 177 524 261 524 91 120 182 153 419 57 594 524 407 0 483 0 510 524 594 524 447 227 483 0
Fore
483 0 m 1
 407 0 l 1
 419 57 l 1
 361 1 304 -23 226 -23 c 0
 140 -23 88 18 88 86 c 0
 88 99 89 110 91 120 c 2
 177 524 l 1
 261 524 l 1
 182 153 l 2
 180 143 179 134 179 126 c 0
 179 79 214 49 268 49 c 0
 353 49 424 119 447 227 c 2
 510 524 l 1
 594 524 l 1
 483 0 l 1
397 740 m 1
 509 740 l 1
 329 590 l 1
 269 590 l 1
 397 740 l 1
571 740 m 1
 683 740 l 1
 503 590 l 1
 443 590 l 1
 571 740 l 1
EndSplineSet
EndChar
StartChar: Uogonek
Encoding: 370 370 303
Width: 722
Flags: W
HStem: -205 45<486 516> -23 81<358 396> 709 20G<240 334 706 800>
VStem: 124.384 96.0826<155 173> 356.588 74.412<-117 -114>
DStem: 240 729 334 729 138 251 225 217 706 729 800 729 597 217 691 217
Fore
568 -150 m 1
 559 -195 l 1
 537 -203 519 -205 487 -205 c 0
 403 -205 356 -177 356 -127 c 0
 356 -84 388 -46 453 -13 c 1
 415 -21 397 -23 366 -23 c 0
 285 -23 221 -3 179 35 c 0
 147 64 124 114 124 155 c 0
 124 170 131 218 138 251 c 2
 240 729 l 1
 334 729 l 1
 225 217 l 1
 222 201 220 187 220 173 c 0
 220 104 285 58 381 58 c 0
 494 58 576 118 597 217 c 2
 706 729 l 1
 800 729 l 1
 691 217 l 1
 668 121 624 65 514 -6 c 1
 463 -41 431 -84 431 -116 c 0
 431 -142 457 -160 497 -160 c 0
 524 -160 549 -156 568 -150 c 1
EndSplineSet
EndChar
StartChar: uogonek
Encoding: 371 371 304
Width: 556
Flags: W
HStem: -204.964 44.9642<424 440> -22.9987 71.9987<226 268> 504 20G<177 261 510 594>
VStem: 304.772 73.2282<-116 -115>
DStem: 177 524 261 524 91 120 182 153 419 57 594 524 407 0 483 0 510 524 594 524 447 227 483 0
Fore
594 524 m 1
 483 0 l 1
 461 -12 447 -22 414 -53 c 0
 389 -75 378 -95 378 -115 c 0
 378 -140 403 -160 433 -160 c 0
 453 -160 478 -156 495 -150 c 1
 486 -195 l 1
 465 -202 446 -205 419 -205 c 0
 348 -205 304 -175 304 -127 c 128
 304 -79 348 -33 427 0 c 1
 407 0 l 1
 419 57 l 1
 361 1 304 -23 226 -23 c 0
 140 -23 88 18 88 86 c 0
 88 99 89 110 91 120 c 2
 177 524 l 1
 261 524 l 1
 182 153 l 2
 180 143 179 134 179 126 c 0
 179 79 214 49 268 49 c 0
 353 49 424 119 447 227 c 2
 510 524 l 1
 594 524 l 1
EndSplineSet
EndChar
StartChar: Ydieresis
Encoding: 376 376 309
Width: 667
Flags: W
HStem: 0 21G<293 387> 709 20G<168 280 705 816> 811 103<400 482 561 643>
DStem: 354 286 448 286 293 0 387 0 400 914 504 914 378 811 482 811 561 914 665 914 539 811 643 811 705 729 816 729 416 372 448 286
Fore
448 286 m 1
 387 0 l 1
 293 0 l 1
 354 286 l 1
 168 729 l 1
 280 729 l 1
 416 372 l 1
 705 729 l 1
 816 729 l 1
 448 286 l 1
504 914 m 1
 482 811 l 1
 378 811 l 1
 400 914 l 1
 504 914 l 1
665 914 m 1
 643 811 l 1
 539 811 l 1
 561 914 l 1
 665 914 l 1
EndSplineSet
EndChar
StartChar: Zacute
Encoding: 377 377 310
Width: 611
Flags: W
HStem: 0 82<164 584> 647 82<212 600>
DStem: 601 647 719 645 46 84 163 82
Fore
737 729 m 1
 719 645 l 1
 163 82 l 1
 601 82 l 1
 584 0 l 1
 28 0 l 1
 46 84 l 1
 601 647 l 1
 195 647 l 1
 212 729 l 1
 737 729 l 1
552 939 m 1
 664 939 l 1
 484 791 l 1
 424 791 l 1
 552 939 l 1
EndSplineSet
EndChar
StartChar: zacute
Encoding: 378 378 311
Width: 500
Flags: W
HStem: 0 72<148 458> 452 72<165 443> 720 20G<440 552>
DStem: 444 452 539 449 49 74 147 72
Fore
557 524 m 1
 539 449 l 1
 147 72 l 1
 473 72 l 1
 458 0 l 1
 31 0 l 1
 49 74 l 1
 444 452 l 1
 150 452 l 1
 165 524 l 1
 557 524 l 1
440 740 m 1
 552 740 l 1
 372 592 l 1
 312 592 l 1
 440 740 l 1
EndSplineSet
EndChar
StartChar: Zdotaccent
Encoding: 379 379 312
Width: 611
Flags: W
HStem: 0 82<164 584> 647 82<212 600> 811 103<458 540>
DStem: 458 914 562 914 436 811 540 811 601 647 719 645 46 84 163 82
Fore
737 729 m 1
 719 645 l 1
 163 82 l 1
 601 82 l 1
 584 0 l 1
 28 0 l 1
 46 84 l 1
 601 647 l 1
 195 647 l 1
 212 729 l 1
 737 729 l 1
562 914 m 1
 540 811 l 1
 436 811 l 1
 458 914 l 1
 562 914 l 1
EndSplineSet
EndChar
StartChar: zdotaccent
Encoding: 380 380 313
Width: 500
Flags: W
HStem: 0 72<148 458> 452 72<165 443> 612 103<346 428>
DStem: 346 715 450 715 324 612 428 612 444 452 539 449 49 74 147 72
Fore
557 524 m 1
 539 449 l 1
 147 72 l 1
 473 72 l 1
 458 0 l 1
 31 0 l 1
 49 74 l 1
 444 452 l 1
 150 452 l 1
 165 524 l 1
 557 524 l 1
450 715 m 1
 428 612 l 1
 324 612 l 1
 346 715 l 1
 450 715 l 1
EndSplineSet
EndChar
StartChar: Zcaron
Encoding: 381 381 314
Width: 611
Flags: W
HStem: 0 82<164 584> 647 82<212 600>
DStem: 601 647 719 645 46 84 163 82
Fore
737 729 m 1
 719 645 l 1
 163 82 l 1
 601 82 l 1
 584 0 l 1
 28 0 l 1
 46 84 l 1
 601 647 l 1
 195 647 l 1
 212 729 l 1
 737 729 l 1
531 791 m 1
 436 791 l 1
 372 939 l 1
 435 939 l 1
 491 841 l 1
 595 939 l 1
 659 939 l 1
 531 791 l 1
EndSplineSet
EndChar
StartChar: zcaron
Encoding: 382 382 315
Width: 500
Flags: W
HStem: 0 72<148 458> 452 72<165 443> 720 20G<261 324 484 548>
DStem: 444 452 539 449 49 74 147 72
Fore
557 524 m 1
 539 449 l 1
 147 72 l 1
 473 72 l 1
 458 0 l 1
 31 0 l 1
 49 74 l 1
 444 452 l 1
 150 452 l 1
 165 524 l 1
 557 524 l 1
420 592 m 1
 325 592 l 1
 261 740 l 1
 324 740 l 1
 380 642 l 1
 484 740 l 1
 548 740 l 1
 420 592 l 1
EndSplineSet
EndChar
StartChar: longs
Encoding: 383 383 316
Width: 278
Flags: W
HStem: 0 21G<89 173> 457 67<130 185> 660 72<361 377>
DStem: 130 524 299 593 116 457 173 0 186 457 299 593 89 0 173 0 219 613 299 593 200 524 173 0
Fore
173 0 m 1
 89 0 l 1
 186 457 l 1
 116 457 l 1
 130 524 l 1
 200 524 l 1
 219 613 l 2
 235 687 291 732 368 732 c 0
 384 732 395 731 413 727 c 1
 398 658 l 1
 384 660 378 660 371 660 c 0
 328 660 309.641 643.078 299 593 c 2
 173 0 l 1
EndSplineSet
EndChar
StartChar: florin
Encoding: 402 402 317
Width: 556
Flags: W
HStem: -211.998 76.9983<20 53> 392 72<240 336 455 552> 661 76.0137<603 608>
DStem: 337 392 425 392 172 -21 267 -5
Fore
567 464 m 1
 552 392 l 1
 425 392 l 1
 267 -5 l 2
 211 -146 133 -212 20 -212 c 0
 -2 -212 -15 -209 -32 -202 c 1
 3 -116 l 1
 20 -130 33 -135 53 -135 c 0
 103 -135 141 -99 172 -21 c 2
 337 392 l 1
 225 392 l 1
 240 464 l 1
 365 464 l 1
 408 567 l 2
 451 670 535 738 621 738 c 0
 647 738 671 732 696 719 c 1
 650 641 l 1
 631 656 619 661 602 661 c 0
 555 661 513 617 481 533 c 1
 454 464 l 1
 567 464 l 1
EndSplineSet
MinimumDistance: x2,-1 
EndChar
StartChar: Scommaaccent
Encoding: 536 536 318
Width: 667
Flags: W
HStem: -283.661 37.6606<237 238> -158 98<276 309> -23 81<318 361> 660 81<457 490>
VStem: 89.0062 91.9938<171 191> 178.004 95.9961<492 518> 572.995 96.0048<209 237> 621.17 92.6732<551 571>
DStem: 276 -60 376 -60 255 -158 357 -153
Fore
706 515 m 1
 618 515 l 1
 621 535 622 542 622 551 c 0
 622 580 609 612 590 629 c 0
 568 649 526 660 470 660 c 0
 404 660 355 644 318 611 c 0
 289 584 274 553 274 518 c 0
 274 474 298 454 375 432 c 2
 547 383 l 2
 594 370 623 350 645 315 c 0
 660 291 669 263 669 237 c 0
 669 181 633 108 582 61 c 0
 523 6 435 -23 330 -23 c 0
 179 -23 89 49 89 169 c 0
 89 190 91 206 98 232 c 1
 185 232 l 1
 182 213 181 204 181 191 c 0
 181 100 233 58 346 58 c 0
 426 58 485 77 526 114 c 0
 554 140 573 178 573 209 c 0
 573 257 540 286 460 309 c 2
 289 357 l 2
 222 376 178 429 178 492 c 0
 178 543 209 614 250 656 c 0
 304 712 385 741 488 741 c 0
 566 741 619 725 660 689 c 0
 693 660 714 614 714 571 c 0
 714 556 712 543 706 515 c 1
276 -60 m 1
 376 -60 l 1
 357 -153 l 1
 339 -235 291 -284 228 -284 c 1
 236 -246 l 1
 275 -246 299 -217 310 -158 c 1
 255 -158 l 1
 276 -60 l 1
EndSplineSet
EndChar
StartChar: scommaaccent
Encoding: 537 537 319
Width: 500
Flags: W
HStem: -283.661 37.6606<152 158> -158 98<191 224> -23 77<241 274> 462 77<333 358>
VStem: 61.0013 92.9987<105 131> 123.004 87.9964<345 367> 404.513 87.7249<150 173> 430.881 88.1867<400 421>
DStem: 191 -60 291 -60 170 -158 272 -153
Fore
514 378 m 1
 430 378 l 1
 431 386 431 393 431 400 c 0
 431 439 398 462 339 462 c 0
 295 462 265 452 241 429 c 0
 223 412 211 387 211 367 c 0
 211 341 240 321 296 307 c 2
 372 288 l 2
 460 266 493 234 493 173 c 0
 493 54 396 -23 247 -23 c 0
 131 -23 61 25 61 105 c 0
 61 121 62 133 67 156 c 1
 156 156 l 1
 155 146 154 137 154 131 c 0
 154 81 193 54 262 54 c 0
 305 54 348 67 373 88 c 0
 389 101 405 132 405 150 c 0
 405 159 399 174 392 183 c 0
 383 194 368 200 335 209 c 2
 261 228 l 2
 158 255 123 284 123 345 c 0
 123 392 147 444 183 479 c 0
 224 518 285 539 356 539 c 0
 453 539 520 491 520 421 c 0
 520 408 519 399 514 378 c 1
191 -60 m 1
 291 -60 l 1
 272 -153 l 1
 254 -235 206 -284 143 -284 c 1
 151 -246 l 1
 190 -246 214 -217 225 -158 c 1
 170 -158 l 1
 191 -60 l 1
EndSplineSet
EndChar
StartChar: Tcommaaccent
Encoding: 538 538 320
Width: 611
Flags: W
HStem: -283.661 37.6606<205 206> -158 98<244 277> 0 21G<261 355> 647 82<175 398 493 731>
DStem: 175 729 493 647 158 647 355 0 244 -60 344 -60 223 -158 325 -153 399 647 493 647 261 0 355 0
Fore
493 647 m 1
 355 0 l 1
 261 0 l 1
 399 647 l 1
 158 647 l 1
 175 729 l 1
 748 729 l 1
 731 647 l 1
 493 647 l 1
244 -60 m 1
 344 -60 l 1
 325 -153 l 1
 307 -235 259 -284 196 -284 c 1
 204 -246 l 1
 243 -246 267 -217 278 -158 c 1
 223 -158 l 1
 244 -60 l 1
EndSplineSet
MinimumDistance: x0,-1 
EndChar
StartChar: tcommaaccent
Encoding: 539 539 321
Width: 278
Flags: W
HStem: -283.661 37.6606<64 65> -158 98<103 136> -22.9975 71.9975<186 218> 457 67<122 178 278 351> 457 211<263 277>
VStem: 97.0023 85.9977<56 76>
DStem: 103 -60 203 -60 82 -158 184 -153 122 524 263 457 108 457 185 90 179 457 263 457 100 87 185 90 224 668 308 668 193 524 277 524
Fore
366 524 m 1
 351 457 l 1
 263 457 l 1
 185 90 l 2
 184 85 183 80 183 76 c 0
 183 60 197 49 218 49 c 0
 231 49 238 50 267 57 c 1
 251 -16 l 1
 236 -20 206 -23 186 -23 c 0
 131 -23 97 7 97 56 c 0
 97 68 98 77 100 87 c 2
 179 457 l 1
 108 457 l 1
 122 524 l 1
 193 524 l 1
 224 668 l 1
 308 668 l 1
 277 524 l 1
 366 524 l 1
103 -60 m 1
 203 -60 l 1
 184 -153 l 1
 166 -235 118 -284 55 -284 c 1
 63 -246 l 1
 102 -246 126 -217 137 -158 c 1
 82 -158 l 1
 103 -60 l 1
EndSplineSet
EndChar
StartChar: circumflex
Encoding: 710 710 322
Width: 333
Flags: W
HStem: 721 20G<274 369>
Fore
274 741 m 1
 369 741 l 1
 433 591 l 1
 370 591 l 1
 314 690 l 1
 210 591 l 1
 146 591 l 1
 274 741 l 1
EndSplineSet
EndChar
StartChar: caron
Encoding: 711 711 323
Width: 333
Flags: W
HStem: 720 20G<176 239 399 463>
Fore
335 592 m 1
 240 592 l 1
 176 740 l 1
 239 740 l 1
 295 642 l 1
 399 740 l 1
 463 740 l 1
 335 592 l 1
EndSplineSet
EndChar
StartChar: breve
Encoding: 728 728 324
Width: 333
Flags: W
HStem: 594 72<291 309> 709 20G<170 223 415 471>
VStem: 165.004 57.9958<693 716>
Fore
170 729 m 1
 223 729 l 1
 223 721 l 1
 223 716 l 2
 223 686 256 666 305 666 c 0
 364 666 405 689 415 729 c 1
 471 729 l 1
 460 685 449 664 425 643 c 0
 392 613 341 594 292 594 c 0
 217 594 165 634 165 693 c 0
 165 702 166 710 170 729 c 1
EndSplineSet
MinimumDistance: x1,-1 
EndChar
StartChar: dotaccent
Encoding: 729 729 325
Width: 333
Flags: W
HStem: 612 103<266 348>
DStem: 266 715 370 715 244 612 348 612
Fore
370 715 m 1
 348 612 l 1
 244 612 l 1
 266 715 l 1
 370 715 l 1
EndSplineSet
EndChar
StartChar: ring
Encoding: 730 730 326
Width: 333
Flags: W
HStem: 579 44<289 299> 710 44<312 325>
VStem: 216 46<649 660> 351 44.0744<674 677>
Fore
324 754 m 0
 365 754 396 725 396 687 c 0
 396 631 344 579 287 579 c 0
 247 579 216 610 216 649 c 0
 216 702 270 754 324 754 c 0
317 710 m 0
 289 710 262 684 262 658 c 0
 262 637 277 623 297 623 c 0
 324 623 351 649 351 675 c 0
 351 695 336 710 317 710 c 0
EndSplineSet
EndChar
StartChar: ogonek
Encoding: 731 731 327
Width: 333
Flags: W
HStem: -205 45<163 179> -20 20G<165 234>
VStem: 35.8758 74.1243<-130 -116>
Fore
165 0 m 1
 234 0 l 1
 230 -3 222 -6 212 -11 c 0
 162 -36 147 -46 130 -66 c 0
 117 -81 110 -100 110 -116 c 0
 110 -142 137 -160 176 -160 c 0
 203 -160 228 -156 246 -150 c 1
 237 -195 l 1
 216 -202 197 -205 169 -205 c 0
 84 -205 35 -177 35 -130 c 0
 35 -93 56 -59 94 -34 c 0
 113 -22 130 -13 165 0 c 1
EndSplineSet
MinimumDistance: x4,-1 
EndChar
StartChar: tilde
Encoding: 732 732 328
Width: 333
Flags: W
HStem: 612 70<362 372> 644 70<226 242>
Fore
418 719 m 1
 471 719 l 1
 450 654 408 612 363 612 c 0
 341 612 324 616 260 638 c 0
 249 642 239 644 233 644 c 0
 214 644 202 638 190 620 c 0
 188 618 186 615 183 611 c 1
 130 611 l 1
 142 646 150 663 162 678 c 0
 178 699 209 714 234 714 c 0
 251 714 268 710 307 697 c 0
 333 688 360 682 370 682 c 0
 390 682 400 690 418 719 c 1
EndSplineSet
EndChar
StartChar: hungarumlaut
Encoding: 733 733 329
Width: 333
Flags: W
HStem: 720 20G<219 331 393 505>
Fore
219 740 m 1
 331 740 l 1
 151 590 l 1
 91 590 l 5
 219 740 l 1
393 740 m 1
 505 740 l 1
 325 590 l 1
 265 590 l 1
 393 740 l 1
EndSplineSet
EndChar
StartChar: uni030F
Encoding: 783 783 340
Width: 0
Flags: HW
HStem: 720 20G<-241 -135 -67 39>
Fore
39 740 m 1
 111 592 l 1
 58 592 l 1
 -67 740 l 1
 39 740 l 1
-135 740 m 1
 -63 592 l 1
 -116 592 l 1
 -241 740 l 1
 -135 740 l 1
EndSplineSet
EndChar
StartChar: uni0313
Encoding: 787 787 342
Width: 0
Flags: HW
HStem: 583 42<-201.937 -185.526> 720 20G<-202 -121>
Fore
-185.314 740 m 1
 -104.314 740 l 1
 -118.98 671 l 2
 -131.097 614 -162.686 583 -218.686 583 c 1
 -209.759 625 l 1
 -189.759 625 -168.971 624 -159.193 670 c 1
 -200.193 670 l 1
 -185.314 740 l 1
EndSplineSet
EndChar
StartChar: uni0374
Encoding: 884 884 344
Width: 199
Flags: HW
Fore
162.348 716 m 5
 32.3672 580 l 5
 32.6523 644 l 5
 122.633 780 l 5
 162.348 716 l 5
EndSplineSet
EndChar
StartChar: uni0375
Encoding: 885 885 345
Width: 199
Flags: HW
Fore
15.6523 -130 m 1
 145.633 6 l 1
 145.348 -58 l 1
 55.3672 -194 l 1
 15.6523 -130 l 1
EndSplineSet
EndChar
StartChar: uni037A
Encoding: 890 890 346
Width: 332
Flags: W
Fore
279.049 -192 m 1
 266.295 -252 242.082 -253 184.082 -253 c 0
 131.082 -253 116.034 -225 126.874 -174 c 2
 163 -76 l 5
 239 -76 l 5
 220.02 -170 186.734 -217 220.947 -216 c 0
 249.11 -215.177 241.372 -214 254.049 -192 c 1
 279.049 -192 l 1
EndSplineSet
EndChar
StartChar: tonos
Encoding: 900 900 330
Width: 291
Flags: W
Fore
354 753 m 1
 281.662 573 l 1
 207.662 573 l 1
 240 753 l 1
 354 753 l 1
EndSplineSet
AnchorPoint: "1 Top" 248.662 565 mark 0
EndChar
StartChar: anoteleia
Encoding: 903 903 333
Width: 358
Flags: W
Fore
232.646 419.243 m 4
 267.892 419.243 288.257 397.936 288.257 358.708 c 4
 288.257 332.392 280.354 316.235 269.338 298.172 c 4
 254.761 274.271 229.614 256.06 197.102 256.06 c 4
 163.353 256.06 141.491 277.902 141.491 316.597 c 4
 141.491 342.913 149.394 359.069 160.41 377.132 c 4
 174.468 399.027 200.149 419.243 232.646 419.243 c 4
EndSplineSet
EndChar
StartChar: Alpha
Encoding: 913 913 341
Width: 684
Flags: W
HStem: 0 21G<-81 21 483 589> 218 76<200 442>
DStem: 374 716 371 573 -81 0 331 504 374 716 331 504 -81 0 200 294 374 716 153 218 -81 0 21 0
Fore
589 0 m 1
 483 0 l 1
 453 218 l 1
 153 218 l 1
 21 0 l 1
 -81 0 l 1
 374 716 l 1
 476 716 l 1
 589 0 l 1
442 294 m 1
 418 492 l 2
 413 534 409 566 407 587 c 0
 406 596 404 615 403 642 c 1
 392 616 381 593 371 573 c 0
 362 558 349 535 331 504 c 1
 200 294 l 1
 442 294 l 1
EndSplineSet
MinimumDistance: x12,-1 
EndChar
StartChar: Beta
Encoding: 914 914 342
Width: 628
Flags: W
HStem: 0 84<100 290> 330 86<183 354> 632 84<236 418>
DStem: 164 716 237 632 -15 0 183 416 164 716 161 330 -15 0 100 84
Fore
579 212 m 0
 575 195 568 177 560 159 c 1
 534 110 502 73 463 48 c 0
 415 16 346 0 257 0 c 2
 -15 0 l 1
 164 716 l 1
 432 716 l 2
 476 716 513 710 543 699 c 0
 572 688 592 674 606 656 c 0
 620 637 627 618 629 598 c 1
 629 575 629 554 624 534 c 0
 616 502 601 473 577 446 c 0
 553 418 523 397 486 382 c 1
 505 375 523 367 538 356 c 1
 568 330 585 297 585 257 c 0
 585 243 583 228 579 212 c 0
527 522 m 0
 530 534 532 544 532 555 c 0
 532 565 530 575 527 584 c 0
 519 604 505 617 483 623 c 0
 462 629 428 632 381 632 c 2
 237 632 l 1
 183 416 l 1
 339 416 l 2
 382 416 412 419 431 424 c 0
 482 437 514 470 527 522 c 0
479 208 m 0
 482 220 484 231 484 242 c 0
 484 255 481 267 476 278 c 0
 466 297 450 310 428 318 c 0
 405 326 372 330 327 330 c 2
 161 330 l 1
 100 84 l 1
 278 84 l 2
 296 84 308 84 314 85 c 0
 405 92 460 133 479 208 c 0
EndSplineSet
MinimumDistance: x20,-1 
EndChar
StartChar: Gamma
Encoding: 915 915 343
Width: 582
Flags: W
HStem: 0 21G<-7 89> 632 84<246 636>
DStem: 172 716 247 632 -7 0 89 0
Fore
635 632 m 1
 247 632 l 1
 89 0 l 1
 -7 0 l 1
 172 716 l 1
 656 716 l 1
 635 632 l 1
EndSplineSet
MinimumDistance: x1,-1 
EndChar
StartChar: Delta
Encoding: 916 916 344
Width: 684
Flags: W
HStem: 0 84<79 477>
DStem: 379 716 376 573 -76 0 336 504 379 716 336 504 -76 0 79 84
Fore
594 0 m 1
 492 2 l 1
 -76 0 l 1
 379 716 l 1
 481 716 l 1
 594 0 l 1
477 84 m 1
 423 492 l 1
 417 539 413 570 412 587 c 0
 410 598 409 616 408 642 c 1
 398 619 388 596 376 573 c 0
 366 555 353 532 336 504 c 2
 79 84 l 1
 477 84 l 1
EndSplineSet
MinimumDistance: x9,-1 
EndChar
StartChar: Epsilon
Encoding: 917 917 345
Width: 650
Flags: W
HStem: 0 84<106 525> 328 84<188 563> 632 84<242 667>
DStem: 170 716 243 632 -9 0 188 412 170 716 167 328 -9 0 106 84
Fore
525 0 m 1
 -9 0 l 1
 170 716 l 1
 688 716 l 1
 667 632 l 1
 243 632 l 1
 188 412 l 1
 584 412 l 1
 563 328 l 1
 167 328 l 1
 106 84 l 1
 546 84 l 1
 525 0 l 1
EndSplineSet
MinimumDistance: x5,-1 
EndChar
StartChar: Zeta
Encoding: 918 918 346
Width: 628
Flags: W
HStem: 0 84<77 512> 632 84<166 546>
DStem: 450 546 658 632 -32 88 132 136
Fore
512 0 m 1
 -54 0 l 1
 -32 88 l 1
 450 546 l 2
 483 578 514 607 546 632 c 1
 146 632 l 1
 167 716 l 1
 679 716 l 1
 658 632 l 1
 132 136 l 1
 77 84 l 1
 533 84 l 1
 512 0 l 1
EndSplineSet
EndChar
StartChar: Eta
Encoding: 919 919 347
Width: 683
Flags: W
HStem: 0 21G<-24 70 442 536> 338 84<175 526>
DStem: 155 716 249 716 -24 0 175 422 155 716 154 338 -24 0 70 0 526 338 715 716 442 0 536 0 621 716 715 716 547 422 536 0
Fore
536 0 m 1
 442 0 l 1
 526 338 l 1
 154 338 l 1
 70 0 l 1
 -24 0 l 1
 155 716 l 1
 249 716 l 1
 175 422 l 1
 547 422 l 1
 621 716 l 1
 715 716 l 1
 536 0 l 1
EndSplineSet
EndChar
StartChar: Theta
Encoding: 920 920 348
Width: 750
Flags: W
HStem: -12 82<292 314> 328 84<229 545> 648 82<450 481>
VStem: 26 101<231 259> 643 101<451 478>
Fore
728 358 m 0
 710 283 678 218 634 162 c 128
 590 106 539 63 479 33 c 0
 420 3 358 -12 294 -12 c 0
 235 -12 183 0 138 25 c 0
 91 50 58 90 40 144 c 0
 30 170 26 199 26 232 c 0
 26 267 31 306 42 350 c 0
 57 410 78 463 107 509 c 0
 135 556 168 596 207 629 c 0
 245 662 287 687 334 704 c 128
 381 721 430 730 479 730 c 0
 521 730 561 723 599 709 c 0
 636 694 667 672 692 642 c 0
 718 612 734 573 741 525 c 0
 743 510 744 494 744 477 c 0
 744 441 739 401 728 358 c 0
630 358 m 0
 641 401 643 440 643 477 c 1
 641 512 632 543 617 569 c 0
 602 594 581 614 555 628 c 1
 527 641 495 648 459 648 c 0
 422 648 385 641 351 628 c 128
 317 615 287 596 259 570 c 128
 231 544 207 513 187 476 c 0
 166 438 149 395 138 348 c 0
 130 316 126 286 126 259 c 0
 126 250 126 241 127 233 c 0
 131 200 140 170 156 145 c 0
 171 121 192 102 220 89 c 0
 246 76 277 70 312 70 c 0
 361 70 406 81 449 104 c 128
 492 127 529 160 561 203 c 0
 592 246 615 297 630 358 c 0
545 328 m 1
 209 328 l 1
 230 412 l 1
 566 412 l 1
 545 328 l 1
EndSplineSet
MinimumDistance: x15,-1 
EndChar
StartChar: Iota
Encoding: 921 921 349
Width: 236
Flags: W
HStem: 0 21G<-20 74>
DStem: 159 716 253 716 -20 0 74 0
Fore
74 0 m 1
 -20 0 l 1
 159 716 l 1
 253 716 l 1
 74 0 l 1
EndSplineSet
EndChar
StartChar: Kappa
Encoding: 922 922 350
Width: 684
Flags: W
HStem: 0 21G<-15 79 451 577>
DStem: 164 716 258 716 -15 0 169 362 164 716 141 248 -15 0 79 0 612 716 732 716 169 362 369 426
Fore
577 0 m 1
 451 0 l 1
 283 362 l 1
 141 248 l 1
 79 0 l 1
 -15 0 l 1
 164 716 l 1
 258 716 l 1
 169 362 l 1
 612 716 l 1
 732 716 l 1
 369 426 l 1
 577 0 l 1
EndSplineSet
EndChar
StartChar: Lambda
Encoding: 923 923 351
Width: 684
Flags: W
HStem: 0 21G<-81 21 483 589>
DStem: 374 716 371 573 -81 0 331 504
Fore
589 0 m 1
 483 0 l 1
 418 492 l 1
 413 534 409 566 407 587 c 0
 406 596 404 615 403 642 c 1
 392 616 381 593 371 573 c 0
 362 558 349 535 331 504 c 1
 21 0 l 1
 -81 0 l 1
 374 716 l 1
 476 716 l 1
 589 0 l 1
EndSplineSet
MinimumDistance: x5,-1 
EndChar
